<?xml version="1.0" encoding="utf-8"?>
<!-- Generator: Adobe Illustrator 16.0.0, SVG Export Plug-In . SVG Version: 6.00 Build 0)  -->
<!DOCTYPE svg PUBLIC "-//W3C//DTD SVG 1.1//EN" "http://www.w3.org/Graphics/SVG/1.1/DTD/svg11.dtd">
<svg version="1.1" id="Capa_1" xmlns="http://www.w3.org/2000/svg" xmlns:xlink="http://www.w3.org/1999/xlink" x="0px" y="0px"
	 width="800.566px" height="800.566px" viewBox="0 0 800.566 800.566" enable-background="new 0 0 800.566 800.566"
	 xml:space="preserve">
<g id="OEf1Qe_2_">
	<g>
		<path fill-rule="evenodd" clip-rule="evenodd" fill="#0D0D0D" d="M400.73,87.833c49.786,0,99.596,0,149.38,0
			c42.717,0.025,80.201,13.881,111.436,43.073c32.279,30.162,50.447,67.648,50.779,111.844c0.844,103.424,0.41,206.847,0.434,310.27
			c0,7.631-0.484,15.261-1.76,22.839c-8.932,53.154-37,92.731-84.311,118.479c-23.094,12.504-48.074,18.296-74.332,18.32
			c-101.867,0-203.708,0.23-305.55-0.128c-41.134-0.125-77.217-14.569-107.302-42.587c-34.5-32.152-51.469-72.241-51.494-119.399
			c-0.102-100.819-0.714-201.717,0.204-302.588c0.613-62.927,29.906-110.16,84.718-141.113
			c23.783-13.423,49.862-19.011,77.14-19.011C300.292,87.884,350.51,87.833,400.73,87.833z M359.136,365.058
			c-15.821,1.608-29.473,8.115-40.675,19.215c-18.271,18.169-24.215,40.446-20.567,65.555
			c7.579,52.414,68.643,77.753,110.823,45.754c20.364-15.438,28.811-36.721,28.224-62.06c-0.688-29.983-18.832-55.476-47.03-65.325
			c0.026-0.562-0.025-1.174,0.127-1.685c7.528-24.242,20.006-45.422,39.502-61.88c34.296-28.963,73.925-36.924,117.202-27.814
			c26.742,5.665,49.76,18.653,68.363,38.914c1.658,1.812,2.396,3.42,1.555,6.048c-1.453,4.492-1.301,9.162-0.305,13.831
			c3.164,14.8,18.705,25.441,33.58,22.915c16.715-2.909,27.459-17.25,25.264-33.785c-2.016-15.056-16.561-26.641-31.77-25.162
			c-2.119,0.205-3.42-0.28-4.797-1.812c-50.219-57.951-140.041-70.199-204.704-32.585c-36.286,21.077-59.226,52.821-71.985,92.399
			C361.126,360.107,360.922,362.889,359.136,365.058z M460.264,415.022c0,29.346,0.05,58.691-0.078,88.088
			c0,3.112,0.716,4.031,3.956,4.006c11.916-0.205,23.833,0,35.751-0.127c9.467-0.128,18.983,0.586,28.425-0.741
			c55.73-7.859,91.508-63.642,75.252-117.509c-10.844-36.031-42.768-62.008-80.176-64.917c-19.674-1.531-39.399-0.255-59.1-0.74
			c-3.572-0.076-4.108,1.148-4.108,4.312C460.314,356.586,460.264,385.804,460.264,415.022z M237.519,511.071
			c14.877-0.052,34.475-7.119,51.877-20.543c2.118-1.632,2.425-2.832,0.918-5.18c-5.512-8.726-10.87-17.581-16.127-26.487
			c-1.25-2.117-1.938-2.525-3.929-0.638c-13.142,12.376-28.759,17.353-46.723,15.516c-30.672-3.114-54.583-31.872-51.418-62.621
			c2.45-23.86,15.132-40.905,37.434-49.403c22.073-8.37,42.641-4.338,60.35,11.687c2.297,2.093,3.087,1.735,4.517-0.689
			c5.027-8.574,10.13-17.097,15.489-25.416c1.888-2.884,1.506-4.465-1.174-6.481c-19.826-15.03-42.053-21.792-66.83-19.572
			c-53.409,4.772-92.348,52.873-85.918,105.925C141.853,475.167,182.222,511.096,237.519,511.071z M663.23,438.345
			c0-21.537-0.076-43.1,0.104-64.637c0-3.241-0.842-3.98-3.982-3.879c-9.211,0.205-18.422,0.153-27.635,0
			c-2.807-0.025-3.879,0.384-3.879,3.573c0.102,43.38,0.102,86.76,0,130.142c0,2.831,0.816,3.598,3.6,3.546
			c9.184-0.179,18.422-0.179,27.635,0c3.215,0.052,4.262-0.637,4.262-4.082C663.154,481.469,663.23,459.881,663.23,438.345z"/>
		<path fill-rule="evenodd" clip-rule="evenodd" fill="#ACACB1" d="M359.136,365.058c1.787-2.169,1.991-4.95,2.808-7.477
			c12.759-39.578,35.699-71.322,71.985-92.399c64.663-37.614,154.485-25.365,204.704,32.585c1.377,1.531,2.678,2.016,4.797,1.812
			c15.209-1.479,29.754,10.105,31.77,25.162c2.195,16.535-8.549,30.876-25.264,33.785c-14.875,2.526-30.416-8.115-33.58-22.915
			c-0.996-4.669-1.148-9.339,0.305-13.831c0.842-2.628,0.104-4.236-1.555-6.048c-18.604-20.261-41.621-33.249-68.363-38.914
			c-43.277-9.109-82.906-1.148-117.202,27.814c-19.496,16.458-31.974,37.639-39.502,61.88c-0.153,0.511-0.101,1.123-0.127,1.685
			c-4.619,11.814-5.97,24.343-7.629,36.797c-0.435,3.291,0.586,5.358,3.521,7.323c12.428,8.319,16.918,25.62,10.59,39.272
			c-6.839,14.697-22.532,22.327-37.485,18.193c-13.295-3.699-21.665-12.478-23.936-25.927c-2.296-13.574,2.884-24.7,14.444-32.509
			c2.041-1.353,2.986-2.756,3.24-5.384c0.638-7.427,1.659-14.852,2.884-22.252C356.558,377.459,359.009,371.488,359.136,365.058z"/>
		<path fill-rule="evenodd" clip-rule="evenodd" fill="#FEFEFE" d="M460.264,415.022c0-29.218,0.05-58.436-0.078-87.628
			c0-3.165,0.536-4.389,4.108-4.312c19.7,0.485,39.426-0.791,59.1,0.74c37.408,2.909,69.332,28.886,80.176,64.917
			c16.256,53.868-19.521,109.65-75.252,117.509c-9.441,1.327-18.958,0.613-28.425,0.741c-11.918,0.127-23.835-0.078-35.751,0.127
			c-3.24,0.025-3.956-0.894-3.956-4.006C460.314,473.713,460.264,444.368,460.264,415.022z M497.238,415.15
			c0,17.146,0,34.321-0.025,51.47c0,1.887-0.28,3.751,2.654,3.623c7.655-0.333,15.285,0.483,22.939-0.536
			c26.744-3.521,47.182-26.054,47.77-52.644c0.588-27.687-18.705-51.367-45.473-55.935c-8.062-1.378-16.151-0.382-24.216-0.842
			c-3.037-0.178-3.751,0.868-3.726,3.803C497.29,381.108,497.238,398.129,497.238,415.15z"/>
		<path fill-rule="evenodd" clip-rule="evenodd" fill="#FEFEFE" d="M237.519,511.071c-55.297,0.025-95.666-35.904-101.535-83.902
			c-6.43-53.052,32.51-101.153,85.918-105.925c24.777-2.22,47.004,4.542,66.83,19.572c2.68,2.016,3.062,3.598,1.174,6.481
			c-5.359,8.319-10.462,16.842-15.489,25.416c-1.43,2.424-2.22,2.782-4.517,0.689c-17.709-16.025-38.277-20.057-60.35-11.687
			c-22.302,8.498-34.984,25.543-37.434,49.403c-3.165,30.749,20.746,59.507,51.418,62.621c17.964,1.837,33.581-3.14,46.723-15.516
			c1.991-1.888,2.68-1.479,3.929,0.638c5.257,8.906,10.616,17.762,16.127,26.487c1.506,2.348,1.199,3.548-0.918,5.18
			C271.993,503.952,252.396,511.019,237.519,511.071z"/>
		<path fill-rule="evenodd" clip-rule="evenodd" fill="#FEFEFE" d="M359.136,365.058c-0.127,6.431-2.578,12.402-3.598,18.653
			c-1.225,7.4-2.246,14.825-2.884,22.252c-0.254,2.628-1.199,4.031-3.24,5.384c-11.56,7.809-16.74,18.935-14.444,32.509
			c2.271,13.449,10.641,22.228,23.936,25.927c14.954,4.134,30.646-3.496,37.485-18.193c6.329-13.652,1.838-30.953-10.59-39.272
			c-2.935-1.965-3.956-4.032-3.521-7.323c1.659-12.454,3.011-24.983,7.629-36.797c28.198,9.849,46.341,35.342,47.03,65.325
			c0.587,25.339-7.859,46.621-28.224,62.06c-42.18,31.999-103.244,6.66-110.823-45.754c-3.648-25.109,2.296-47.386,20.567-65.555
			C329.663,373.172,343.315,366.666,359.136,365.058z"/>
		<path fill-rule="evenodd" clip-rule="evenodd" fill="#FEFEFE" d="M663.23,438.345c0,21.536-0.076,43.124,0.104,64.662
			c0,3.445-1.047,4.134-4.262,4.082c-9.213-0.179-18.451-0.179-27.635,0c-2.783,0.052-3.6-0.715-3.6-3.546
			c0.102-43.382,0.102-86.762,0-130.142c0-3.189,1.072-3.598,3.879-3.573c9.213,0.153,18.424,0.205,27.635,0
			c3.141-0.101,3.982,0.638,3.982,3.879C663.154,395.245,663.23,416.808,663.23,438.345z"/>
		<path fill-rule="evenodd" clip-rule="evenodd" fill="#0D0D0D" d="M497.238,415.15c0-17.021,0.052-34.042-0.076-51.062
			c-0.025-2.935,0.688-3.981,3.726-3.803c8.064,0.46,16.153-0.536,24.216,0.842c26.768,4.568,46.061,28.248,45.473,55.935
			c-0.588,26.59-21.025,49.123-47.77,52.644c-7.654,1.02-15.284,0.203-22.939,0.536c-2.935,0.128-2.654-1.736-2.654-3.623
			C497.238,449.471,497.238,432.296,497.238,415.15z"/>
	</g>
</g>
</svg>
