<?xml version="1.0" encoding="UTF-8" standalone="no"?>
<svg
   xmlns:dc="http://purl.org/dc/elements/1.1/"
   xmlns:cc="http://creativecommons.org/ns#"
   xmlns:rdf="http://www.w3.org/1999/02/22-rdf-syntax-ns#"
   xmlns:svg="http://www.w3.org/2000/svg"
   xmlns="http://www.w3.org/2000/svg"
   xmlns:sodipodi="http://sodipodi.sourceforge.net/DTD/sodipodi-0.dtd"
   xmlns:inkscape="http://www.inkscape.org/namespaces/inkscape"
   width="142.38177"
   height="133.5825"
   viewBox="0 0 142.38178 133.58251"
   id="svg2"
   version="1.1"
   inkscape:version="1.0.2-2 (e86c870879, 2021-01-15)"
   sodipodi:docname="logoMonoestereo.svg">
  <defs
     id="defs4">
    <pattern
       y="0"
       x="0"
       height="6"
       width="6"
       patternUnits="userSpaceOnUse"
       id="EMFhbasepattern" />
    <clipPath
       id="clipPath4181"
       clipPathUnits="userSpaceOnUse">
      <path
         inkscape:connector-curvature="0"
         id="path4183"
         d="M 0,425.967 H 759.476 V 0 H 0 Z" />
    </clipPath>
    <clipPath
       id="clipPath4429"
       clipPathUnits="userSpaceOnUse">
      <path
         inkscape:connector-curvature="0"
         id="path4431"
         d="M 0,425.967 H 759.476 V 0 H 0 Z" />
    </clipPath>
    <clipPath
       id="clipPath4577"
       clipPathUnits="userSpaceOnUse">
      <path
         inkscape:connector-curvature="0"
         id="path4579"
         d="M 0,425.967 H 759.476 V 0 H 0 Z" />
    </clipPath>
    <clipPath
       id="clipPath4725"
       clipPathUnits="userSpaceOnUse">
      <path
         inkscape:connector-curvature="0"
         id="path4727"
         d="M 0,425.967 H 759.476 V 0 H 0 Z" />
    </clipPath>
    <clipPath
       id="clipPath4793"
       clipPathUnits="userSpaceOnUse">
      <path
         inkscape:connector-curvature="0"
         id="path4795"
         d="M 0,425.967 H 759.476 V 0 H 0 Z" />
    </clipPath>
    <clipPath
       id="clipPath4945"
       clipPathUnits="userSpaceOnUse">
      <path
         inkscape:connector-curvature="0"
         id="path4947"
         d="M 0,425.967 H 759.476 V 0 H 0 Z" />
    </clipPath>
    <clipPath
       id="clipPath5097"
       clipPathUnits="userSpaceOnUse">
      <path
         inkscape:connector-curvature="0"
         id="path5099"
         d="M 0,425.967 H 759.476 V 0 H 0 Z" />
    </clipPath>
  </defs>
  <sodipodi:namedview
     id="base"
     pagecolor="#ffffff"
     bordercolor="#666666"
     borderopacity="1.0"
     inkscape:pageopacity="0.0"
     inkscape:pageshadow="2"
     inkscape:zoom="0.98994949"
     inkscape:cx="487.17186"
     inkscape:cy="-119.52941"
     inkscape:document-units="px"
     inkscape:current-layer="layer1"
     showgrid="false"
     units="px"
     inkscape:window-width="1920"
     inkscape:window-height="1009"
     inkscape:window-x="1912"
     inkscape:window-y="-8"
     inkscape:window-maximized="1"
     inkscape:document-rotation="0"
     fit-margin-top="0"
     fit-margin-left="0"
     fit-margin-right="0"
     fit-margin-bottom="0" />
  <metadata
     id="metadata7">
    <rdf:RDF>
      <cc:Work
         rdf:about="">
        <dc:format>image/svg+xml</dc:format>
        <dc:type
           rdf:resource="http://purl.org/dc/dcmitype/StillImage" />
        <dc:title></dc:title>
      </cc:Work>
    </rdf:RDF>
  </metadata>
  <g
     inkscape:label="Layer 1"
     inkscape:groupmode="layer"
     id="layer1"
     transform="translate(-42.648053,-878.94759)">
    <g
       id="g7220"
       transform="translate(119.5204,357.27038)">
      <g
         id="g7350">
        <g
           id="g4289"
           transform="matrix(1.25,0,0,-1.25,63.596516,610.04721)">
          <path
             d="m 0,0 c -0.969,2.027 -2.387,3.868 -4.075,5.301 -0.207,0.181 -0.429,0.36 -0.663,0.542 0.789,0.841 1.216,1.894 1.216,3.066 0,1.224 -0.454,2.324 -1.311,3.182 -0.656,0.657 -1.456,1.072 -2.342,1.234 0.036,0.161 0.081,0.319 0.114,0.482 l 0.872,4.253 c 0.46,2.241 0.139,4.528 -0.878,6.518 1.061,0.327 1.745,0.73 1.865,0.803 0.965,0.59 1.389,1.755 1.069,2.84 -0.315,1.065 -1.316,1.792 -2.423,1.792 -1.261,-0.004 -2.309,1.351 -3.017,2.647 -0.409,2.187 -0.97,4.335 -1.677,6.419 3.609,1.269 5.022,4.586 5.259,6.525 0.13,1.069 -0.439,2.102 -1.412,2.563 -0.974,0.46 -2.133,0.246 -2.877,-0.533 -0.381,-0.399 -0.756,-0.569 -1.252,-0.569 -1.709,0 -4.123,1.912 -5.113,2.914 -8.697,12.979 -23.167,20.717 -38.777,20.717 -15.624,0 -30.109,-7.754 -38.803,-20.756 -1.006,-1.013 -3.369,-2.875 -5.076,-2.875 -0.496,0 -0.871,0.17 -1.252,0.569 -0.745,0.779 -1.905,0.995 -2.877,0.532 -0.974,-0.46 -1.543,-1.493 -1.412,-2.562 0.237,-1.938 1.648,-5.25 5.248,-6.521 -0.71,-2.095 -1.274,-4.255 -1.683,-6.455 -0.693,-1.26 -1.725,-2.615 -2.986,-2.615 h -10e-4 c -1.145,0.022 -2.14,-0.707 -2.461,-1.792 -0.32,-1.085 0.129,-2.25 1.095,-2.84 0.119,-0.073 0.799,-0.474 1.855,-0.8 -1.019,-1.992 -1.341,-4.28 -0.88,-6.521 l 0.873,-4.253 c 0.41,-2.002 1.057,-3.926 1.931,-5.751 -0.918,-0.271 -1.663,-0.551 -2.332,-0.878 -0.035,-0.017 -0.07,-0.035 -0.105,-0.054 -0.44,-0.241 -0.801,-0.515 -1.092,-0.734 l -0.203,-0.153 c -0.46,-0.334 -0.836,-0.631 -1.16,-0.914 -1.714,-1.455 -3.132,-3.296 -4.099,-5.319 -1.103,-2.296 -1.628,-4.858 -1.519,-7.391 0.097,-2.581 0.833,-5.199 2.124,-7.562 0.599,-1.109 1.362,-2.226 2.204,-3.231 0.843,-1.007 1.752,-1.909 2.78,-2.758 3.832,-3.168 8.728,-5.041 13.783,-5.272 2.416,-0.115 4.766,0.147 6.927,0.759 1.053,0.296 2.092,0.679 3.133,1.162 l 0.233,0.113 c 0.854,0.413 1.916,0.928 2.705,1.705 0.83,0.753 1.576,1.567 2.235,2.436 0.083,-0.185 0.137,-0.335 0.17,-0.449 -0.387,-0.579 -0.519,-1.303 -0.347,-1.995 0.218,-0.873 0.888,-1.561 1.755,-1.802 0.166,-0.046 0.619,-0.155 1.246,-0.155 0.71,0 1.401,0.135 2.05,0.392 1.656,-2.973 4.839,-7.217 10.068,-8.802 0.574,-0.175 1.174,-0.131 1.7,0.096 0.762,-1.173 1.585,-2.228 2.394,-2.874 0.457,-0.364 1.009,-0.546 1.56,-0.546 0.552,0 1.104,0.182 1.56,0.546 0.809,0.645 1.631,1.699 2.392,2.87 0.528,-0.225 1.128,-0.265 1.703,-0.092 5.229,1.585 8.412,5.829 10.069,8.802 0.648,-0.257 1.338,-0.392 2.049,-0.392 0.627,0 1.08,0.109 1.246,0.155 0.867,0.241 1.537,0.929 1.754,1.802 0.174,0.694 0.04,1.419 -0.349,2 0.053,0.196 0.164,0.467 0.341,0.806 0.714,-0.996 1.535,-1.918 2.433,-2.731 0.859,-0.844 1.922,-1.358 2.775,-1.771 l 0.281,-0.137 c 0.993,-0.459 2.031,-0.843 3.078,-1.137 2.17,-0.614 4.534,-0.875 6.931,-0.761 5.059,0.231 9.955,2.104 13.787,5.272 1.029,0.851 1.939,1.753 2.779,2.757 0.843,1.005 1.605,2.122 2.2,3.222 1.297,2.373 2.033,4.991 2.128,7.559 C 1.626,-4.852 1.101,-2.291 0,0"
             style="fill:#ffffff;fill-opacity:1;fill-rule:nonzero;stroke:none"
             id="path4291"
             inkscape:connector-curvature="0" />
        </g>
        <g
           id="g4293"
           transform="matrix(1.25,0,0,-1.25,-32.929234,627.99759)">
          <path
             d="m 0,0 c -1.075,0.612 -2.125,1.262 -3.141,1.959 -1.657,-1.477 -4.231,-1.965 -4.231,-1.965 2.328,1.37 0.084,4.727 -1.842,6.977 -0.7,0.691 -1.375,1.407 -2.027,2.143 -0.032,0.029 -0.053,0.05 -0.053,0.05 0,0 0.008,-10e-4 0.011,-0.002 -1.372,1.552 -2.638,3.199 -3.783,4.933 l -0.631,-0.126 c -0.23,-0.037 -0.44,-0.103 -0.65,-0.168 -0.215,-0.072 -0.418,-0.106 -0.648,-0.207 l -0.679,-0.286 C -17.846,13.242 -18.067,13.1 -18.262,13 c -0.415,-0.202 -0.77,-0.489 -1.14,-0.748 -0.711,-0.561 -1.299,-1.242 -1.764,-1.97 -0.476,-0.727 -0.74,-1.536 -0.932,-2.311 -0.19,-0.783 -0.191,-1.555 -0.154,-2.263 0.039,-0.352 0.091,-0.691 0.149,-1.012 0.086,-0.314 0.152,-0.618 0.243,-0.896 0.104,-0.274 0.201,-0.531 0.291,-0.768 0.11,-0.227 0.212,-0.436 0.304,-0.625 0.169,-0.385 0.389,-0.658 0.499,-0.857 0.122,-0.196 0.188,-0.3 0.188,-0.3 l -0.137,-0.095 c 0,0 -0.075,0.097 -0.216,0.28 -0.131,0.192 -0.367,0.431 -0.584,0.816 -0.114,0.187 -0.248,0.392 -0.38,0.623 -0.113,0.239 -0.236,0.498 -0.367,0.775 -0.119,0.282 -0.215,0.595 -0.333,0.921 -0.089,0.333 -0.174,0.689 -0.246,1.064 -0.103,0.754 -0.169,1.595 -0.033,2.475 0.135,0.873 0.392,1.797 0.87,2.654 0.47,0.855 1.092,1.674 1.86,2.364 0.398,0.323 0.79,0.675 1.241,0.935 0.232,0.138 0.414,0.28 0.691,0.415 l 0.66,0.329 c 0.535,0.234 1.087,0.437 1.644,0.602 -0.016,0.026 -0.034,0.051 -0.05,0.078 -1.517,1.2 -2.882,2.59 -4.055,4.141 -0.009,-0.004 -0.016,-0.006 -0.025,-0.01 -0.857,-0.337 -1.861,-0.809 -2.907,-1.459 -0.532,-0.322 -1.022,-0.722 -1.593,-1.144 -0.13,-0.092 -0.268,-0.172 -0.413,-0.248 -0.146,-0.086 -0.289,-0.184 -0.435,-0.279 -0.284,-0.203 -0.566,-0.421 -0.839,-0.66 -1.106,-0.937 -2.111,-2.172 -2.82,-3.653 -0.709,-1.478 -1.103,-3.21 -1.025,-5.009 0.068,-1.797 0.59,-3.643 1.513,-5.334 0.466,-0.854 1.003,-1.638 1.663,-2.427 0.612,-0.729 1.329,-1.441 2.094,-2.07 3.07,-2.546 7.054,-3.95 10.791,-4.116 1.87,-0.087 3.686,0.113 5.319,0.578 0.818,0.229 1.591,0.519 2.312,0.853 0.755,0.315 1.285,0.781 1.946,1.122 1.275,0.731 2.351,1.636 3.17,2.549 0.518,0.563 0.93,1.131 1.262,1.68"
             style="fill:#ffffff;fill-opacity:1;fill-rule:nonzero;stroke:none"
             id="path4295"
             inkscape:connector-curvature="0" />
        </g>
        <g
           id="g4297"
           transform="matrix(1.25,0,0,-1.25,54.348266,608.21371)">
          <path
             d="M 0,0 C -0.273,0.239 -0.555,0.457 -0.839,0.66 -0.985,0.755 -1.128,0.853 -1.274,0.939 -1.418,1.015 -1.557,1.095 -1.686,1.187 -2.257,1.608 -2.748,2.009 -3.28,2.331 -4.326,2.981 -5.33,3.453 -6.186,3.79 -6.195,3.794 -6.203,3.796 -6.212,3.8 -7.384,2.249 -8.749,0.858 -10.267,-0.341 c -0.016,-0.027 -0.033,-0.052 -0.05,-0.078 0.558,-0.165 1.11,-0.369 1.645,-0.602 l 0.659,-0.329 c 0.277,-0.135 0.459,-0.277 0.692,-0.415 0.45,-0.26 0.843,-0.612 1.24,-0.935 0.769,-0.69 1.39,-1.509 1.86,-2.364 0.479,-0.857 0.735,-1.781 0.87,-2.654 0.137,-0.881 0.071,-1.721 -0.032,-2.475 -0.072,-0.375 -0.158,-0.731 -0.247,-1.064 -0.117,-0.326 -0.214,-0.639 -0.332,-0.922 -0.131,-0.276 -0.254,-0.535 -0.368,-0.774 -0.132,-0.231 -0.266,-0.436 -0.379,-0.623 -0.218,-0.385 -0.454,-0.624 -0.585,-0.816 -0.14,-0.183 -0.215,-0.28 -0.215,-0.28 l -0.137,0.095 c 0,0 0.065,0.104 0.187,0.299 0.111,0.2 0.33,0.473 0.499,0.858 0.092,0.189 0.194,0.397 0.305,0.625 0.089,0.237 0.187,0.494 0.29,0.768 0.091,0.278 0.157,0.582 0.244,0.896 0.057,0.32 0.11,0.659 0.149,1.012 0.037,0.708 0.035,1.48 -0.154,2.263 -0.193,0.775 -0.456,1.584 -0.933,2.311 -0.465,0.728 -1.052,1.409 -1.763,1.97 -0.371,0.259 -0.726,0.546 -1.14,0.748 -0.195,0.1 -0.417,0.242 -0.588,0.308 l -0.68,0.286 c -0.229,0.101 -0.432,0.135 -0.647,0.207 -0.211,0.065 -0.42,0.131 -0.651,0.168 l -0.63,0.126 c -1.146,-1.735 -2.411,-3.382 -3.784,-4.933 0.005,0 0.014,0.001 0.014,0.001 0,0 -0.026,-0.024 -0.069,-0.065 -0.643,-0.725 -1.308,-1.431 -1.997,-2.112 -1.93,-2.249 -4.189,-5.619 -1.855,-6.992 0,0 -2.576,0.488 -4.233,1.966 -1.017,-0.698 -2.067,-1.348 -3.143,-1.96 0.332,-0.549 0.744,-1.117 1.262,-1.68 0.819,-0.913 1.896,-1.818 3.17,-2.549 0.661,-0.341 1.191,-0.807 1.947,-1.123 0.72,-0.333 1.494,-0.623 2.311,-0.852 1.634,-0.465 3.449,-0.665 5.32,-0.578 3.737,0.166 7.721,1.57 10.791,4.115 0.764,0.63 1.482,1.342 2.093,2.071 0.661,0.789 1.198,1.573 1.663,2.427 0.923,1.69 1.445,3.537 1.513,5.334 C 3.923,-6.863 3.529,-5.131 2.82,-3.653 2.111,-2.172 1.106,-0.937 0,0"
             style="fill:#ffffff;fill-opacity:1;fill-rule:nonzero;stroke:none"
             id="path4299"
             inkscape:connector-curvature="0" />
        </g>
        <g
           id="g4301"
           transform="matrix(1.25,0,0,-1.25,-61.189109,586.23421)">
          <path
             d="M 0,0 C -0.305,1.485 0.07,3.011 1.028,4.186 1.341,4.57 1.706,4.893 2.105,5.164 2.927,5.723 3.901,6.035 4.923,6.035 h 1.224 4.436 13.836 12.315 c 1.517,0 2.936,-0.674 3.894,-1.849 C 41.587,3.011 41.962,1.485 41.656,0 L 40.784,-4.252 C 40.58,-5.246 40.3,-6.208 39.958,-7.138 c -2.051,-0.379 -3.747,-1.777 -4.546,-3.647 -0.233,-0.545 -0.393,-1.127 -0.46,-1.738 -3.157,-1.611 -5.815,-3.983 -7.764,-6.852 -0.011,-0.015 -0.022,-0.031 -0.033,-0.046 -1.233,-0.399 -2.514,-0.679 -3.828,-0.833 -0.769,-0.091 -1.548,-0.141 -2.336,-0.141 h -0.325 c -0.647,0 -1.287,0.033 -1.92,0.094 -8.726,0.839 -16.083,7.328 -17.873,16.049 z M 88.813,0 87.94,-4.252 c -0.691,-3.366 -2.214,-6.397 -4.322,-8.902 -2.52,-2.995 -5.879,-5.233 -9.668,-6.379 -1.106,-0.335 -2.249,-0.576 -3.418,-0.716 -0.785,-0.094 -1.58,-0.146 -2.385,-0.146 h -0.325 c -0.627,0 -1.249,0.031 -1.865,0.088 -1.479,0.138 -2.918,0.439 -4.299,0.886 -1.952,2.889 -4.623,5.278 -7.797,6.898 -0.298,2.71 -2.358,4.895 -5.006,5.385 -0.342,0.93 -0.622,1.892 -0.826,2.886 L 47.157,0 c -0.306,1.485 0.069,3.011 1.028,4.186 0.322,0.395 0.699,0.728 1.111,1.003 0.815,0.544 1.776,0.846 2.783,0.846 h 1.276 3.887 13.836 12.812 c 1.517,0 2.936,-0.674 3.895,-1.849 C 88.743,3.011 89.118,1.485 88.813,0 M 36.884,-13.744 c -0.023,0.178 -0.038,0.359 -0.038,0.544 0,2.339 1.896,4.236 4.236,4.236 1.349,0 2.549,-0.633 3.325,-1.616 0.775,0.983 1.975,1.616 3.324,1.616 2.34,0 4.236,-1.897 4.236,-4.236 0,-0.185 -0.015,-0.366 -0.038,-0.544 5.574,-2.426 9.751,-7.46 10.981,-13.565 0.39,-1.936 -1.087,-3.748 -3.062,-3.748 h -4.729 c -0.084,0 -0.155,0.065 -0.163,0.149 l -0.432,4.721 c -0.009,0.098 -0.086,0.148 -0.163,0.148 -0.076,0 -0.151,-0.048 -0.163,-0.144 l -0.551,-4.729 c -0.01,-0.083 -0.08,-0.145 -0.163,-0.145 h -8.07 c -0.085,0 -0.156,0.065 -0.163,0.149 l -0.682,7.5 c -0.009,0.099 -0.086,0.149 -0.162,0.149 -0.077,0 -0.154,-0.05 -0.163,-0.149 l -0.682,-7.5 c -0.007,-0.084 -0.078,-0.149 -0.163,-0.149 h -8.07 c -0.083,0 -0.153,0.062 -0.163,0.145 l -0.551,4.729 c -0.012,0.096 -0.087,0.144 -0.163,0.144 -0.077,0 -0.154,-0.05 -0.163,-0.148 l -0.432,-4.721 c -0.008,-0.084 -0.079,-0.149 -0.163,-0.149 h -4.729 c -1.975,0 -3.452,1.812 -3.062,3.748 1.23,6.105 5.407,11.139 10.981,13.565 m 7.523,-27.18 c -6.984,0 -12.681,0.415 -12.985,7.13 -0.009,0.204 0.189,0.378 0.431,0.378 H 56.96 c 0.242,0 0.44,-0.174 0.431,-0.378 -0.304,-6.715 -6.001,-7.13 -12.984,-7.13 M 42.509,5.721 C 41.088,7.463 38.983,8.463 36.734,8.463 H 10.121 c 3.235,3.906 9.186,5.257 15.996,5.257 9.149,0 16.748,-1.357 18.29,-10.063 1.541,8.706 9.14,10.063 18.289,10.063 6.81,0 12.761,-1.351 15.996,-5.257 H 52.079 c -2.249,0 -4.354,-1 -5.775,-2.743 -1.422,-1.743 -1.977,-4.005 -1.525,-6.208 l 0.873,-4.253 c 0.173,-0.844 0.397,-1.667 0.661,-2.471 -0.677,-0.16 -1.324,-0.419 -1.906,-0.794 -0.583,0.375 -1.23,0.634 -1.907,0.794 0.264,0.804 0.488,1.627 0.661,2.471 l 0.873,4.253 c 0.452,2.203 -0.103,4.466 -1.525,6.209 M 18.176,-37.64 c -0.661,-0.34 -1.191,-0.807 -1.946,-1.122 -0.721,-0.334 -1.494,-0.623 -2.312,-0.853 -1.633,-0.465 -3.449,-0.665 -5.319,-0.577 -3.738,0.166 -7.722,1.569 -10.791,4.115 -0.765,0.63 -1.482,1.342 -2.094,2.07 -0.661,0.789 -1.197,1.574 -1.663,2.427 -0.923,1.691 -1.445,3.538 -1.513,5.335 -0.078,1.798 0.316,3.531 1.025,5.008 0.709,1.481 1.714,2.716 2.82,3.653 0.273,0.239 0.555,0.458 0.839,0.661 0.146,0.095 0.289,0.193 0.435,0.279 0.145,0.075 0.283,0.156 0.413,0.247 0.57,0.422 1.061,0.823 1.593,1.144 1.046,0.65 2.05,1.122 2.906,1.46 0.009,0.003 0.017,0.006 0.026,0.009 1.173,-1.551 2.537,-2.941 4.055,-4.141 0.016,-0.026 0.034,-0.051 0.05,-0.078 -0.557,-0.165 -1.11,-0.368 -1.645,-0.602 l -0.659,-0.329 c -0.277,-0.134 -0.459,-0.277 -0.691,-0.415 -0.451,-0.26 -0.844,-0.612 -1.241,-0.935 -0.769,-0.69 -1.39,-1.508 -1.86,-2.364 -0.478,-0.856 -0.735,-1.781 -0.87,-2.654 -0.136,-0.88 -0.071,-1.721 0.033,-2.475 0.071,-0.375 0.157,-0.731 0.246,-1.064 0.118,-0.325 0.214,-0.639 0.332,-0.921 0.132,-0.276 0.254,-0.535 0.368,-0.774 0.132,-0.231 0.266,-0.436 0.38,-0.624 0.217,-0.385 0.453,-0.624 0.584,-0.815 0.141,-0.183 0.215,-0.281 0.215,-0.281 l 0.137,0.095 c 0,0 -0.065,0.105 -0.187,0.3 -0.111,0.199 -0.33,0.472 -0.499,0.857 -0.092,0.189 -0.194,0.398 -0.304,0.625 -0.09,0.238 -0.187,0.494 -0.291,0.768 -0.091,0.278 -0.157,0.583 -0.243,0.896 -0.058,0.321 -0.11,0.66 -0.149,1.012 -0.037,0.709 -0.036,1.481 0.154,2.263 0.192,0.775 0.456,1.584 0.932,2.311 0.465,0.728 1.053,1.409 1.764,1.97 0.37,0.26 0.725,0.547 1.14,0.749 0.195,0.099 0.416,0.242 0.588,0.307 l 0.679,0.286 c 0.23,0.102 0.432,0.135 0.648,0.208 0.21,0.065 0.419,0.13 0.65,0.167 l 0.631,0.126 c 1.145,-1.734 2.41,-3.381 3.782,-4.932 -0.002,0 -0.01,0.001 -0.01,0.001 0,0 0.021,-0.02 0.052,-0.05 0.653,-0.736 1.327,-1.452 2.028,-2.143 1.926,-2.249 4.17,-5.607 1.842,-6.976 0,0 2.573,0.487 4.231,1.964 1.016,-0.697 2.066,-1.347 3.141,-1.959 -0.332,-0.549 -0.744,-1.117 -1.262,-1.68 -0.819,-0.913 -1.895,-1.818 -3.17,-2.549 m 78.099,11.395 c -0.068,-1.797 -0.59,-3.644 -1.513,-5.335 -0.466,-0.853 -1.002,-1.638 -1.663,-2.427 -0.612,-0.728 -1.329,-1.44 -2.093,-2.07 -3.07,-2.546 -7.054,-3.949 -10.791,-4.115 -1.871,-0.088 -3.687,0.112 -5.32,0.577 -0.818,0.23 -1.591,0.519 -2.312,0.853 -0.755,0.315 -1.285,0.782 -1.946,1.122 -1.274,0.731 -2.351,1.636 -3.17,2.549 -0.518,0.563 -0.93,1.131 -1.262,1.68 1.076,0.612 2.126,1.263 3.143,1.96 1.657,-1.477 4.233,-1.965 4.233,-1.965 -2.334,1.373 -0.075,4.742 1.855,6.992 0.689,0.681 1.354,1.387 1.997,2.112 0.043,0.04 0.069,0.065 0.069,0.065 0,0 -0.009,-0.001 -0.014,-0.002 1.373,1.552 2.638,3.199 3.784,4.933 l 0.63,-0.126 c 0.231,-0.037 0.44,-0.102 0.65,-0.167 0.216,-0.073 0.419,-0.106 0.648,-0.208 l 0.679,-0.286 c 0.172,-0.065 0.394,-0.208 0.588,-0.307 0.415,-0.202 0.77,-0.489 1.14,-0.749 0.711,-0.561 1.299,-1.242 1.764,-1.97 0.477,-0.727 0.74,-1.536 0.933,-2.311 0.189,-0.782 0.19,-1.554 0.154,-2.263 -0.039,-0.352 -0.092,-0.691 -0.149,-1.012 -0.087,-0.313 -0.153,-0.618 -0.244,-0.896 -0.104,-0.274 -0.201,-0.53 -0.291,-0.768 -0.11,-0.227 -0.212,-0.436 -0.304,-0.625 -0.169,-0.385 -0.388,-0.658 -0.499,-0.857 -0.122,-0.195 -0.187,-0.3 -0.187,-0.3 l 0.137,-0.095 c 0,0 0.074,0.098 0.215,0.281 0.131,0.191 0.367,0.43 0.585,0.815 0.113,0.188 0.247,0.393 0.379,0.624 0.114,0.239 0.237,0.498 0.368,0.774 0.118,0.282 0.215,0.596 0.332,0.921 0.089,0.333 0.175,0.689 0.247,1.064 0.103,0.754 0.168,1.595 0.032,2.475 -0.135,0.873 -0.391,1.798 -0.87,2.654 -0.47,0.856 -1.091,1.674 -1.86,2.364 -0.397,0.323 -0.79,0.675 -1.24,0.935 -0.233,0.138 -0.415,0.281 -0.692,0.415 l -0.659,0.329 c -0.535,0.234 -1.088,0.437 -1.645,0.602 0.016,0.026 0.034,0.052 0.05,0.078 1.518,1.2 2.882,2.59 4.055,4.141 0.009,-0.003 0.017,-0.006 0.026,-0.009 0.856,-0.338 1.86,-0.81 2.906,-1.46 0.532,-0.321 1.023,-0.722 1.594,-1.144 0.129,-0.091 0.268,-0.172 0.412,-0.247 0.146,-0.086 0.289,-0.184 0.435,-0.279 0.284,-0.203 0.566,-0.422 0.839,-0.661 1.106,-0.937 2.111,-2.172 2.82,-3.653 0.709,-1.477 1.103,-3.21 1.025,-5.008 m 1.298,6.117 c -0.88,1.84 -2.125,3.359 -3.464,4.495 -0.331,0.29 -0.673,0.552 -1.011,0.799 -0.334,0.244 -0.659,0.513 -1.028,0.715 -0.682,0.334 -1.423,0.578 -2.09,0.77 -1.146,0.33 -2.172,0.48 -3.056,0.546 1.614,2.389 2.788,5.112 3.394,8.062 l 0.873,4.253 c 0.452,2.203 -0.104,4.466 -1.525,6.209 -0.345,0.422 -0.731,0.798 -1.148,1.13 -0.012,0.3 -0.029,0.6 -0.047,0.898 2.701,-0.6 4.851,0.714 4.851,0.714 -2.447,-0.061 -4.21,1.885 -5.457,4.32 -0.568,3.189 -1.47,6.262 -2.684,9.175 -0.005,0.036 -0.008,0.059 -0.008,0.059 5.578,-0.12 6.183,4.839 6.183,4.839 -3.897,-4.075 -10.068,2.437 -10.068,2.437 0,0 -10e-4,-0.017 -10e-4,-0.027 -7.898,11.974 -21.463,19.88 -36.88,19.88 -15.411,0 -28.97,-7.899 -36.87,-19.863 0,10e-4 0,0.01 0,0.01 0,0 -6.172,-6.512 -10.069,-2.437 0,0 0.605,-4.959 6.183,-4.839 0,0 -10e-4,-0.011 -0.002,-0.016 C 2.422,19.065 1.512,15.965 0.941,12.748 -0.305,10.329 -2.063,8.402 -4.498,8.463 c 0,0 2.144,-1.31 4.84,-0.716 C 0.324,7.449 0.307,7.15 0.295,6.851 -0.122,6.519 -0.508,6.143 -0.853,5.72 -2.274,3.977 -2.83,1.715 -2.378,-0.488 l 0.873,-4.253 c 0.606,-2.95 1.781,-5.673 3.395,-8.062 -0.884,-0.066 -1.911,-0.216 -3.056,-0.546 -0.668,-0.192 -1.409,-0.436 -2.091,-0.77 -0.369,-0.202 -0.694,-0.471 -1.028,-0.715 -0.338,-0.247 -0.68,-0.509 -1.011,-0.799 -1.339,-1.136 -2.584,-2.655 -3.464,-4.495 -0.882,-1.836 -1.37,-3.999 -1.274,-6.215 0.083,-2.216 0.728,-4.46 1.824,-6.467 0.54,-0.998 1.215,-1.971 1.923,-2.815 0.758,-0.906 1.57,-1.704 2.456,-2.437 3.544,-2.93 8.04,-4.506 12.308,-4.701 2.136,-0.1 4.227,0.128 6.133,0.669 0.954,0.268 1.861,0.607 2.711,1.001 0.821,0.401 1.727,0.807 2.355,1.423 1.304,1.185 2.269,2.45 2.96,3.662 0.32,0.574 0.571,1.134 0.769,1.669 1.391,-1.667 3.948,-5.143 2.435,-6.585 0,0 2.051,-0.571 3.552,1.752 0,0 2.788,-8.186 9.867,-10.331 0,0 -1.931,3.432 0,4.933 0,0 2.78,-6.435 4.929,-8.151 2.149,1.716 4.929,8.151 4.929,8.151 1.931,-1.501 0,-4.933 0,-4.933 7.079,2.145 9.867,10.331 9.867,10.331 1.502,-2.323 3.552,-1.752 3.552,-1.752 -1.636,1.559 1.485,5.495 2.747,6.952 0.213,-0.643 0.499,-1.327 0.894,-2.036 0.691,-1.212 1.656,-2.477 2.96,-3.662 0.628,-0.616 1.534,-1.022 2.356,-1.423 0.849,-0.394 1.756,-0.733 2.71,-1.001 1.906,-0.541 3.997,-0.769 6.133,-0.669 4.268,0.195 8.764,1.771 12.308,4.701 0.886,0.733 1.699,1.531 2.456,2.437 0.708,0.844 1.383,1.817 1.923,2.815 1.096,2.007 1.742,4.251 1.824,6.467 0.096,2.216 -0.392,4.379 -1.274,6.215"
             style="fill:#333333;fill-opacity:1;fill-rule:nonzero;stroke:none"
             id="path4303"
             inkscape:connector-curvature="0" />
        </g>
        <g
           id="g4305"
           transform="matrix(1.25,0,0,-1.25,-7.237234,592.16009)">
          <path
             d="M 0,0 C -0.173,-0.844 -0.398,-1.667 -0.661,-2.472 0.016,-2.632 0.662,-2.89 1.245,-3.265 1.828,-2.89 2.474,-2.632 3.151,-2.472 2.888,-1.667 2.663,-0.844 2.49,0 L 1.617,4.252 c -0.452,2.203 0.104,4.466 1.525,6.209 1.422,1.743 3.527,2.743 5.776,2.743 H 35.53 c -3.235,3.906 -9.186,5.257 -15.995,5.257 -9.149,0 -16.748,-1.357 -18.29,-10.063 -1.542,8.706 -9.141,10.063 -18.289,10.063 -6.81,0 -12.761,-1.351 -15.996,-5.257 h 26.612 c 2.249,0 4.355,-1 5.776,-2.743 C 0.769,8.718 1.325,6.455 0.873,4.252 Z"
             style="fill:#ffffff;fill-opacity:1;fill-rule:nonzero;stroke:none"
             id="path4307"
             inkscape:connector-curvature="0" />
        </g>
        <g
           id="g4309"
           transform="matrix(1.25,0,0,-1.25,-37.757109,611.61009)">
          <path
             d="m 0,0 -16.641,25.465 c -0.398,-0.271 -0.764,-0.595 -1.076,-0.978 -0.959,-1.175 -1.334,-2.701 -1.029,-4.186 l 0.873,-4.253 C -16.083,7.327 -8.726,0.839 0,0"
             style="fill:#e91f5e;fill-opacity:1;fill-rule:nonzero;stroke:none"
             id="path4311"
             inkscape:connector-curvature="0" />
        </g>
        <g
           id="g4313"
           transform="matrix(1.25,0,0,-1.25,-11.241984,595.15671)">
          <path
             d="m 0,0 c 0.342,0.93 0.622,1.892 0.826,2.886 l 0.873,4.252 c 0.305,1.485 -0.07,3.011 -1.028,4.186 -0.959,1.175 -2.378,1.849 -3.895,1.849 H -15.538 L -4.546,-3.647 C -3.746,-1.777 -2.051,-0.379 0,0"
             style="fill:#e91f5e;fill-opacity:1;fill-rule:nonzero;stroke:none"
             id="path4315"
             inkscape:connector-curvature="0" />
        </g>
        <g
           id="g4317"
           transform="matrix(1.25,0,0,-1.25,-32.029859,611.55221)">
          <path
             d="M 0,0 C 1.314,0.154 2.594,0.434 3.828,0.833 3.838,0.849 3.85,0.864 3.86,0.88 l -16.605,25.41 h -4.435 z"
             style="fill:#e91f5e;fill-opacity:1;fill-rule:nonzero;stroke:none"
             id="path4319"
             inkscape:connector-curvature="0" />
        </g>
        <g
           id="g4321"
           transform="matrix(1.25,0,0,-1.25,48.542141,581.00134)">
          <path
             d="m 0,0 c -0.959,1.175 -2.378,1.849 -3.895,1.849 h -12.812 l 12.54,-19.189 c 2.108,2.505 3.631,5.535 4.322,8.901 l 0.873,4.253 C 1.333,-2.701 0.958,-1.175 0,0"
             style="fill:#0071bb;fill-opacity:1;fill-rule:nonzero;stroke:none"
             id="path4323"
             inkscape:connector-curvature="0" />
        </g>
        <g
           id="g4325"
           transform="matrix(1.25,0,0,-1.25,10.362766,578.68997)">
          <path
             d="M 0,0 H -3.887 L 13.29,-26.285 c 1.169,0.14 2.312,0.382 3.419,0.716 z"
             style="fill:#0071bb;fill-opacity:1;fill-rule:nonzero;stroke:none"
             id="path4327"
             inkscape:connector-curvature="0" />
        </g>
        <g
           id="g4329"
           transform="matrix(1.25,0,0,-1.25,0.431141,579.74846)">
          <path
             d="M 0,0 C -0.412,-0.275 -0.789,-0.608 -1.111,-1.002 -2.07,-2.178 -2.445,-3.703 -2.14,-5.189 l 0.873,-4.252 c 0.204,-0.993 0.484,-1.955 0.826,-2.886 2.648,-0.489 4.708,-2.675 5.006,-5.384 3.174,-1.621 5.845,-4.009 7.797,-6.899 1.381,-0.446 2.82,-0.747 4.299,-0.885 z"
             style="fill:#0071bb;fill-opacity:1;fill-rule:nonzero;stroke:none"
             id="path4331"
             inkscape:connector-curvature="0" />
        </g>
        <g
           id="g4333"
           transform="matrix(1.25,0,0,-1.25,-27.204234,610.45246)">
          <path
             d="m 0,0 c 1.949,2.869 4.607,5.241 7.764,6.852 0.067,0.611 0.227,1.193 0.46,1.737 L -2.768,25.41 h -13.837 z"
             style="fill:#ffffff;fill-opacity:1;fill-rule:nonzero;stroke:none"
             id="path4335"
             inkscape:connector-curvature="0" />
        </g>
        <g
           id="g4337"
           transform="matrix(1.25,0,0,-1.25,-37.757109,611.61009)">
          <path
             d="m 0,0 c 0.634,-0.061 1.274,-0.095 1.92,-0.095 h 0.325 c 0.789,0 1.568,0.051 2.337,0.141 l -17.18,26.29 h -1.225 c -1.022,0 -1.996,-0.312 -2.818,-0.871 z"
             style="fill:#ffffff;fill-opacity:1;fill-rule:nonzero;stroke:none"
             id="path4339"
             inkscape:connector-curvature="0" />
        </g>
        <g
           id="g4341"
           transform="matrix(1.25,0,0,-1.25,5.504516,578.68997)">
          <path
             d="m 0,0 h -1.276 c -1.007,0 -1.968,-0.303 -2.783,-0.847 l 16.661,-25.495 c 0.616,-0.058 1.238,-0.089 1.865,-0.089 h 0.325 c 0.805,0 1.6,0.052 2.385,0.146 z"
             style="fill:#ffffff;fill-opacity:1;fill-rule:nonzero;stroke:none"
             id="path4343"
             inkscape:connector-curvature="0" />
        </g>
        <g
           id="g4345"
           transform="matrix(1.25,0,0,-1.25,27.658766,578.68997)">
          <path
             d="M 0,0 H -13.837 L 2.872,-25.569 c 3.789,1.147 7.148,3.385 9.668,6.38 z"
             style="fill:#ffffff;fill-opacity:1;fill-rule:nonzero;stroke:none"
             id="path4347"
             inkscape:connector-curvature="0" />
        </g>
        <g
           id="g4349"
           transform="matrix(1.25,0,0,-1.25,-9.870609,599.65496)">
          <path
             d="m 0,0 c 1.507,0 2.729,-1.222 2.729,-2.729 0,-0.616 -0.212,-1.178 -0.556,-1.635 0.023,0.145 0.044,0.29 0.044,0.441 0,1.507 -1.222,2.729 -2.729,2.729 -0.891,0 -1.674,-0.433 -2.172,-1.094 C -2.472,-0.992 -1.356,0 0,0 m 6.648,0 c 1.356,0 2.473,-0.992 2.685,-2.288 -0.498,0.661 -1.282,1.094 -2.173,1.094 -1.507,0 -2.729,-1.222 -2.729,-2.729 0,-0.151 0.021,-0.296 0.044,-0.441 C 4.131,-3.907 3.919,-3.345 3.919,-2.729 3.919,-1.222 5.141,0 6.648,0 m -21.799,-16.572 c -0.391,-1.936 1.086,-3.748 3.062,-3.748 h 4.728 c 0.085,0 0.155,0.064 0.163,0.148 l 0.432,4.721 c 0.009,0.099 0.086,0.149 0.163,0.149 0.076,0 0.152,-0.048 0.163,-0.145 l 0.552,-4.729 c 0.009,-0.082 0.079,-0.144 0.162,-0.144 h 8.071 c 0.084,0 0.155,0.064 0.163,0.149 l 0.681,7.5 c 0.009,0.099 0.086,0.148 0.163,0.148 0.077,0 0.154,-0.049 0.163,-0.148 l 0.681,-7.5 c 0.008,-0.085 0.078,-0.149 0.163,-0.149 h 8.07 c 0.083,0 0.153,0.062 0.163,0.144 l 0.552,4.729 c 0.011,0.097 0.087,0.145 0.162,0.145 0.077,0 0.154,-0.05 0.163,-0.149 l 0.433,-4.721 c 0.007,-0.084 0.078,-0.148 0.163,-0.148 h 4.728 c 1.975,0 3.452,1.812 3.062,3.748 -1.23,6.104 -5.407,11.139 -10.981,13.564 0.023,0.179 0.039,0.36 0.039,0.544 0,2.34 -1.897,4.236 -4.237,4.236 -1.349,0 -2.548,-0.633 -3.324,-1.616 -0.776,0.983 -1.975,1.616 -3.325,1.616 -2.339,0 -4.236,-1.896 -4.236,-4.236 0,-0.184 0.016,-0.365 0.039,-0.544 -5.575,-2.425 -9.752,-7.46 -10.981,-13.564"
             style="fill:#ffffff;fill-opacity:1;fill-rule:nonzero;stroke:none"
             id="path4351"
             inkscape:connector-curvature="0" />
        </g>
        <g
           id="g4353"
           transform="matrix(1.25,0,0,-1.25,-10.510234,601.14721)">
          <path
             d="m 0,0 c 1.507,0 2.729,-1.222 2.729,-2.729 0,-0.151 -0.021,-0.296 -0.045,-0.441 0.345,0.457 0.557,1.019 0.557,1.635 0,1.507 -1.222,2.729 -2.729,2.729 -1.356,0 -2.473,-0.992 -2.685,-2.288 C -1.675,-0.433 -0.891,0 0,0"
             style="fill:#333333;fill-opacity:1;fill-rule:nonzero;stroke:none"
             id="path4355"
             inkscape:connector-curvature="0" />
        </g>
        <g
           id="g4357"
           transform="matrix(1.25,0,0,-1.25,-4.331984,604.55834)">
          <path
             d="M 0,0 C 0,1.507 1.222,2.729 2.729,2.729 3.62,2.729 4.404,2.296 4.902,1.635 4.69,2.931 3.573,3.923 2.217,3.923 0.71,3.923 -0.512,2.701 -0.512,1.194 -0.512,0.578 -0.3,0.016 0.044,-0.441 0.021,-0.297 0,-0.151 0,0"
             style="fill:#333333;fill-opacity:1;fill-rule:nonzero;stroke:none"
             id="path4359"
             inkscape:connector-curvature="0" />
        </g>
        <g
           id="g4361"
           transform="matrix(1.25,0,0,-1.25,10.010766,628.00459)">
          <path
             d="m 0,0 h -25.107 c -0.242,0 -0.44,-0.173 -0.431,-0.378 0.304,-6.715 6.001,-7.129 12.985,-7.129 6.983,0 12.68,0.414 12.984,7.129 C 0.44,-0.173 0.242,0 0,0"
             style="fill:#ffffff;fill-opacity:1;fill-rule:nonzero;stroke:none"
             id="path4363"
             inkscape:connector-curvature="0" />
        </g>
        <g
           id="g4365"
           transform="matrix(1.25,0,0,-1.25,54.938891,600.34484)">
          <path
             d="m 0,0 c -0.287,-0.306 -0.648,-0.455 -1.091,-0.455 -0.442,0 -0.804,0.149 -1.097,0.449 -0.294,0.305 -0.437,0.686 -0.437,1.141 0,0.455 0.143,0.835 0.437,1.134 0.293,0.306 0.655,0.455 1.097,0.455 C -0.648,2.724 -0.287,2.575 0,2.276 0.293,1.983 0.437,1.602 0.437,1.147 0.437,0.692 0.293,0.305 0,0 m -1.091,3.142 c -0.555,0 -1.029,-0.193 -1.415,-0.58 -0.387,-0.386 -0.58,-0.86 -0.58,-1.415 0,-0.555 0.193,-1.029 0.58,-1.415 0.386,-0.387 0.86,-0.58 1.415,-0.58 0.555,0 1.029,0.193 1.415,0.58 0.387,0.386 0.58,0.86 0.58,1.415 0,0.555 -0.193,1.029 -0.58,1.415 -0.386,0.387 -0.86,0.58 -1.415,0.58"
             style="fill:#333333;fill-opacity:1;fill-rule:nonzero;stroke:none"
             id="path4367"
             inkscape:connector-curvature="0" />
        </g>
        <g
           id="g4369"
           transform="matrix(1.25,0,0,-1.25,53.481766,598.94984)">
          <path
             d="m 0,0 c -0.006,0 -0.081,0.006 -0.218,0.019 v 0.71 C -0.156,0.742 -0.081,0.748 0,0.748 0.268,0.748 0.405,0.623 0.405,0.368 0.405,0.124 0.268,0 0,0 m 0.892,0.38 c 0,0.474 -0.299,0.711 -0.892,0.711 -0.256,0 -0.499,-0.019 -0.73,-0.056 v -2.083 h 0.512 v 0.755 c 0.043,-0.013 0.106,-0.025 0.199,-0.031 l 0.468,-0.724 h 0.548 l -0.542,0.767 c 0.293,0.094 0.437,0.318 0.437,0.661"
             style="fill:#333333;fill-opacity:1;fill-rule:nonzero;stroke:none"
             id="path4371"
             inkscape:connector-curvature="0" />
        </g>
      </g>
    </g>
  </g>
</svg>
