<?xml version="1.0" encoding="UTF-8" standalone="no"?>
<svg
   xmlns:dc="http://purl.org/dc/elements/1.1/"
   xmlns:cc="http://creativecommons.org/ns#"
   xmlns:rdf="http://www.w3.org/1999/02/22-rdf-syntax-ns#"
   xmlns:svg="http://www.w3.org/2000/svg"
   xmlns="http://www.w3.org/2000/svg"
   xmlns:sodipodi="http://sodipodi.sourceforge.net/DTD/sodipodi-0.dtd"
   xmlns:inkscape="http://www.inkscape.org/namespaces/inkscape"
   version="1.1"
   id="svg2"
   width="893.10986"
   height="893.10986"
   viewBox="0 0 893.10985 893.10986"
   sodipodi:docname="walleat_pwa.svg"
   inkscape:version="1.0.2 (e86c870879, 2021-01-15)"
   inkscape:export-filename="D:\Documents\walleat\app\public\img\walleat_thumbnail.png"
   inkscape:export-xdpi="91.581116"
   inkscape:export-ydpi="91.581116">
  <metadata
     id="metadata8">
    <rdf:RDF>
      <cc:Work
         rdf:about="">
        <dc:format>image/svg+xml</dc:format>
        <dc:type
           rdf:resource="http://purl.org/dc/dcmitype/StillImage" />
        <dc:title />
      </cc:Work>
    </rdf:RDF>
  </metadata>
  <defs
     id="defs6" />
  <sodipodi:namedview
     pagecolor="#ffffff"
     bordercolor="#666666"
     borderopacity="1"
     objecttolerance="10"
     gridtolerance="10"
     guidetolerance="10"
     inkscape:pageopacity="0"
     inkscape:pageshadow="2"
     inkscape:window-width="1920"
     inkscape:window-height="1016"
     id="namedview4"
     showgrid="false"
     fit-margin-top="20"
     fit-margin-left="20"
     fit-margin-right="20"
     fit-margin-bottom="20"
     lock-margins="true"
     inkscape:zoom="0.38370564"
     inkscape:cx="-234.98124"
     inkscape:cy="473.20983"
     inkscape:window-x="0"
     inkscape:window-y="27"
     inkscape:window-maximized="1"
     inkscape:current-layer="g10"
     inkscape:document-rotation="0"
     inkscape:snap-page="true" />
  <g
     inkscape:groupmode="layer"
     inkscape:label="Image"
     id="g10"
     transform="translate(-1309.538,-123.73747)">
    <rect
       style="fill:#ffffff;stroke-width:5.3;stroke-linejoin:round"
       id="rect845"
       width="893.10986"
       height="893.10986"
       x="1309.538"
       y="123.73747" />
    <path
       style="fill:#000000;stroke-width:0.641675"
       d="m 1574.0668,746.36028 c -7.5709,-3.58608 -19.5855,-14.57434 -21.7347,-16.16573 -6.5534,-4.8136 -19.219,-19.96997 -24.3947,-29.19193 -1.0937,-1.9489 -2.7551,-4.25893 -3.6919,-5.13341 -0.9367,-0.87447 -2.2716,-2.69869 -2.9664,-4.05372 -0.6947,-1.3551 -2.2271,-3.80951 -3.405,-5.45426 -1.1781,-1.64476 -2.8529,-4.28985 -3.7221,-5.87801 -0.869,-1.58815 -3.0625,-5.57355 -4.8742,-8.85647 -1.8117,-3.28291 -3.2941,-6.25456 -3.2941,-6.60366 0,-0.3491 -1.155,-2.99114 -2.5667,-5.87122 -1.4116,-2.88006 -2.5667,-6.00807 -2.5667,-6.95111 0,-0.94305 -0.7053,-2.97821 -1.5673,-4.52258 -0.8618,-1.54436 -1.8807,-4.2517 -2.2641,-6.01632 -0.3831,-1.76459 -1.6706,-5.80716 -2.8609,-8.98345 -2.024,-5.40115 -7.6881,-22.47478 -9.3664,-28.23372 -0.4115,-1.41168 -1.0047,-7.61988 -1.3184,-13.79602 -0.3137,-6.17612 -0.7549,-13.74613 -0.9803,-16.82224 -0.5025,-6.85842 0.8134,-22.11154 2.0614,-23.89335 0.4927,-0.70337 0.8958,-2.61948 0.8958,-4.25803 0,-3.59818 2.3019,-20.96108 3.2417,-24.45095 0.3696,-1.37261 0.9509,-4.94988 1.2916,-7.9495 0.341,-2.9996 1.1723,-7.10252 1.8476,-9.11757 0.6752,-2.01505 1.4289,-5.24606 1.6748,-7.18001 0.6446,-5.0692 1.8172,-7.97609 5.7003,-14.1298 3.6503,-5.78458 14.3863,-26.49925 16.3642,-31.57385 0.6473,-1.66062 1.7976,-3.82628 2.5562,-4.81257 1.358,-1.7653 5.6167,-8.29543 9.5661,-14.66789 1.1075,-1.78723 3.905,-5.1079 6.2165,-7.37927 2.3114,-2.27137 4.6078,-4.85165 5.103,-5.73395 0.4952,-0.88231 4.1669,-4.95892 8.1593,-9.05913 5.6963,-5.85024 8.0876,-7.8359 11.1089,-9.22468 2.1174,-0.97333 8.7764,-5.04901 14.7976,-9.05704 10.8307,-7.20964 21.2524,-12.39725 27.0541,-13.4668 1.3331,-0.24576 3.478,-0.81487 4.7663,-1.26469 1.2882,-0.44983 6.5762,-1.45924 11.7509,-2.24316 8.9844,-1.36103 10.0793,-1.39166 24.2871,-0.67942 8.1832,0.41023 16.825,1.15737 19.2039,1.66033 4.3771,0.9254 9.9315,3.65112 16.7273,8.20861 2.0502,1.37484 5.9484,3.54276 8.6627,4.81762 6.5459,3.07446 13.8899,7.63205 20.4185,12.67147 2.9325,2.26356 6.5678,4.73754 8.0786,5.49772 1.5107,0.76019 5.0568,3.73875 7.8801,6.61903 2.8234,2.88027 6.5772,6.285 8.3419,7.56604 1.7645,1.28104 3.9302,3.10845 4.8126,4.0609 0.8822,0.95246 3.0517,2.37637 4.8211,3.16426 10.7068,4.76776 12.9678,16.23722 5.9442,30.15387 -3.9476,7.82187 -10.1784,12.37432 -25.5239,18.64917 -4.0586,1.65957 -11.2775,5.13288 -16.0419,7.71848 -12.4313,6.74626 -36.8391,17.18599 -48.7673,20.85881 -3.7058,1.14101 -9.482,3.30189 -12.8361,4.80197 -3.3542,1.50007 -9.2736,3.742 -13.1544,4.98205 -3.8806,1.24006 -10.6652,3.99718 -15.0768,6.12694 -4.4114,2.12977 -10.7641,4.76943 -14.1169,5.86593 -3.3527,1.09648 -12.6624,5.30851 -20.6882,9.36004 -8.0259,4.05154 -16.8329,8.19383 -19.5712,9.20509 -2.7382,1.01126 -7.5774,3.18105 -10.7538,4.82175 -3.1762,1.64069 -7.7299,3.58004 -10.1193,4.30966 -2.3894,0.72963 -4.595,1.80201 -4.9014,2.38308 -0.7692,1.4588 0.3349,7.58657 3.1389,17.4192 5.6179,19.69975 7.0482,24.5215 8.2809,27.91288 1.6596,4.56594 4.5317,14.87787 7.2383,25.98786 1.7484,7.17699 7.3783,25.99854 9.021,30.15874 0.3483,0.88229 1.048,3.19233 1.5547,5.1334 1.2408,4.75226 6.4402,16.84942 12.248,28.49612 4.6858,9.39689 4.8899,9.68153 11.5083,16.04188 12.8196,12.31972 20.7503,16.54983 44.1652,23.55732 5.3807,1.61034 7.8153,1.96333 15.0793,2.18651 4.7645,0.14636 11.0318,0.43268 13.9275,0.63622 5.579,0.39225 10.6587,-0.28061 17.5146,-2.32004 2.2941,-0.68236 4.4037,-1.23652 4.6881,-1.23138 0.2846,0.006 3.4608,-1.26648 7.0585,-2.82574 3.5976,-1.55928 8.2737,-3.33287 10.3912,-3.94137 2.1175,-0.6085 5.5826,-1.90776 7.7001,-2.88722 2.1175,-0.97946 6.4488,-2.86778 9.6251,-4.19629 3.1764,-1.32854 7.0746,-3.2558 8.6626,-4.28293 5.3225,-3.4422 24.4261,-14.58259 25.0064,-14.58259 0.3154,0 3.1501,-1.29939 6.299,-2.88754 6.1199,-3.08646 9.4328,-3.5955 14.4079,-2.21384 2.2325,0.62005 7.8868,4.86113 8.996,6.7476 0.2682,0.45623 1.2298,3.66531 2.137,7.13132 -77.5011,87.59438 -180.9024,59.4323 -208.8578,39.13258 z m 418.3068,-50.87915 c -0.5293,-0.16555 -2.9838,-0.89976 -5.4542,-1.63159 -7.9022,-2.34089 -17.7309,-7.41123 -21.5671,-11.12574 -7.3785,-7.14435 -18.1327,-23.6353 -20.71,-31.75764 -5.1026,-16.08117 -6.1056,-20.33104 -7.4958,-31.76293 -1.3733,-11.29156 -2.0072,-16.22807 -2.5959,-20.21278 -0.3388,-2.29398 -0.724,-6.04778 -0.8559,-8.34178 -0.1319,-2.29398 -0.7009,-6.10135 -1.2644,-8.46083 -0.7856,-3.28904 -1.1097,-9.35046 -1.389,-25.97983 -0.2004,-11.92945 -0.6329,-22.01344 -0.9611,-22.4089 -0.3281,-0.39545 -2.3875,-0.90618 -4.5761,-1.13494 -2.1886,-0.22877 -4.2517,-0.68819 -4.5844,-1.02095 -0.3439,-0.34388 -3.264,-0.45867 -6.7657,-0.26594 -4.3141,0.23744 -7.7955,0.0237 -11.6149,-0.71293 -2.9999,-0.5786 -7.5559,-1.44512 -10.1246,-1.92559 -7.4802,-1.3992 -12.0686,-4.78729 -13.7064,-10.12073 -0.3518,-1.14556 -0.6218,-4.62395 -0.6001,-7.72974 0.043,-6.14065 1.4653,-10.69623 4.1178,-13.18806 2.2637,-2.1267 6.8364,-3.80184 11.6507,-4.268 2.4704,-0.2392 8.0994,-0.84179 12.5087,-1.33907 4.4093,-0.4973 11.5008,-0.90416 15.7588,-0.90416 5.2138,0 8.0797,-0.26192 8.7765,-0.80209 0.8722,-0.67598 1.0658,-2.66872 1.2323,-12.67309 0.1086,-6.52905 -0.048,-18.80109 -0.3477,-27.2712 -0.3694,-10.44388 -0.3226,-16.84581 0.1457,-19.89194 3.0792,-20.02718 3.0518,-19.91824 5.7806,-22.94503 5.9475,-6.59683 15.0336,-6.57752 20.7014,0.044 1.3431,1.5692 2.8613,4.4985 3.7866,7.30601 1.4578,4.42383 1.5279,5.33397 1.2512,16.23669 -0.3225,12.70419 -0.081,57.53573 0.3127,57.92892 0.1357,0.13566 5.5412,0.33726 12.0122,0.448 20.546,0.35161 33.9103,2.76397 40.5251,7.31513 4.2356,2.91413 5.9945,6.28425 6.8394,13.10426 0.6498,5.24535 0.6086,5.77291 -0.5827,7.44594 -3.6168,5.07928 -10.2717,7.39003 -24.1078,8.37082 -9.8453,0.6979 -16.9838,1.73415 -26.6295,3.86561 -2.9998,0.66289 -6.229,1.37204 -7.176,1.57588 -2.2127,0.47624 -2.6181,1.87305 -1.7955,6.18509 0.3659,1.91776 0.6301,5.65249 0.5871,8.2994 -0.043,2.64691 0.2602,6.25633 0.6739,8.02094 0.8364,3.56745 1.8908,16.3083 2.3633,28.55456 0.1703,4.41151 0.5767,8.29525 0.9033,8.63052 0.3266,0.33528 0.5938,2.32327 0.5938,4.41775 0,2.09448 0.2751,5.57396 0.6111,7.73219 0.3361,2.15822 0.9489,7.09283 1.3618,10.96579 0.8563,8.03263 1.9556,14.48131 3.3389,19.58777 0.9671,3.56978 6.0237,14.10137 6.7869,14.13522 0.2277,0.0101 3.2611,2.74134 6.7409,6.06942 4.0117,3.83693 7.1814,6.3217 8.6626,6.79074 1.2846,0.40683 3.0577,1.20674 3.9399,1.77759 0.8824,0.57083 3.4811,1.23197 5.7751,1.46917 16.5838,1.71481 20.3551,3.48425 23.1065,10.84149 2.0317,5.43292 1.9843,9.85655 -0.1416,13.19113 -4.2915,6.73136 -8.0282,7.98687 -23.5626,7.91712 -6.2003,-0.0275 -11.7064,-0.18615 -12.2358,-0.35164 z m -121.5975,-15.70314 c -8.0436,-0.37065 -8.5008,-0.46893 -12.7946,-2.74939 -2.449,-1.30074 -4.8795,-2.71591 -5.4011,-3.14482 -1.4897,-1.22486 -7.8917,-9.62371 -10.2544,-13.45285 -1.1779,-1.90885 -2.941,-4.32599 -3.9181,-5.37141 -1.4811,-1.58479 -3.7419,-4.70883 -5.934,-8.19982 -0.2439,-0.38836 -2.0021,-3.67671 -3.9074,-7.30745 l -3.4639,-6.60134 -3.472,2.81014 c -1.9095,1.54558 -5.9263,4.49087 -8.9261,6.54507 -2.9998,2.05421 -7.7642,5.66575 -10.5876,8.02564 -10.9312,9.13669 -19.8579,14.28979 -31.1213,17.96507 -8.1607,2.66289 -10.4209,3.12597 -18.3892,3.76768 -5.4059,0.43535 -9.6936,0.50288 -10.5876,0.16676 -0.8266,-0.31068 -4.1015,-0.90706 -7.2779,-1.32529 -3.1762,-0.41822 -8.0851,-1.58457 -10.9084,-2.59189 -2.8234,-1.0073 -6.2885,-2.18564 -7.7002,-2.61851 -2.8468,-0.87291 -5.6543,-2.36336 -11.8709,-6.30171 -2.294,-1.4533 -5.7982,-3.49844 -7.7872,-4.54475 -1.989,-1.04631 -4.9178,-2.78075 -6.5086,-3.85434 -3.3416,-2.25525 -9.1068,-9.66462 -11.5058,-14.78715 -3.7939,-8.10096 -4.2863,-9.45185 -4.561,-12.51267 -0.1585,-1.76461 -0.6317,-4.50777 -1.0516,-6.09592 -1.2205,-4.61605 -1.0866,-21.25814 0.2169,-26.95037 0.6061,-2.64691 1.351,-6.11195 1.6552,-7.70009 1.7889,-9.33855 3.0368,-13.73921 5.2771,-18.60859 1.3802,-2.99984 2.7902,-5.88737 3.1334,-6.41676 0.3431,-0.52937 1.0538,-1.89821 1.5794,-3.04185 0.8058,-1.75303 6.5671,-8.82291 9.4148,-11.55291 3.0941,-2.96633 11.7835,-10.72444 15.2708,-13.63407 2.294,-1.91402 5.6147,-4.80564 7.3793,-6.42583 1.7646,-1.62017 4.9408,-3.91331 7.0584,-5.09584 2.1176,-1.18253 4.572,-2.80515 5.4543,-3.6058 2.0002,-1.81516 11.3888,-6.69437 12.8812,-6.69437 0.6079,0 2.7348,-0.85717 4.7264,-1.90481 6.5148,-3.42699 15.7558,-5.76287 25.3846,-6.41658 4.7644,-0.32346 9.8691,-0.78273 11.3437,-1.02058 1.703,-0.2747 4.4769,-0.033 7.6039,0.66276 2.7075,0.60235 5.4919,0.94638 6.1876,0.76446 2.241,-0.58604 7.0076,1.32909 19.4612,7.81899 10.4134,5.4267 12.4727,6.74733 14.1169,9.05321 1.0587,1.48483 3.2454,4.19158 4.8592,6.015 3.6837,4.16197 9.9561,13.13065 10.8965,15.5803 0.391,1.01852 1.9835,6.76067 3.5389,12.76033 1.5555,5.99967 3.229,12.35226 3.719,14.11686 0.4899,1.76461 1.2585,6.38467 1.7081,10.26681 0.4495,3.88213 1.4689,9.36846 2.2655,12.19182 2.0584,7.29704 7.2325,22.19538 8.2449,23.74035 0.4698,0.7171 1.0685,2.31022 1.3304,3.54027 1.2308,5.77993 9.0475,22.74842 11.3864,24.71725 4.8949,4.12058 12.0244,3.79303 21.3441,-0.98061 6.7943,-3.48015 8.2878,-3.75879 11.6341,-2.17081 3.0498,1.4472 4.6406,3.96378 5.7172,9.04451 1.6679,7.87135 1.6809,7.83364 -5.0989,14.81352 -3.3238,3.42187 -7.7273,7.2155 -9.7855,8.43027 -2.0583,1.21477 -5.8946,3.59699 -8.5252,5.29382 -2.6306,1.69683 -5.1716,3.08515 -5.6466,3.08515 -0.4749,0 -1.7877,0.48186 -2.9172,1.07079 -3.0711,1.6014 -5.7096,1.85526 -14.8871,1.43235 z m -120.9558,-50.1547 c 2.647,-0.85866 7.267,-2.80255 10.2669,-4.31975 2.9998,-1.51721 6.3204,-3.1983 7.3792,-3.73578 1.0588,-0.53747 4.578,-2.73314 7.8202,-4.87925 3.2424,-2.14612 7.7013,-4.91267 9.9085,-6.1479 10.5292,-5.89233 17.6914,-13.43369 20.2698,-21.34267 0.8055,-2.47078 1.4645,-5.44314 1.4645,-6.60524 0,-1.1621 0.2828,-3.50653 0.6284,-5.20984 2.7203,-13.40614 3.2619,-22.56052 1.6608,-28.06835 -1.1396,-3.91981 -2.4686,-5.26496 -8.0642,-8.16159 l -4.171,-2.15911 h -11.5501 c -9.8188,0 -11.8601,0.16946 -13.6181,1.1304 -1.1375,0.62171 -4.2225,1.54263 -6.8559,2.04647 -4.3974,0.84134 -10.6856,3.5768 -15.3372,6.67184 -5.4825,3.6478 -25.1868,23.08628 -31.734,31.30585 -4.5278,5.68436 -6.3335,9.84162 -7.3735,16.97626 -1.053,7.22577 0.3495,13.80955 4.11,19.29238 1.5351,2.23827 3.2243,5.18099 3.7536,6.53939 0.8471,2.17352 1.6939,2.85146 7.0585,5.65098 l 6.0959,3.18116 6.7375,-0.30203 c 4.7189,-0.21152 8.1797,-0.76982 11.5502,-1.86322 z M 1550.7483,498.8483 c 3.2687,-1.03632 6.3294,-1.88422 6.8016,-1.88422 1.3555,0 18.7744,-5.99573 24.7932,-8.53403 2.9998,-1.26512 8.5812,-3.20134 12.403,-4.30271 3.8218,-1.10137 10.8187,-3.71686 15.5486,-5.81219 4.73,-2.09535 8.7575,-3.80971 8.95,-3.80971 0.1925,0 3.4521,-1.53377 7.2436,-3.40837 3.7916,-1.87461 9.9198,-4.34706 13.6184,-5.49433 9.3344,-2.89547 9.2885,-2.87889 15.3874,-5.55169 2.9998,-1.31467 8.9193,-3.60259 13.1544,-5.08428 7.1778,-2.51129 16.1818,-6.57191 18.0973,-8.1616 1.1156,-0.92586 1.053,-2.75961 -0.1275,-3.73937 -0.5278,-0.43799 -1.2842,-1.87966 -1.6808,-3.20367 -2.6365,-8.79964 -25.6634,-24.52036 -38.1061,-26.01528 -2.1174,-0.2544 -4.4275,-0.59635 -5.1334,-0.75989 -1.6304,-0.37776 -17.6602,-0.24931 -18.3009,0.14665 -0.2636,0.16288 -2.4619,0.57734 -4.8853,0.92102 -5.3402,0.75739 -16.3901,4.08661 -19.3395,5.82675 -1.1792,0.69576 -2.4562,1.26501 -2.8377,1.26501 -0.3815,0 -2.0253,1.17762 -3.653,2.61694 -10.4138,9.20907 -13.109,11.70342 -17.6202,16.30695 -5.3757,5.48569 -10.7655,11.78156 -14.7273,17.20306 -1.3408,1.83484 -3.4174,4.34671 -4.6146,5.58194 -1.1974,1.23523 -3.1862,4.29464 -4.4199,6.79869 -1.2337,2.50405 -4.4252,7.78917 -7.0923,11.74472 -2.667,3.95555 -5.0432,7.97061 -5.2804,8.92236 -0.2371,0.95176 -0.9543,2.88548 -1.5936,4.29717 -0.6395,1.41168 -1.169,3.34248 -1.1767,4.29065 -0.013,1.46409 0.3002,1.76576 2.0713,2.00133 3.1092,0.41355 5.9369,-0.0747 12.5204,-2.1619 z m 34.2638,-34.35358 c -2.1162,-1.48219 -2.8533,-3.84951 -2.0018,-6.4293 0.7315,-2.21666 5.9145,-7.30197 7.4421,-7.30197 0.4788,0 1.9975,-1.01826 3.3751,-2.26282 1.3776,-1.24456 4.9007,-3.43365 7.829,-4.86466 5.7963,-2.83256 8.2425,-3.24615 24.4079,-4.12686 7.6788,-0.41835 8.1794,-0.37075 9.4484,0.89825 1.7356,1.73557 2.2483,3.88217 1.4369,6.01627 -1.2002,3.15689 -2.8187,3.62917 -15.1807,4.43 -10.7126,0.694 -11.7807,0.87871 -15.3631,2.65734 -2.1175,1.05133 -4.8397,2.77625 -6.0493,3.83316 -1.2095,1.05691 -3.1529,2.32016 -4.3186,2.80724 -1.1658,0.48707 -2.5624,1.56147 -3.1037,2.38752 -1.8569,2.83397 -5.4146,3.71228 -7.9222,1.95583 z"
       id="path837"
       sodipodi:nodetypes="ccssssssssssssssssssssssssssssssssssssssssssssssssssssssssssssssssssscsssssssssccssssssssssssssssssssssscssssssssssssssssssssssssssssssssssssssscssssssssssssssssssssssssssssssssssssssssssssssssssssssssssssscssssssssscssssssssssssssssssssssssssssscssssssssssssssss" />
  </g>
</svg>
