<?xml version="1.0" encoding="UTF-8" standalone="no"?>
<svg
   xmlns:dc="http://purl.org/dc/elements/1.1/"
   xmlns:cc="http://creativecommons.org/ns#"
   xmlns:rdf="http://www.w3.org/1999/02/22-rdf-syntax-ns#"
   xmlns:svg="http://www.w3.org/2000/svg"
   xmlns="http://www.w3.org/2000/svg"
   xmlns:sodipodi="http://sodipodi.sourceforge.net/DTD/sodipodi-0.dtd"
   xmlns:inkscape="http://www.inkscape.org/namespaces/inkscape"
   version="1.1"
   id="svg2"
   width="2330.009"
   height="740.612"
   viewBox="0 0 2330.009 740.612"
   sodipodi:docname="walleat_logo.svg"
   inkscape:version="1.0.1 (3bc2e813f5, 2020-09-07)">
  <metadata
     id="metadata8">
    <rdf:RDF>
      <cc:Work
         rdf:about="">
        <dc:format>image/svg+xml</dc:format>
        <dc:type
           rdf:resource="http://purl.org/dc/dcmitype/StillImage" />
        <dc:title></dc:title>
      </cc:Work>
    </rdf:RDF>
  </metadata>
  <defs
     id="defs6" />
  <sodipodi:namedview
     pagecolor="#ffffff"
     bordercolor="#666666"
     borderopacity="1"
     objecttolerance="10"
     gridtolerance="10"
     guidetolerance="10"
     inkscape:pageopacity="0"
     inkscape:pageshadow="2"
     inkscape:window-width="1500"
     inkscape:window-height="948"
     id="namedview4"
     showgrid="false"
     fit-margin-top="20"
     fit-margin-left="20"
     fit-margin-right="20"
     fit-margin-bottom="20"
     lock-margins="true"
     inkscape:zoom="0.19110231"
     inkscape:cx="1090.5586"
     inkscape:cy="497.44208"
     inkscape:window-x="-6"
     inkscape:window-y="-6"
     inkscape:window-maximized="1"
     inkscape:current-layer="g10" />
  <g
     inkscape:groupmode="layer"
     inkscape:label="Image"
     id="g10"
     transform="translate(-36.308445,-38.576812)">
    <path
       style="fill:#000000"
       d="m 1587.3176,758.99145 c -1.375,-0.2409 -5.147,-0.917 -8.3821,-1.5026 -3.2352,-0.5856 -10.9488,-1.4468 -17.1413,-1.9138 -13.5957,-1.0253 -30.786,-4.7271 -46.9766,-10.1158 -6.6,-2.1967 -15.375,-4.898 -19.5,-6.0028 -4.1374,-1.1082 -10.8484,-3.9975 -14.9684,-6.4443 l -7.4684,-4.4353 H 769.53349 c -482.92277,0 -703.953535,-0.3245 -705.281605,-1.0352 -1.06384,-0.5694 -1.93426,-1.4395 -1.93426,-1.9336 0,-0.4941 -1.35207,-3.0734 -3.00459,-5.7317 l -3.00459,-4.8334 0.25459,-322.05613 0.25459,-322.056138 2.68402,-4.05578 c 1.61681,-2.44316 4.42624,-4.89919 7.06572,-6.17694 l 4.38171,-2.12115 H 1201.0682 c 786.0894,0 1130.959,0.31929 1132.8779,1.04886 3.7647,1.43132 9.2449,6.7668 10.9584,10.66902 1.2078,2.75044 1.4131,49.862068 1.4131,324.319828 v 321.10193 l -2.98,4.3313 c -1.7929,2.606 -4.7071,5.1674 -7.3157,6.4302 l -4.3357,2.0989 h -308.7093 -308.7092 l -7.2251,3.6392 c -3.9737,2.0015 -9.475,4.4365 -12.225,5.411 -2.75,0.9746 -10.4,3.8712 -17,6.4371 -18.7217,7.2782 -29.3652,10.0709 -44,11.5447 -4.95,0.4985 -13.05,1.3697 -18,1.936 -11.4598,1.311 -25.2716,2.012 -28.5,1.4466 z m -140.9472,-52.0746 c -1.1507,-1.463 -4.6709,-4.554 -7.8225,-6.8689 -10.213,-7.5016 -29.9513,-31.1216 -38.0172,-45.4933 -1.7045,-3.0372 -4.2936,-6.6372 -5.7535,-8 -1.4598,-1.3628 -3.5402,-4.2057 -4.623,-6.3174 -1.0827,-2.11182 -3.4707,-5.93682 -5.3065,-8.50004 -1.8359,-2.56322 -4.446,-6.6854 -5.8004,-9.1604 -1.3544,-2.475 -4.7726,-8.68595 -7.5961,-13.80211 -2.8235,-5.11616 -5.1336,-9.74724 -5.1336,-10.29128 0,-0.54404 -1.8,-4.66146 -4,-9.14982 -2.2,-4.48836 -4,-9.36311 -4,-10.83277 0,-1.46966 -1.0991,-4.64129 -2.4424,-7.04807 -1.3433,-2.40677 -2.9311,-6.62595 -3.5284,-9.37595 -0.5973,-2.75 -2.6037,-9.05 -4.4586,-14 -3.1542,-8.41727 -11.9813,-35.02517 -14.5968,-44 -0.6412,-2.2 -1.5658,-11.875 -2.0547,-21.5 -0.4889,-9.625 -1.1764,-21.42226 -1.5276,-26.21613 -0.7833,-10.68831 1.2676,-34.45909 3.2126,-37.2359 0.7677,-1.09614 1.3959,-4.08225 1.3959,-6.63579 0,-5.60749 3.5874,-32.66618 5.0519,-38.10486 0.576,-2.1391 1.4819,-7.714 2.013,-12.38866 0.5312,-4.67466 1.8268,-11.06871 2.8792,-14.20902 1.0523,-3.1403 2.2269,-8.17556 2.6101,-11.18947 1.0044,-7.89994 2.832,-12.4301 8.8835,-22.02017 5.6885,-9.0148 22.4198,-41.29697 25.5022,-49.20534 1.0087,-2.58794 2.8014,-5.96294 3.9837,-7.5 2.1162,-2.75108 8.7532,-12.92778 14.9079,-22.85875 1.7261,-2.78525 6.0857,-7.96025 9.6879,-11.5 3.6022,-3.53975 7.181,-7.56091 7.9528,-8.93591 0.7717,-1.375 6.4937,-7.72807 12.7155,-14.11794 8.8773,-9.11712 12.6038,-12.21162 17.3123,-14.37591 3.3,-1.51688 13.6774,-7.86849 23.0608,-14.11469 16.879,-11.23564 33.1204,-19.32013 42.1619,-20.98694 2.0775,-0.38298 5.42,-1.2699 7.4277,-1.97092 2.0077,-0.70101 10.2485,-2.27411 18.3129,-3.49577 14.0015,-2.12106 15.7078,-2.16879 37.8496,-1.05882 12.7529,0.6393 26.2204,1.80367 29.9277,2.58748 6.8213,1.44218 15.4774,5.68998 26.0683,12.79247 3.1949,2.14257 9.2699,5.52111 13.5,7.50788 10.2013,4.79129 21.6464,11.89393 31.8207,19.74748 4.57,3.52757 10.2354,7.38306 12.5897,8.56775 2.3544,1.1847 7.8807,5.82655 12.2807,10.31523 4.4,4.48868 10.25,9.79467 13,11.79108 2.75,1.9964 6.125,4.84427 7.5,6.32859 1.375,1.48432 4.756,3.70338 7.5134,4.93124 16.6858,7.43018 20.2093,25.30442 9.2635,46.99241 -6.152,12.18977 -15.862,19.2844 -39.7769,29.06325 -6.325,2.5863 -17.575,7.99919 -25,12.02865 -19.3731,10.51351 -57.4107,26.78299 -76,32.50679 -5.775,1.77817 -14.7768,5.14574 -20.004,7.48348 -5.2272,2.33775 -14.4522,5.83162 -20.5,7.76414 -6.0478,1.93253 -16.621,6.22929 -23.496,9.54835 -6.875,3.31907 -16.775,7.43277 -22,9.14157 -5.225,1.70879 -19.7335,8.2729 -32.2411,14.58689 -12.5076,6.314 -26.2326,12.76943 -30.5,14.3454 -4.2674,1.57597 -11.8089,4.95741 -16.7589,7.51431 -4.95,2.55689 -12.0466,5.57922 -15.7702,6.71627 -3.7237,1.13706 -7.161,2.80828 -7.6385,3.71383 -1.1988,2.27342 0.522,11.82306 4.8918,27.14645 8.7549,30.7005 10.9841,38.21481 12.9051,43.5 2.5862,7.11564 7.0622,23.18598 11.2802,40.5 2.7249,11.18478 11.4985,40.51666 14.0585,47 0.5429,1.375 1.6333,4.975 2.423,8 1.9336,7.40602 10.0365,26.25848 19.0874,44.40894 7.3025,14.6443 7.6207,15.0879 17.9349,25 19.9783,19.1993 32.3376,25.7916 68.8278,36.7122 8.3855,2.5096 12.1795,3.0597 23.5,3.4075 7.425,0.2281 17.1922,0.6743 21.7049,0.9915 8.6944,0.6113 16.6108,-0.4373 27.2951,-3.6156 3.575,-1.0634 6.8628,-1.927 7.3061,-1.919 0.4434,0.01 5.3934,-1.9737 11,-4.4037 5.6067,-2.43 12.8939,-5.194 16.1939,-6.1423 3.3,-0.9483 8.7,-2.9731 12,-4.4995 3.3,-1.5264 10.05,-4.4692 15,-6.5396 4.95,-2.0704 11.025,-5.0739 13.5,-6.6746 8.2945,-5.3644 38.0661,-22.7258 38.9704,-22.7258 0.4916,0 4.9091,-2.025 9.8165,-4.5 9.5374,-4.81 14.7003,-5.6033 22.4535,-3.4501 3.4793,0.9663 12.2911,7.5757 14.0196,10.5156 0.418,0.711 1.9167,5.7121 3.3304,11.1136 3.7083,14.1691 2.5997,19.2056 -5.0376,22.8849 -1.6791,0.8089 -6.8778,4.2483 -11.5528,7.6432 -4.675,3.3949 -11.8641,8.1121 -15.9758,10.4827 l -7.4758,4.3101 h 277.768 c 173.8785,0 278.2197,-0.3553 278.9758,-0.9498 5.7097,-4.4901 9.6565,-8.5145 10.6026,-10.811 0.8315,-2.0183 1.0597,-82.35534 0.8669,-305.23924 l -0.2617,-302.499998 -2.0541,-3.4966 c -1.1297,-1.92313 -3.5588,-4.51063 -5.3978,-5.75 l -3.3439,-2.2534 H 1201.0378 87.053695 l -3.29708,2.03771 c -1.8134,1.12074 -4.22901,3.96281 -5.36804,6.31572 l -2.07095,4.27802 V 396.46946 701.73065 l 3.08077,2.8423 c 1.69442,1.5633 3.60692,3.3062 4.25,3.8731 0.8002,0.7054 216.366855,1.0465 682.991815,1.0808 l 681.82259,0.05 z m 779.2492,-11.3958 c -6.905,-2.7169 -15.0206,-10.1447 -17.9447,-16.424 -5.2672,-11.311 -2.1338,-25.0404 7.7412,-33.9188 13.0518,-11.73475 34.4314,-11.66902 47.0611,0.1446 6.9166,6.4697 9.8428,12.929 9.8306,21.7003 -0.017,12.0682 -6.5945,22.1054 -17.9902,27.4514 -7.5897,3.5605 -21.0601,4.0517 -28.698,1.0465 z m 25.1718,-8.0978 2.9738,-1.3464 -4.3476,-0.5 c -4.1493,-0.4772 -4.4367,-0.7281 -6.3013,-5.5 -2.4274,-6.2123 -4.4336,-8.5 -7.4537,-8.5 -2.2367,0 -2.345,0.3233 -2.345,7 v 7 h -4.0226 -4.0225 l 0.2725,-18.25 0.2726,-18.25 7,-0.3078 c 9.1931,-0.4042 12.8007,0.3485 16.4706,3.4364 4.0566,3.4135 4.3351,10.1566 0.5749,13.9168 -1.35,1.35 -2.9479,2.4546 -3.5509,2.4546 -0.603,0 0.052,1.5049 1.4545,3.3444 1.403,1.8394 2.5509,3.5822 2.5509,3.8728 0,0.2907 0.9409,2.6557 2.091,5.2556 l 2.091,4.727 3.039,-2.8499 c 15.057,-14.1202 3.8927,-38.2634 -17.721,-38.3224 -7.9005,-0.022 -12.5248,1.3551 -17.7247,5.2769 -7.8941,5.9535 -10.9221,16.6219 -7.2276,25.464 5.1321,12.2828 22.5445,18.1367 35.9261,12.078 z m -8.6963,-23.4031 c 4.7428,-3.3221 1.5455,-9.4433 -4.9325,-9.4433 h -3.845 v 5.5 5.5 h 3.2775 c 1.8026,0 4.2776,-0.7006 5.5,-1.5567 z m -117.7775,-18.0703 c -0.825,-0.258 -4.65,-1.4022 -8.5,-2.5427 -12.3148,-3.6481 -27.6321,-11.54982 -33.6106,-17.33859 -11.4988,-11.13389 -28.2583,-36.83373 -32.2748,-49.49175 -7.9521,-25.06123 -9.5151,-31.68431 -11.6818,-49.5 -2.14,-17.59699 -3.128,-25.29017 -4.0453,-31.5 -0.5281,-3.575 -1.1283,-9.425 -1.3339,-13 -0.2055,-3.575 -1.0923,-9.50849 -1.9705,-13.18554 -1.2243,-5.12571 -1.7294,-14.57196 -2.1647,-40.48751 -0.3122,-18.59108 -0.9862,-34.3062 -1.4977,-34.92249 -0.5115,-0.61628 -3.7207,-1.4122 -7.1315,-1.76871 -3.4109,-0.35651 -6.6259,-1.07248 -7.1445,-1.59106 -0.5359,-0.53592 -5.0866,-0.7148 -10.5438,-0.41445 -6.7232,0.37003 -12.1486,0.037 -18.1009,-1.11105 -4.675,-0.9017 -11.7752,-2.2521 -15.7783,-3.00088 -11.6573,-2.18053 -18.8081,-7.4606 -21.3604,-15.77233 -0.5482,-1.78529 -0.969,-7.20608 -0.9352,-12.0462 0.067,-9.56972 2.2836,-16.66924 6.4172,-20.55254 3.5279,-3.3143 10.6542,-5.92487 18.1567,-6.65133 3.85,-0.3728 12.6222,-1.31188 19.4939,-2.08686 6.8716,-0.77498 17.9231,-1.40905 24.5588,-1.40905 8.1253,0 12.5916,-0.40818 13.6776,-1.25 1.3591,-1.05345 1.661,-4.15899 1.9203,-19.75 0.1692,-10.175 -0.075,-29.3 -0.5417,-42.5 -0.5759,-16.27595 -0.5029,-26.25285 0.227,-31 4.7986,-31.21077 4.7559,-31.04101 9.0086,-35.75799 9.2687,-10.28065 23.4286,-10.25056 32.2614,0.0686 2.0932,2.44549 4.4592,7.01057 5.9011,11.38583 2.2719,6.8942 2.3812,8.31258 1.9499,25.3036 -0.5026,19.79847 -0.1254,89.66486 0.4874,90.27761 0.2114,0.21142 8.6354,0.5256 18.72,0.69818 32.0193,0.54795 52.8465,4.30743 63.1552,11.40004 6.6008,4.54145 9.342,9.7935 10.6587,20.42196 1.0127,8.17446 0.9484,8.99661 -0.9082,11.6039 -5.6364,7.91565 -16.0076,11.51678 -37.57,13.04527 -15.3431,1.08761 -26.4679,2.70252 -41.5,6.02424 -4.675,1.03305 -9.7075,2.1382 -11.1833,2.45587 -3.4482,0.74219 -4.08,2.919 -2.798,9.63897 0.5701,2.98868 0.9818,8.80896 0.9148,12.93396 -0.067,4.125 0.4056,9.75 1.0503,12.5 1.3034,5.55958 2.9467,25.41519 3.6831,44.5 0.2652,6.875 0.8987,12.9275 1.4077,13.45 0.509,0.5225 0.9254,3.62062 0.9254,6.8847 0,3.26409 0.4285,8.68659 0.9523,12.05 0.5238,3.36342 1.4788,11.05361 2.1223,17.08932 1.3345,12.5182 3.0476,22.56797 5.2033,30.52598 1.5071,5.56322 9.3874,21.97586 10.5769,22.02862 0.3548,0.0157 5.0821,4.27216 10.5051,9.4587 6.252,5.97955 11.1918,9.85188 13.5,10.58283 2.002,0.63401 4.7651,1.88062 6.1401,2.77023 1.375,0.88961 5.425,1.91993 9,2.28959 25.8445,2.67239 31.7217,5.42993 36.0096,16.8956 3.1663,8.46677 3.0923,15.36064 -0.2207,20.55733 -6.6879,10.4903 -12.5113,12.4469 -36.7204,12.3382 -9.6627,-0.043 -18.2435,-0.2901 -19.0685,-0.548 z m -1358.49997,-1.373 c -11.7699,-1.0685 -22.85775,-4.1906 -34.1302,-9.6103 -5.02161,-2.41436 -9.52965,-4.38974 -10.01786,-4.38974 -0.48822,0 -2.67963,-1.22295 -4.86981,-2.71766 -2.19017,-1.49471 -5.65247,-3.63221 -7.694,-4.75 -19.35286,-10.59617 -25.64957,-14.85454 -35.50915,-24.01429 -6.47685,-6.01712 -8.237,-8.29647 -9.27809,-12.01486 -0.70665,-2.52393 -2.54574,-6.4926 -4.08686,-8.81927 -1.54112,-2.32666 -3.25389,-6.01986 -3.80616,-8.20711 -1.96929,-7.79925 -5.22812,-18.86237 -5.85506,-19.87676 -0.35058,-0.56726 -0.98642,-7.34683 -1.41298,-15.06572 -0.42656,-7.71888 -1.25018,-18.53433 -1.83028,-24.03433 -1.63064,-15.46043 -2.37379,-53.32915 -1.13821,-58 4.49771,-17.00275 16.00227,-38.36737 30.46138,-56.56855 5.592,-7.03923 11.29228,-14.67085 12.66728,-16.95914 2.7336,-4.54928 4.86274,-6.81091 19.74378,-20.97231 13.07734,-12.44493 14.90452,-13.81307 28.89661,-21.63703 6.52278,-3.64735 14.25389,-8.16086 17.18023,-10.03001 7.36017,-4.7012 25.31931,-13.14335 32.61833,-15.33309 12.94303,-3.88296 46.79655,-5.60695 55.56105,-2.82944 4.9347,1.56383 20.8671,9.20929 31.5,15.11592 4.95,2.74974 12.4737,6.80161 16.7193,9.00416 5.6451,2.92859 11.2878,7.29118 21,16.23608 18.3515,16.90163 19.9855,19.09961 26.7424,35.97341 6.3949,15.96962 11.1826,32.68494 11.1705,39 -0.047,24.50785 -1.1957,69.4507 -2.0009,78.28242 -0.9556,10.48018 -0.4629,19.3693 1.8134,32.71758 1.0221,5.99396 4.1379,15.91589 5.3917,17.16975 0.365,0.36497 0.6636,1.53338 0.6636,2.59647 0,3.38164 6.8108,17.79685 10.5842,22.40183 4.8991,5.97875 14.8639,10.76946 22.0623,10.60674 5.914,-0.1337 9.6192,-1.79799 13.80587,-6.20146 4.6109,-4.84965 16.0448,-6.89527 22.063,-3.94725 5.1916,2.54315 6.9887,6.21562 6.9488,14.20085 -0.039,7.76952 -1.1066,10.56716 -6.9601,18.2356 -4.04,5.29271 -14.1408,13.88113 -17.5524,14.92434 -1.3484,0.41233 -3.2197,1.42359 -4.1584,2.24725 -2.2542,1.97786 -13.88857,5.29022 -20.79327,5.91993 -6.0503,0.55179 -11.9103,-0.30564 -25.5,-3.73111 -7.0492,-1.77685 -10.8424,-3.47203 -17.5,-7.82079 -4.675,-3.05372 -9.0129,-6.04424 -9.6398,-6.64561 -0.627,-0.60136 -2.4401,-2.18759 -4.0292,-3.52496 -1.5891,-1.33737 -4.8136,-4.98051 -7.1656,-8.09586 -2.3519,-3.11535 -4.9597,-5.92653 -5.7949,-6.24705 -0.918,-0.35226 -3.4273,1.0266 -6.3441,3.48612 -5.2018,4.38621 -9.7687,7.28151 -14.5264,9.20951 -1.65,0.66863 -5.475,2.5057 -8.5,4.08236 -26.863,14.00128 -35.137,17.90606 -39.7568,18.76259 -2.8913,0.53605 -7.1663,1.84137 -9.5,2.90073 -2.3338,1.05935 -5.7199,1.93598 -7.52475,1.94806 -1.80485,0.0121 -5.90058,0.90425 -9.10163,1.9826 -8.628,2.9066 -20.24655,5.1029 -26.28662,4.9691 -2.93161,-0.065 -7.8052,0.1081 -10.8302,0.3846 -3.025,0.2765 -9.55,0.135 -14.5,-0.3143 z m 57.03976,-62.1125 c 12.82344,-4.0072 23.35544,-9.82796 30.43594,-16.82121 3.0997,-3.06148 7.759,-7.28522 10.354,-9.38609 5.224,-4.22929 9.5105,-11.85962 16.7233,-29.76848 5.9399,-14.74863 8.6621,-23.66064 11.4275,-37.41176 2.1806,-10.84354 2.3584,-13.63833 1.8442,-29 -0.738,-22.04572 -3.3871,-34.0945 -11.1032,-50.5 -2.993,-6.36349 -4.8729,-8.71228 -12.4061,-15.5 -4.8833,-4.4 -10.7956,-9.01503 -13.1385,-10.25561 -5.0561,-2.67718 -18.8064,-4.23144 -40.1769,-4.54136 -13.95853,-0.20243 -14.01949,-0.1934 -20.57903,3.04697 -3.61846,1.7875 -6.95004,3.25 -7.4035,3.25 -2.38153,0 -11.71013,5.42574 -16.61492,9.66363 -3.0786,2.66 -9.44719,8.06776 -14.15244,12.01724 -8.29975,6.96664 -18.65298,19.36524 -25.22579,30.2094 -0.53663,0.88535 -2.65036,4.30973 -4.69717,7.60973 -9.74728,15.71518 -12.63206,26.57395 -13.32294,50.14966 l -0.50749,17.31764 5.86564,14.26635 c 9.58077,23.30225 11.98578,26.8566 24.73805,36.56016 20.23686,15.39881 37.41979,21.67476 60.43935,22.07507 5.89732,0.10256 9.70946,-0.54689 17.5,-2.98134 z M 492.8721,632.97227 c -12.1616,-2.94125 -21.92723,-11.99243 -29.12931,-26.99823 -2.43384,-5.07099 -4.42516,-9.73221 -4.42516,-10.35826 0,-0.62606 -0.67278,-2.43931 -1.49507,-4.02944 -0.82229,-1.59014 -2.67811,-7.53029 -4.12403,-13.20034 -1.44593,-5.67006 -4.27935,-13.45919 -6.2965,-17.30919 -3.97622,-7.58915 -12.0763,-26.56085 -14.08956,-33 -3.04508,-9.73936 -3.95339,-10.53003 -6.03106,-5.25 -2.67499,6.79802 -12.60575,24.19847 -16.05916,28.13848 -1.98204,2.26134 -4.14131,5.75354 -4.79836,7.76044 -0.65706,2.00691 -2.91138,6.05691 -5.00961,9 -2.09824,2.9431 -4.61227,6.92608 -5.58675,8.85108 -2.59647,5.12913 -12.23005,15.80653 -16.93199,18.76662 -2.24285,1.41198 -6.77791,4.3614 -10.07791,6.55428 -11.19422,7.43863 -12.3503,7.87065 -23.49786,8.78107 -17.34142,1.41626 -25.14841,-2.12981 -32.73136,-14.86715 -4.3652,-7.3324 -8.26939,-16.48668 -8.27028,-19.3916 -2.7e-4,-0.91123 -1.3505,-4.66568 -3.0005,-8.34322 -1.65,-3.67754 -3.00208,-7.20699 -3.00463,-7.84322 -0.003,-0.63623 -1.11687,-3.85678 -2.47627,-7.15678 -1.35939,-3.3 -2.48508,-7.35 -2.50153,-9 -0.0164,-1.65 -0.66806,-4.22329 -1.44804,-5.71841 -0.77998,-1.49513 -2.63543,-6.22013 -4.12322,-10.5 -1.48778,-4.27988 -3.91431,-10.48159 -5.39228,-13.78159 -5.00271,-11.16998 -9.81091,-26.89165 -11.54631,-37.75365 -0.32985,-2.06451 -2.08611,-6.56451 -3.90281,-10 -3.554,-6.72085 -5.00874,-11.96275 -6.59013,-23.74635 -1.69989,-12.66661 -2.61568,-16.25973 -5.85105,-22.95673 -1.71561,-3.5512 -3.83359,-9.8512 -4.70661,-14 -0.87302,-4.1488 -2.20436,-9.11827 -2.95854,-11.04327 -0.75418,-1.925 -1.66127,-5.75 -2.01576,-8.5 -0.35449,-2.75 -1.28938,-7.025 -2.07754,-9.5 -0.78816,-2.475 -2.29825,-10.575 -3.35575,-18 -1.05751,-7.425 -2.82986,-16.97577 -3.93855,-21.22393 -1.1087,-4.24816 -2.31974,-12.34816 -2.6912,-18 -0.37146,-5.65184 -1.77131,-14.55107 -3.11079,-19.77607 -5.36994,-20.94697 -6.42487,-31.52227 -4.20972,-42.20078 2.06963,-9.97698 7.06846,-16.21938 17.29329,-21.5954 4.43817,-2.33352 6.28678,-2.68661 14.10744,-2.69461 8.23619,-0.008 9.46677,0.25493 14.5,3.10312 3.91293,2.21425 6.8277,4.96862 10.10115,9.54529 4.87846,6.82067 6.32256,11.34652 7.44801,23.34238 0.36121,3.85 1.11154,7.85343 1.66739,8.89652 0.55586,1.04309 1.39883,5.76809 1.87328,10.5 0.47445,4.73191 1.28821,12.20348 1.80835,16.60348 0.52015,4.4 1.22582,11.15 1.56817,15 0.34235,3.85 1.02911,9.475 1.52613,12.5 4.39711,26.76195 9.24068,48.70809 13.57321,61.5 1.86282,5.5 4.54197,15.85 5.95368,23 2.88557,14.61479 6.53506,29.93876 10.08871,42.36187 1.31555,4.59902 2.39192,10.09035 2.39192,12.20294 0,2.1126 0.41177,4.87476 0.91503,6.13814 0.50327,1.26338 2.55777,8.14705 4.56555,15.29705 4.351,15.49455 8.1724,26.01013 10.18274,28.02046 1.28626,1.28627 1.79191,1.28433 4.15069,-0.0159 9.91888,-5.46764 16.18256,-17.52028 28.8454,-55.50455 2.47527,-7.425 5.78868,-15.525 7.36312,-18 1.57444,-2.475 4.94034,-9.87704 7.47978,-16.44898 2.53943,-6.57194 6.61528,-15.76756 9.05742,-20.43472 2.44215,-4.66716 4.44027,-9.54996 4.44027,-10.85068 0,-2.83862 1.36501,-5.54864 7.41367,-14.71873 2.52248,-3.82421 4.58633,-7.49597 4.58633,-8.15947 0,-0.6635 2.28414,-5.76901 5.07587,-11.34558 3.87636,-7.74317 6.0227,-10.82509 9.08254,-13.04163 9.91815,-7.18467 23.95215,-3.57057 28.96193,7.45842 2.14676,4.72609 2.32041,8.47938 0.71421,15.43778 -1.29654,5.61694 0.21296,24.32668 2.71115,33.60359 0.74055,2.75 1.80093,8.6 2.3564,13 0.55547,4.4 1.70009,10.25 2.5436,13 0.84351,2.75 2.01949,7.7 2.61329,11 2.02914,11.27681 11.09097,39.35142 14.09062,43.65437 1.01771,1.4599 1.85039,3.05875 1.85039,3.553 0,0.49424 1.30394,2.67478 2.89763,4.84563 1.5937,2.17085 3.41754,5.747 4.05298,7.947 0.63544,2.2 2.89441,7.375 5.01994,11.5 2.12552,4.125 5.03987,9.8625 6.47631,12.75 1.43645,2.8875 3.03102,5.25 3.54348,5.25 0.51246,0 1.80179,0.93387 2.86516,2.07528 2.19698,2.35817 2.30461,2.24755 4.45157,-4.57528 3.41595,-10.85554 6.95008,-33.36178 8.244,-52.5 0.86718,-12.82644 1.54643,-16.17966 13.47057,-66.5 1.17298,-4.95 2.53467,-10.8 3.02599,-13 3.32809,-14.9024 6.27621,-27.23886 8.36417,-35 2.78678,-10.35872 3.76372,-17.54217 6.53771,-48.07183 3.58252,-39.42799 11.09629,-53.98817 28.95187,-56.1029 8.33492,-0.98714 23.8814,5.15506 32.74439,12.93686 6.85187,6.01602 12.35423,19.49399 12.35423,30.26155 0,11.37858 -2.97482,27.7166 -7.44067,40.86499 -6.34517,18.68144 -11.32699,41.80656 -17.0429,79.11133 -1.43262,9.35 -3.5263,21.05 -4.6526,26 -1.12631,4.95 -2.42067,12.6 -2.87636,17 -0.93009,8.98075 -3.95962,24.47444 -6.84366,35 -1.05492,3.85 -2.23154,8.8 -2.61473,11 -0.38318,2.2 -2.19922,8.725 -4.03565,14.5 -1.83642,5.775 -4.70159,15.68206 -6.36706,22.01569 -3.8936,14.80702 -9.26053,27.61541 -18.73702,44.71659 -9.61762,17.35589 -12.08428,20.90901 -18.55305,26.72499 -9.70497,8.72561 -20.5216,12.59868 -34.7964,12.45942 -4.69694,-0.0458 -11.21539,-0.73038 -14.48543,-1.52123 z m 787.4455,-5.51304 c -13.5587,-0.87809 -28.6877,-2.4804 -32.5,-3.44205 -6.602,-1.66534 -15.5966,-8.97521 -20.634,-16.769 -3.9751,-6.15019 -4.5105,-7.619 -10.4012,-28.53039 -1.9148,-6.79746 -3.6998,-12.71218 -3.9666,-13.14384 -0.9234,-1.49417 -6.6466,-36.53704 -7.5121,-45.99714 -0.4781,-5.225 -1.631,-14.225 -2.562,-20 -1.464,-9.0813 -1.6778,-18.53929 -1.5827,-70 0.065,-35.25751 0.5064,-60.84994 1.0827,-62.81325 0.6161,-2.0988 0.6832,-16.39395 0.1831,-39 -0.7335,-33.15785 -0.7085,-85.14926 0.069,-142.68675 0.2965,-21.95535 0.5042,-24.38337 2.4383,-28.5 1.1628,-2.475 3.1939,-5.49102 4.5136,-6.70227 5.1109,-4.69079 16.1546,-7.34971 22.2169,-5.34898 5.0157,1.65533 11.1951,8.79616 13.1589,15.20628 3.8981,12.7237 4.2982,16.15585 5.4022,46.34497 0.6235,17.05 1.6127,35.05 2.1982,40 0.6385,5.39845 1.2262,42.81458 1.4685,93.5 0.4543,95.00711 1.2641,154.81877 2.4168,178.5 0.6683,13.73116 1.23,17.48893 3.9611,26.5 8.3538,27.56265 18.2694,37.20916 41.0496,39.93544 16.0995,1.92676 19.2943,3.6591 23.4374,12.70871 3.1223,6.82001 3.2522,12.29985 0.4299,18.12999 -5.1554,10.64961 -17.2001,13.90009 -44.8673,12.10828 z m -166,-6.41351 c -18.4152,-4.71577 -31.7332,-13.9084 -37.2831,-25.73444 -3.1224,-6.65352 -8.4504,-21.39516 -9.8432,-27.23447 -0.5247,-2.2 -1.6055,-9.175 -2.4018,-15.5 -0.7963,-6.325 -1.8967,-13.75 -2.4453,-16.5 -1.5405,-7.72141 -1.7788,-59.91824 -0.3025,-66.25 0.8964,-3.84429 0.9472,-6.65571 0.1899,-10.5 -0.8245,-4.18552 -3.1991,-43.52436 -3.0031,-49.75 0.026,-0.825 0.2255,-7.35 0.4433,-14.5 0.5963,-19.5733 1.6812,-33.32148 3.1566,-40 2.1411,-9.69224 2.7245,-29.49387 1.532,-52 -0.612,-11.55 -1.3255,-27.075 -1.5856,-34.5 -0.2601,-7.425 -0.8991,-16.425 -1.4201,-20 -1.2175,-8.35545 -4.234,-50.80636 -4.7548,-66.91466 -0.6209,-19.20176 4.2258,-38.72712 11.5242,-46.42692 7.3732,-7.77864 19.2416,-9.47842 29.0202,-4.15623 9.2218,5.01915 12.4809,10.84403 15.73,28.11385 2.6014,13.82693 3.4259,23.00763 4.3904,48.88396 0.8011,21.49088 3.8063,54.55992 5.8471,64.34066 0.9662,4.63064 -0.2843,53.97255 -1.8542,73.15934 -1.5092,18.44626 -1.4248,46.18463 0.1858,61 0.7673,7.05814 1.3056,27.72243 1.3936,53.5 0.079,23.1 0.7,49.2 1.3803,58 0.6803,8.8 1.5807,21.94528 2.001,29.21173 0.7047,12.18333 0.993,13.58445 3.7047,18 4.3032,7.00686 7.9091,8.5473 18.1436,7.75084 7.1761,-0.55845 8.8019,-0.36825 12.5,1.46228 5.0925,2.52074 7.2984,5.35412 8.9364,11.47836 1.6667,6.23184 -0.2248,17.45256 -3.9627,23.50668 -3.2645,5.28748 -10.5282,10.50941 -17.4973,12.57901 -7.8522,2.33186 -22.3484,1.89343 -33.7254,-1.01999 z m 820.5,0.43204 c -12.5354,-0.57764 -13.248,-0.73078 -19.9394,-4.28471 -3.8166,-2.02711 -7.6044,-4.23254 -8.4173,-4.90095 -2.3215,-1.90885 -12.2985,-14.99779 -15.9807,-20.96521 -1.8356,-2.97479 -4.5832,-6.7417 -6.1059,-8.37092 -2.3082,-2.46976 -5.8314,-7.33832 -9.2477,-12.77875 -0.38,-0.60523 -3.1202,-5.72986 -6.0894,-11.38808 l -5.3983,-10.28767 -5.4107,4.37939 c -2.9758,2.40866 -9.2356,6.99865 -13.9106,10.19997 -4.675,3.20132 -12.1,8.82961 -16.5,12.50731 -17.0353,14.23881 -30.947,22.26951 -48.5,27.99714 -12.7179,4.14991 -16.2401,4.87157 -28.6582,5.87163 -8.4246,0.67846 -15.1066,0.7837 -16.5,0.25988 -1.288,-0.48417 -6.3918,-1.41358 -11.3418,-2.06535 -4.95,-0.65177 -12.6,-2.46943 -17,-4.03925 -4.4,-1.56982 -9.8,-3.40616 -12,-4.08075 -4.4365,-1.36037 -8.812,-3.68311 -18.5,-9.82072 -3.575,-2.26486 -9.0361,-5.45204 -12.1357,-7.08262 -3.0997,-1.63059 -7.664,-4.33359 -10.1431,-6.00668 -5.2077,-3.51464 -14.1923,-15.06156 -17.931,-23.04461 -5.9124,-12.6247 -6.6798,-14.72995 -7.108,-19.5 -0.2469,-2.75 -0.9843,-7.025 -1.6387,-9.5 -1.9021,-7.19375 -1.6934,-33.12912 0.338,-42 0.9446,-4.125 2.1054,-9.525 2.5795,-12 2.7878,-14.55338 4.7326,-21.41146 8.224,-29 2.1509,-4.675 4.3483,-9.175 4.883,-10 0.5347,-0.825 1.6424,-2.95822 2.4616,-4.7405 1.2556,-2.73195 10.2342,-13.7498 14.672,-18.00427 4.822,-4.62281 18.3638,-16.7132 23.7984,-21.24763 3.575,-2.98285 8.75,-7.48921 11.5,-10.01413 2.75,-2.52493 7.7,-6.09859 11,-7.94147 3.3,-1.84288 7.125,-4.3716 8.5,-5.61936 3.1172,-2.82877 17.7486,-10.43264 20.0745,-10.43264 0.9473,0 4.2619,-1.33583 7.3656,-2.9685 10.1528,-5.34068 24.5542,-8.98097 39.5599,-9.99972 7.425,-0.50409 15.3802,-1.21981 17.6783,-1.59049 2.654,-0.4281 6.977,-0.0513 11.85,1.03284 4.2195,0.93874 8.5588,1.47486 9.6429,1.19136 3.4924,-0.91328 10.9209,2.07129 30.3288,12.18529 16.2284,8.45706 19.4376,10.51516 22,14.10869 1.65,2.314 5.0577,6.53225 7.5728,9.3739 5.7406,6.48611 15.5157,20.46307 16.9812,24.28066 0.6094,1.58728 3.0912,10.53597 5.5152,19.88597 2.4241,9.35 5.0321,19.25 5.7956,22 0.7636,2.75 1.9614,9.95 2.662,16 0.7005,6.05 2.2892,14.6 3.5305,19 3.208,11.37184 11.2715,34.58973 12.8491,36.99743 0.7322,1.11755 1.6653,3.6003 2.0735,5.51724 1.918,9.00755 14.0998,35.45161 17.7447,38.51987 7.6283,6.42159 18.739,5.91113 33.2631,-1.52822 10.5884,-5.42352 12.9158,-5.85777 18.1309,-3.38303 4.7528,2.25536 7.2319,6.17725 8.9097,14.09516 2.5993,12.26687 2.6195,12.2081 -7.9462,23.08568 -5.1799,5.33273 -12.0424,11.24479 -15.25,13.13792 -3.2077,1.89312 -9.1863,5.60562 -13.2858,8.25 -4.0995,2.64437 -8.0594,4.80795 -8.7997,4.80795 -0.7402,0 -2.7861,0.75094 -4.5463,1.66875 -4.7861,2.49565 -8.898,2.89126 -23.2003,2.2322 z m -188.5,-78.16212 c 4.125,-1.33815 11.325,-4.36754 16,-6.73198 4.675,-2.36444 9.85,-4.9843 11.5,-5.82191 1.65,-0.83762 7.1343,-4.25939 12.1872,-7.60394 5.053,-3.34455 12.0017,-7.656 15.4415,-9.581 16.4089,-9.18273 27.5707,-20.93534 31.5889,-33.26086 1.2553,-3.85051 2.2824,-8.4827 2.2824,-10.29375 0,-1.81104 0.4407,-5.46464 0.9793,-8.1191 4.2393,-20.89242 5.0834,-35.15878 2.5881,-43.7423 -1.7758,-6.10871 -3.8471,-8.20502 -12.5674,-12.71919 l -6.5,-3.3648 h -18 c -15.3018,0 -18.4831,0.26407 -21.2228,1.76163 -1.7726,0.9689 -6.5805,2.40407 -10.6844,3.18926 -6.8528,1.31116 -16.6526,5.57416 -23.9018,10.39753 -8.544,5.68481 -39.2516,35.97814 -49.4549,48.78768 -7.0562,8.85863 -9.8702,15.33739 -11.4908,26.45616 -1.6412,11.26079 0.5445,21.52107 6.4049,30.06564 2.3924,3.48816 5.0248,8.07416 5.8498,10.19112 1.32,3.38725 2.6397,4.44378 11,8.8066 l 9.5,4.95759 10.5,-0.47069 c 7.3538,-0.32965 12.7473,-1.19971 18,-2.90369 z m -310.238,-203.80243 c 5.094,-1.61502 9.864,-2.9364 10.5998,-2.9364 2.1125,0 29.2584,-9.34386 38.6382,-13.2996 4.675,-1.97159 13.3731,-4.98904 19.3291,-6.70544 5.9561,-1.7164 16.8602,-5.79243 24.2314,-9.05784 7.3712,-3.26542 13.6477,-5.93712 13.9477,-5.93712 0.3,0 5.3799,-2.39026 11.2887,-5.31168 5.9088,-2.92143 15.4592,-6.77454 21.2232,-8.56248 14.5469,-4.51235 14.4753,-4.48651 23.9799,-8.65187 4.675,-2.0488 13.9,-5.61435 20.5,-7.92344 11.1862,-3.91364 25.2182,-10.2418 28.2032,-12.71921 1.7386,-1.44287 1.6412,-4.30062 -0.1986,-5.8275 -0.8225,-0.68259 -2.0012,-2.92929 -2.6194,-4.99266 -4.1087,-13.71355 -39.9944,-38.21304 -59.3852,-40.54274 -3.3,-0.39648 -6.9,-0.92939 -8,-1.18424 -2.541,-0.58872 -27.5221,-0.38853 -28.5206,0.22855 -0.4107,0.25382 -3.8366,0.89972 -7.6132,1.43534 -8.3223,1.18032 -25.5429,6.36864 -30.1392,9.08052 -1.8377,1.08428 -3.8278,1.97141 -4.4223,1.97141 -0.5946,0 -3.1564,1.83523 -5.6929,4.07829 -16.2291,14.35161 -20.4294,18.23884 -27.4598,25.41309 -8.3775,8.549 -16.7771,18.36062 -22.9512,26.8096 -2.0896,2.85946 -5.3258,6.77402 -7.1916,8.69902 -1.8659,1.925 -4.9655,6.69284 -6.888,10.59521 -1.9226,3.90236 -6.8963,12.13881 -11.0527,18.30321 -4.1564,6.1644 -7.8595,12.42156 -8.2291,13.90479 -0.3696,1.48324 -1.4873,4.49679 -2.4837,6.69679 -0.9965,2.2 -1.8217,5.20899 -1.8337,6.68664 -0.019,2.28167 0.4679,2.7518 3.228,3.11892 4.8455,0.64448 9.2522,-0.11644 19.512,-3.36916 z m 53.3974,-53.53731 c -3.2978,-2.30988 -4.4465,-5.99917 -3.1196,-10.01956 1.14,-3.45448 9.2173,-11.37953 11.5981,-11.37953 0.746,0 3.1128,-1.58689 5.2597,-3.52643 2.1468,-1.93954 7.6372,-5.35107 12.2008,-7.58118 9.0332,-4.41433 12.8453,-5.05887 38.0379,-6.43139 11.9667,-0.65196 12.7469,-0.57779 14.7245,1.39984 2.7048,2.70476 3.5038,6.05008 2.2393,9.37589 -1.8705,4.91975 -4.3927,5.65577 -23.6579,6.9038 -16.6949,1.08153 -18.3593,1.36941 -23.9422,4.14126 -3.3,1.63841 -7.5423,4.32656 -9.4273,5.97366 -1.885,1.64711 -4.9136,3.6158 -6.7303,4.37486 -1.8167,0.75907 -3.9933,2.43342 -4.8368,3.72078 -2.8938,4.41651 -8.4382,5.78529 -12.3462,3.048 z"
       id="path837" />
  </g>
</svg>
