<?xml version="1.0" encoding="UTF-8" standalone="no"?>
<!-- Created with Inkscape (http://www.inkscape.org/) -->

<svg
   width="609.54999mm"
   height="182.70215mm"
   viewBox="0 0 609.54999 182.70215"
   version="1.1"
   id="svg5"
   inkscape:version="1.1.1 (3bf5ae0d25, 2021-09-20)"
   sodipodi:docname="walleat_logo_white.svg"
   xmlns:inkscape="http://www.inkscape.org/namespaces/inkscape"
   xmlns:sodipodi="http://sodipodi.sourceforge.net/DTD/sodipodi-0.dtd"
   xmlns="http://www.w3.org/2000/svg"
   xmlns:svg="http://www.w3.org/2000/svg">
  <sodipodi:namedview
     id="namedview7"
     pagecolor="#ffffff"
     bordercolor="#666666"
     borderopacity="1.0"
     inkscape:pageshadow="2"
     inkscape:pageopacity="0.0"
     inkscape:pagecheckerboard="true"
     inkscape:document-units="mm"
     showgrid="false"
     fit-margin-top="0"
     fit-margin-left="0"
     fit-margin-right="0"
     fit-margin-bottom="0"
     inkscape:zoom="0.32026164"
     inkscape:cx="1600.2541"
     inkscape:cy="304.43858"
     inkscape:window-width="1920"
     inkscape:window-height="1137"
     inkscape:window-x="-8"
     inkscape:window-y="-8"
     inkscape:window-maximized="1"
     inkscape:current-layer="layer1" />
  <defs
     id="defs2">
    <inkscape:path-effect
       effect="fillet_chamfer"
       id="path-effect3266"
       is_visible="true"
       lpeversion="1"
       satellites_param="F,0,0,1,0,16,0,1 @ F,0,0,1,0,16,0,1 @ F,0,0,1,0,16,0,1 @ F,0,0,1,0,16,0,1"
       unit="mm"
       method="auto"
       mode="F"
       radius="16"
       chamfer_steps="1"
       flexible="false"
       use_knot_distance="true"
       apply_no_radius="true"
       apply_with_radius="true"
       only_selected="false"
       hide_knots="false" />
    <marker
       style="overflow:visible"
       id="marker1414"
       refX="0"
       refY="0"
       orient="auto"
       inkscape:stockid="Arrow1Lstart"
       inkscape:isstock="true">
      <path
         transform="matrix(0.8,0,0,0.8,10,0)"
         style="fill:#000000;fill-opacity:1;fill-rule:evenodd;stroke:none;stroke-width:1pt;stroke-opacity:1"
         d="M 0,0 5,-5 -12.5,0 5,5 Z"
         id="path1412" />
    </marker>
    <marker
       style="overflow:visible"
       id="marker1362"
       refX="0"
       refY="0"
       orient="auto"
       inkscape:stockid="Arrow1Lstart"
       inkscape:isstock="true">
      <path
         transform="matrix(0.8,0,0,0.8,10,0)"
         style="fill:#000000;fill-opacity:1;fill-rule:evenodd;stroke:none;stroke-width:1pt;stroke-opacity:1"
         d="M 0,0 5,-5 -12.5,0 5,5 Z"
         id="path1360" />
    </marker>
    <marker
       style="overflow:visible"
       id="marker1316"
       refX="0"
       refY="0"
       orient="auto"
       inkscape:stockid="Arrow1Lstart"
       inkscape:isstock="true">
      <path
         transform="matrix(0.8,0,0,0.8,10,0)"
         style="fill:#000000;fill-opacity:1;fill-rule:evenodd;stroke:none;stroke-width:1pt;stroke-opacity:1"
         d="M 0,0 5,-5 -12.5,0 5,5 Z"
         id="path1314" />
    </marker>
    <marker
       style="overflow:visible"
       id="marker1276"
       refX="0"
       refY="0"
       orient="auto"
       inkscape:stockid="Arrow1Lstart"
       inkscape:isstock="true">
      <path
         transform="matrix(0.8,0,0,0.8,10,0)"
         style="fill:#000000;fill-opacity:1;fill-rule:evenodd;stroke:none;stroke-width:1pt;stroke-opacity:1"
         d="M 0,0 5,-5 -12.5,0 5,5 Z"
         id="path1274" />
    </marker>
    <marker
       style="overflow:visible"
       id="marker1242"
       refX="0"
       refY="0"
       orient="auto"
       inkscape:stockid="Arrow1Lstart"
       inkscape:isstock="true">
      <path
         transform="matrix(0.8,0,0,0.8,10,0)"
         style="fill:#000000;fill-opacity:1;fill-rule:evenodd;stroke:none;stroke-width:1pt;stroke-opacity:1"
         d="M 0,0 5,-5 -12.5,0 5,5 Z"
         id="path1240" />
    </marker>
    <marker
       style="overflow:visible"
       id="marker1214"
       refX="0"
       refY="0"
       orient="auto"
       inkscape:stockid="Arrow1Lstart"
       inkscape:isstock="true">
      <path
         transform="matrix(0.8,0,0,0.8,10,0)"
         style="fill:#000000;fill-opacity:1;fill-rule:evenodd;stroke:none;stroke-width:1pt;stroke-opacity:1"
         d="M 0,0 5,-5 -12.5,0 5,5 Z"
         id="path1212" />
    </marker>
    <marker
       style="overflow:visible"
       id="marker1192"
       refX="0"
       refY="0"
       orient="auto"
       inkscape:stockid="Arrow1Lstart"
       inkscape:isstock="true">
      <path
         transform="matrix(0.8,0,0,0.8,10,0)"
         style="fill:#000000;fill-opacity:1;fill-rule:evenodd;stroke:none;stroke-width:1pt;stroke-opacity:1"
         d="M 0,0 5,-5 -12.5,0 5,5 Z"
         id="path1190" />
    </marker>
    <marker
       style="overflow:visible"
       id="Arrow1Lstart"
       refX="0"
       refY="0"
       orient="auto"
       inkscape:stockid="Arrow1Lstart"
       inkscape:isstock="true">
      <path
         transform="matrix(0.8,0,0,0.8,10,0)"
         style="fill:#000000;fill-opacity:1;fill-rule:evenodd;stroke:none;stroke-width:1pt;stroke-opacity:1"
         d="M 0,0 5,-5 -12.5,0 5,5 Z"
         id="path914" />
    </marker>
    <inkscape:path-effect
       effect="fillet_chamfer"
       id="path-effect912"
       is_visible="true"
       lpeversion="1"
       satellites_param="F,0,0,1,0,16,0,1 @ F,0,0,1,0,16,0,1 @ F,0,0,1,0,16,0,1 @ F,0,0,1,0,16,0,1"
       unit="mm"
       method="auto"
       mode="F"
       radius="16"
       chamfer_steps="1"
       flexible="false"
       use_knot_distance="true"
       apply_no_radius="true"
       apply_with_radius="true"
       only_selected="false"
       hide_knots="false" />
    <clipPath
       clipPathUnits="userSpaceOnUse"
       id="clipPath1532">
      <path
         style="opacity:0.5;fill:#000000;fill-opacity:1;stroke:#000000;stroke-width:0.264583px;stroke-linecap:butt;stroke-linejoin:miter;stroke-opacity:1"
         d="m -26.458333,356.80952 -77.107137,-5.29167 -142.875,5.29167 -73.32738,19.65475 -7.55954,24.94646 27.2143,79.375 24.19048,15.875 263.827372,4.53569 23.05835,7.74314 6.4606,5.02711 5.443847,6.88451 38.175597,2.17337 16.819938,-3.68528 3.427635,-5.3726 11.535312,-5.02708 L 233.7272,506.74302 202.59524,365.88094 -4.9136906,351.51785 Z"
         id="path1534" />
    </clipPath>
    <marker
       style="overflow:visible"
       id="marker1414-1"
       refX="0"
       refY="0"
       orient="auto"
       inkscape:stockid="Arrow1Lstart"
       inkscape:isstock="true">
      <path
         transform="matrix(0.8,0,0,0.8,10,0)"
         style="fill:#000000;fill-opacity:1;fill-rule:evenodd;stroke:none;stroke-width:1pt;stroke-opacity:1"
         d="M 0,0 5,-5 -12.5,0 5,5 Z"
         id="path1412-2" />
    </marker>
    <marker
       style="overflow:visible"
       id="marker1362-1"
       refX="0"
       refY="0"
       orient="auto"
       inkscape:stockid="Arrow1Lstart"
       inkscape:isstock="true">
      <path
         transform="matrix(0.8,0,0,0.8,10,0)"
         style="fill:#000000;fill-opacity:1;fill-rule:evenodd;stroke:none;stroke-width:1pt;stroke-opacity:1"
         d="M 0,0 5,-5 -12.5,0 5,5 Z"
         id="path1360-3" />
    </marker>
    <marker
       style="overflow:visible"
       id="marker1316-3"
       refX="0"
       refY="0"
       orient="auto"
       inkscape:stockid="Arrow1Lstart"
       inkscape:isstock="true">
      <path
         transform="matrix(0.8,0,0,0.8,10,0)"
         style="fill:#000000;fill-opacity:1;fill-rule:evenodd;stroke:none;stroke-width:1pt;stroke-opacity:1"
         d="M 0,0 5,-5 -12.5,0 5,5 Z"
         id="path1314-1" />
    </marker>
    <marker
       style="overflow:visible"
       id="marker1276-7"
       refX="0"
       refY="0"
       orient="auto"
       inkscape:stockid="Arrow1Lstart"
       inkscape:isstock="true">
      <path
         transform="matrix(0.8,0,0,0.8,10,0)"
         style="fill:#000000;fill-opacity:1;fill-rule:evenodd;stroke:none;stroke-width:1pt;stroke-opacity:1"
         d="M 0,0 5,-5 -12.5,0 5,5 Z"
         id="path1274-6" />
    </marker>
    <marker
       style="overflow:visible"
       id="marker1242-0"
       refX="0"
       refY="0"
       orient="auto"
       inkscape:stockid="Arrow1Lstart"
       inkscape:isstock="true">
      <path
         transform="matrix(0.8,0,0,0.8,10,0)"
         style="fill:#000000;fill-opacity:1;fill-rule:evenodd;stroke:none;stroke-width:1pt;stroke-opacity:1"
         d="M 0,0 5,-5 -12.5,0 5,5 Z"
         id="path1240-8" />
    </marker>
    <marker
       style="overflow:visible"
       id="marker1214-9"
       refX="0"
       refY="0"
       orient="auto"
       inkscape:stockid="Arrow1Lstart"
       inkscape:isstock="true">
      <path
         transform="matrix(0.8,0,0,0.8,10,0)"
         style="fill:#000000;fill-opacity:1;fill-rule:evenodd;stroke:none;stroke-width:1pt;stroke-opacity:1"
         d="M 0,0 5,-5 -12.5,0 5,5 Z"
         id="path1212-0" />
    </marker>
    <marker
       style="overflow:visible"
       id="marker1192-6"
       refX="0"
       refY="0"
       orient="auto"
       inkscape:stockid="Arrow1Lstart"
       inkscape:isstock="true">
      <path
         transform="matrix(0.8,0,0,0.8,10,0)"
         style="fill:#000000;fill-opacity:1;fill-rule:evenodd;stroke:none;stroke-width:1pt;stroke-opacity:1"
         d="M 0,0 5,-5 -12.5,0 5,5 Z"
         id="path1190-9" />
    </marker>
    <marker
       style="overflow:visible"
       id="Arrow1Lstart-1"
       refX="0"
       refY="0"
       orient="auto"
       inkscape:stockid="Arrow1Lstart"
       inkscape:isstock="true">
      <path
         transform="matrix(0.8,0,0,0.8,10,0)"
         style="fill:#000000;fill-opacity:1;fill-rule:evenodd;stroke:none;stroke-width:1pt;stroke-opacity:1"
         d="M 0,0 5,-5 -12.5,0 5,5 Z"
         id="path914-7" />
    </marker>
    <clipPath
       clipPathUnits="userSpaceOnUse"
       id="clipPath1532-8">
      <path
         style="opacity:0.5;fill:#000000;fill-opacity:1;stroke:#000000;stroke-width:0.264583px;stroke-linecap:butt;stroke-linejoin:miter;stroke-opacity:1"
         d="m -26.458333,356.80952 -77.107137,-5.29167 -142.875,5.29167 -73.32738,19.65475 -7.55954,24.94646 27.2143,79.375 24.19048,15.875 263.827372,4.53569 23.05835,7.74314 6.4606,5.02711 5.443847,6.88451 38.175597,2.17337 16.819938,-3.68528 3.427635,-5.3726 11.535312,-5.02708 L 233.7272,506.74302 202.59524,365.88094 -4.9136906,351.51785 Z"
         id="path1534-2" />
    </clipPath>
    <marker
       style="overflow:visible"
       id="marker1414-5"
       refX="0"
       refY="0"
       orient="auto"
       inkscape:stockid="Arrow1Lstart"
       inkscape:isstock="true">
      <path
         transform="matrix(0.8,0,0,0.8,10,0)"
         style="fill:#000000;fill-opacity:1;fill-rule:evenodd;stroke:none;stroke-width:1pt;stroke-opacity:1"
         d="M 0,0 5,-5 -12.5,0 5,5 Z"
         id="path1412-20" />
    </marker>
    <marker
       style="overflow:visible"
       id="marker1362-5"
       refX="0"
       refY="0"
       orient="auto"
       inkscape:stockid="Arrow1Lstart"
       inkscape:isstock="true">
      <path
         transform="matrix(0.8,0,0,0.8,10,0)"
         style="fill:#000000;fill-opacity:1;fill-rule:evenodd;stroke:none;stroke-width:1pt;stroke-opacity:1"
         d="M 0,0 5,-5 -12.5,0 5,5 Z"
         id="path1360-7" />
    </marker>
    <marker
       style="overflow:visible"
       id="marker1316-4"
       refX="0"
       refY="0"
       orient="auto"
       inkscape:stockid="Arrow1Lstart"
       inkscape:isstock="true">
      <path
         transform="matrix(0.8,0,0,0.8,10,0)"
         style="fill:#000000;fill-opacity:1;fill-rule:evenodd;stroke:none;stroke-width:1pt;stroke-opacity:1"
         d="M 0,0 5,-5 -12.5,0 5,5 Z"
         id="path1314-19" />
    </marker>
    <marker
       style="overflow:visible"
       id="marker1276-6"
       refX="0"
       refY="0"
       orient="auto"
       inkscape:stockid="Arrow1Lstart"
       inkscape:isstock="true">
      <path
         transform="matrix(0.8,0,0,0.8,10,0)"
         style="fill:#000000;fill-opacity:1;fill-rule:evenodd;stroke:none;stroke-width:1pt;stroke-opacity:1"
         d="M 0,0 5,-5 -12.5,0 5,5 Z"
         id="path1274-9" />
    </marker>
    <marker
       style="overflow:visible"
       id="marker1242-4"
       refX="0"
       refY="0"
       orient="auto"
       inkscape:stockid="Arrow1Lstart"
       inkscape:isstock="true">
      <path
         transform="matrix(0.8,0,0,0.8,10,0)"
         style="fill:#000000;fill-opacity:1;fill-rule:evenodd;stroke:none;stroke-width:1pt;stroke-opacity:1"
         d="M 0,0 5,-5 -12.5,0 5,5 Z"
         id="path1240-7" />
    </marker>
    <marker
       style="overflow:visible"
       id="marker1214-1"
       refX="0"
       refY="0"
       orient="auto"
       inkscape:stockid="Arrow1Lstart"
       inkscape:isstock="true">
      <path
         transform="matrix(0.8,0,0,0.8,10,0)"
         style="fill:#000000;fill-opacity:1;fill-rule:evenodd;stroke:none;stroke-width:1pt;stroke-opacity:1"
         d="M 0,0 5,-5 -12.5,0 5,5 Z"
         id="path1212-3" />
    </marker>
    <marker
       style="overflow:visible"
       id="marker1192-3"
       refX="0"
       refY="0"
       orient="auto"
       inkscape:stockid="Arrow1Lstart"
       inkscape:isstock="true">
      <path
         transform="matrix(0.8,0,0,0.8,10,0)"
         style="fill:#000000;fill-opacity:1;fill-rule:evenodd;stroke:none;stroke-width:1pt;stroke-opacity:1"
         d="M 0,0 5,-5 -12.5,0 5,5 Z"
         id="path1190-8" />
    </marker>
    <marker
       style="overflow:visible"
       id="Arrow1Lstart-7"
       refX="0"
       refY="0"
       orient="auto"
       inkscape:stockid="Arrow1Lstart"
       inkscape:isstock="true">
      <path
         transform="matrix(0.8,0,0,0.8,10,0)"
         style="fill:#000000;fill-opacity:1;fill-rule:evenodd;stroke:none;stroke-width:1pt;stroke-opacity:1"
         d="M 0,0 5,-5 -12.5,0 5,5 Z"
         id="path914-3" />
    </marker>
    <clipPath
       clipPathUnits="userSpaceOnUse"
       id="clipPath1532-7">
      <path
         style="opacity:0.5;fill:#000000;fill-opacity:1;stroke:#000000;stroke-width:0.264583px;stroke-linecap:butt;stroke-linejoin:miter;stroke-opacity:1"
         d="m -26.458333,356.80952 -77.107137,-5.29167 -142.875,5.29167 -73.32738,19.65475 -7.55954,24.94646 27.2143,79.375 24.19048,15.875 263.827372,4.53569 23.05835,7.74314 6.4606,5.02711 5.443847,6.88451 38.175597,2.17337 16.819938,-3.68528 3.427635,-5.3726 11.535312,-5.02708 L 233.7272,506.74302 202.59524,365.88094 -4.9136906,351.51785 Z"
         id="path1534-9" />
    </clipPath>
    <clipPath
       clipPathUnits="userSpaceOnUse"
       id="clipPath1532-7-3">
      <path
         style="opacity:0.5;fill:#000000;fill-opacity:1;stroke:#000000;stroke-width:0.264583px;stroke-linecap:butt;stroke-linejoin:miter;stroke-opacity:1"
         d="m -26.458333,356.80952 -77.107137,-5.29167 -142.875,5.29167 -73.32738,19.65475 -7.55954,24.94646 27.2143,79.375 24.19048,15.875 263.827372,4.53569 23.05835,7.74314 6.4606,5.02711 5.443847,6.88451 38.175597,2.17337 16.819938,-3.68528 3.427635,-5.3726 11.535312,-5.02708 L 233.7272,506.74302 202.59524,365.88094 -4.9136906,351.51785 Z"
         id="path1534-9-6" />
    </clipPath>
  </defs>
  <g
     inkscape:label="Layer 1"
     inkscape:groupmode="layer"
     id="layer1"
     transform="translate(169.00426,-62.644441)">
    <g
       id="g5594"
       transform="matrix(0.97695922,0,0,0.95930356,1.6838493,7.8680658)">
      <g
         id="g5589">
        <path
           style="fill:none;stroke:#ffffff;stroke-width:6.3;stroke-linejoin:round;stroke-miterlimit:4;stroke-dasharray:none;stroke-opacity:1"
           id="rect910-1"
           width="603.25"
           height="168.57738"
           x="-165.85426"
           y="65.794441"
           inkscape:path-effect="#path-effect3266"
           sodipodi:type="rect"
           d="m -149.85426,65.794441 h 571.25 a 16,16 45 0 1 16,16 l 0,136.577379 a 16,16 135 0 1 -16,16 h -571.25 a 16,16 45 0 1 -16,-16 l 0,-136.577379 a 16,16 135 0 1 16,-16 z" />
        <path
           style="fill:#ffffff;fill-opacity:1;stroke-width:1.30542;stroke-miterlimit:4;stroke-dasharray:none"
           d="m 47.701782,522.01386 c -0.3638,-0.0637 -1.36181,-0.24263 -2.21777,-0.39756 -0.85598,-0.15493 -2.89687,-0.38279 -4.5353,-0.50635 -3.59719,-0.27129 -8.14546,-1.2507 -12.42922,-2.67647 -1.74625,-0.58121 -4.06797,-1.29592 -5.15938,-1.58826 -1.09469,-0.29321 -2.87031,-1.05765 -3.96039,-1.70503 l -1.97601,-1.17353 H -168.67028 c -127.77332,0 -186.25438,-0.0858 -186.60576,-0.27389 -0.28148,-0.15064 -0.51178,-0.38085 -0.51178,-0.51159 0,-0.13073 -0.35773,-0.81316 -0.79496,-1.51652 l -0.79497,-1.27883 0.0674,-85.21068 0.0674,-85.21069 0.71014,-1.07309 c 0.42778,-0.64642 1.17111,-1.29624 1.86947,-1.63432 l 1.15933,-0.56122 h 299.010702 c 207.986158,0 299.232908,0.0845 299.740618,0.27751 0.99608,0.37871 2.44605,1.79039 2.89941,2.82285 0.31956,0.72772 0.37388,13.19267 0.37388,85.80962 v 84.95822 l -0.78846,1.14599 c -0.47437,0.68949 -1.24542,1.3672 -1.93561,1.70131 l -1.14715,0.55533 H 162.97004 81.290732 l -1.91164,0.96288 c -1.05138,0.52958 -2.50693,1.17384 -3.23453,1.43168 -0.72761,0.25784 -2.75167,1.02425 -4.49792,1.70312 -4.95345,1.92572 -7.76954,2.66461 -11.64167,3.05456 -1.30968,0.13189 -3.45281,0.36239 -4.7625,0.51222 -3.03207,0.34687 -6.68644,0.53236 -7.54062,0.38274 z M 10.409502,508.2358 c -0.30446,-0.38708 -1.2358501,-1.20491 -2.0697101,-1.81741 -2.70219,-1.9848 -7.92461,-8.23423 -10.05871,-12.03676 -0.45099,-0.80359 -1.13602,-1.75609 -1.52228,-2.11667 -0.38624,-0.36057 -0.93668,-1.11274 -1.22317,-1.67148 -0.28647,-0.55874 -0.91829,-1.57077 -1.40401,-2.24896 -0.48575,-0.67819 -1.17634,-1.76885 -1.53469,-2.42369 -0.35836,-0.65484 -1.26275,-2.29816 -2.00981,-3.65181 -0.7470499,-1.35365 -1.3582599,-2.57895 -1.3582599,-2.7229 0,-0.14394 -0.47625,-1.23334 -1.05833,-2.42089 -0.58209,-1.18754 -1.05834,-2.47732 -1.05834,-2.86617 0,-0.38885 -0.2908,-1.22801 -0.64622,-1.8648 -0.35541,-0.63679 -0.77552,-1.75312 -0.93355,-2.48072 -0.15804,-0.7276 -0.6889,-2.39448 -1.17967,-3.70417 -0.83455,-2.22707 -3.17006,-9.26707 -3.86207,-11.64166 -0.16965,-0.58209 -0.41429,-3.14193 -0.54364,-5.68855 -0.12936,-2.54661 -0.31126,-5.66797 -0.40418,-6.93635 -0.20725,-2.82794 0.33539,-9.1173 0.85,-9.85199 0.20312,-0.29003 0.36933,-1.0801 0.36933,-1.75572 0,-1.48365 0.94917,-8.64293 1.33665,-10.08191 0.1524,-0.56597 0.39209,-2.041 0.53261,-3.27784 0.14054,-1.23683 0.48334,-2.92859 0.76179,-3.75947 0.27842,-0.83087 0.5892,-2.16311 0.69058,-2.96054 0.26575,-2.0902 0.7493,-3.2888 2.35043,-5.82617 1.50508,-2.38517 5.9319099,-10.92649 6.7474599,-13.01892 0.26688,-0.68472 0.7412,-1.57769 1.05402,-1.98437 0.55991,-0.72789 2.31595,-3.42048 3.94438,-6.04805 0.4567,-0.73693 1.61018,-2.10615 2.56326,-3.0427 0.95308,-0.93656 1.89997,-2.0005 2.10418,-2.3643 0.20418,-0.3638 1.71812,-2.04472 3.36431,-3.73537 2.34878,-2.41224 3.33475,-3.23099 4.5805401,-3.80363 0.87313,-0.40134 3.61881,-2.08187 6.10151,-3.73451 4.4659,-2.97276 8.7631,-5.11178 11.15533,-5.55279 0.54967,-0.10133 1.43404,-0.336 1.96525,-0.52147 0.5312,-0.18548 2.71158,-0.6017 4.84529,-0.92493 3.70456,-0.56119 4.15602,-0.57382 10.01437,-0.28014 3.3742,0.16915 6.93748,0.47722 7.91837,0.6846 1.8048,0.38158 4.09506,1.50548 6.89724,3.38468 0.84532,0.56688 2.45266,1.46079 3.57187,1.98646 2.6991,1.26769 5.72728,3.14693 8.41923,5.22485 1.20915,0.93334 2.70812,1.95343 3.33102,2.26688 0.62294,0.31346 2.08511,1.54161 3.24927,2.72924 1.16417,1.18763 2.71198,2.59151 3.43959,3.11972 0.7276,0.52822 1.62057,1.28172 1.98437,1.67444 0.3638,0.39273 1.25836,0.97986 1.98792,1.30473 4.41479,1.9659 5.34705,6.69513 2.45097,12.43341 -1.62772,3.22521 -4.19682,5.10233 -10.5243,7.68965 -1.67349,0.68429 -4.65006,2.11645 -6.61459,3.18258 -5.1258,2.7817 -15.18991,7.08633 -20.10833,8.60075 -1.52797,0.47048 -3.9097,1.36148 -5.29273,1.98001 -1.38303,0.61853 -3.82381,1.54295 -5.42396,2.05426 -1.60014,0.51131 -4.39764,1.64817 -6.21665,2.52633 -1.81901,0.87817 -4.43838,1.96659 -5.82083,2.41871 -1.38245,0.45212 -5.22115,2.18887 -8.53046,3.85945 -3.3093,1.67058 -6.94071,3.37858 -8.06979,3.79555 -1.12908,0.41698 -3.1244401,1.31165 -4.4341301,1.98816 -1.30968,0.67651 -3.18732,1.47617 -4.17253,1.77702 -0.98523,0.30084 -1.89468,0.74302 -2.02102,0.98261 -0.31718,0.60151 0.13812,3.12819 1.29429,7.1825 2.3164,8.12284 2.90621,10.111 3.41448,11.50938 0.68426,1.88268 1.86854,6.13462 2.98455,10.71562 0.72096,2.95931 3.0423101,10.72003 3.7196401,12.43542 0.14365,0.3638 0.43215,1.3163 0.64109,2.11666 0.5116,1.95951 2.65549,6.94756 5.05021,11.74986 1.93212,3.87465 2.01631,3.99202 4.74527,6.61458 5.28593,5.07981 8.55599,6.82404 18.21069,9.71345 2.21867,0.66399 3.2225,0.80955 6.21771,0.90156 1.96453,0.0604 4.54877,0.17841 5.74276,0.26235 2.30039,0.16173 4.39494,-0.11572 7.22182,-0.95663 0.94589,-0.28137 1.81579,-0.50986 1.93308,-0.50775 0.11731,0.002 1.427,-0.5222 2.91041,-1.16514 1.48344,-0.64293 3.41151,-1.37425 4.28464,-1.62516 0.87313,-0.2509 2.30188,-0.78662 3.175,-1.19048 0.87313,-0.40386 2.65906,-1.18248 3.96875,-1.73027 1.30969,-0.54778 2.91703,-1.34248 3.57188,-1.76599 2.19458,-1.41932 10.07165,-6.01288 10.31091,-6.01288 0.13007,0 1.29887,-0.53578 2.59729,-1.19062 2.52343,-1.27265 3.88945,-1.48254 5.94082,-0.91283 0.92056,0.25566 3.252018,2.0044 3.709348,2.78226 0.1106,0.18812 0.50713,1.51132 0.88117,2.94046 0.98115,3.74892 0.68784,5.08149 -1.33287,6.05496 -0.44426,0.21402 -1.81975,1.12404 -3.056668,2.02228 -1.23693,0.89823 -3.13905,2.14632 -4.22693,2.77353 l -1.97798,1.14038 h 73.492788 c 46.00535,0 73.6123,-0.094 73.81235,-0.2513 1.51069,-1.188 2.55495,-2.25278 2.80527,-2.86041 0.22,-0.534 0.28038,-21.78984 0.22937,-80.7612 l -0.0693,-80.03646 -0.54348,-0.92514 c -0.2989,-0.50883 -0.9416,-1.19344 -1.42816,-1.52136 l -0.88474,-0.59621 H -54.501418 -151.94643 -349.24307 l -0.87235,0.53914 c -0.47979,0.29653 -1.11892,1.0485 -1.42029,1.67104 l -0.54794,1.13189 v 80.76703 80.76702 l 0.81512,0.75203 c 0.44832,0.41361 0.95433,0.87475 1.12448,1.02475 0.21172,0.18665 57.24706,0.2769 180.70826,0.28595 l 180.398902,0.0132 z m 206.176348,-3.01515 c -1.82694,-0.71883 -3.9742,-2.6841 -4.74787,-4.3455 -1.39361,-2.99272 -0.56456,-6.62528 2.0482,-8.97437 3.45329,-3.1048 9.10997,-3.08741 12.45158,0.0383 1.83002,1.71177 2.60424,3.42078 2.60101,5.74153 -0.004,3.19305 -1.74479,5.84871 -4.7599,7.26317 -2.00811,0.94205 -5.57216,1.07202 -7.59302,0.27689 z m 6.66004,-2.14254 0.78682,-0.35624 -1.1503,-0.13229 c -1.09784,-0.12626 -1.17388,-0.19264 -1.66722,-1.45521 -0.64225,-1.64366 -1.17306,-2.24896 -1.97213,-2.24896 -0.59179,0 -0.62044,0.0856 -0.62044,1.85209 v 1.85208 h -1.06432 -1.06428 l 0.0721,-4.82865 0.0721,-4.82864 1.85208,-0.0814 c 2.43235,-0.10695 3.38686,0.0922 4.35785,0.90923 1.07331,0.90313 1.147,2.68724 0.15211,3.68214 -0.35719,0.35719 -0.77997,0.64943 -0.93951,0.64943 -0.15954,0 0.0138,0.3982 0.38484,0.88487 0.37121,0.48668 0.67492,0.9478 0.67492,1.0247 0,0.0769 0.24895,0.70265 0.55325,1.39053 l 0.55324,1.25069 0.80407,-0.75404 c 3.98383,-3.73595 1.02994,-10.12384 -4.68868,-10.13946 -2.09034,-0.006 -3.31386,0.35854 -4.68966,1.39617 -2.08865,1.57522 -2.88981,4.39787 -1.91231,6.73737 1.35787,3.24982 5.9649,4.79865 9.50545,3.19562 z m -2.30089,-6.19207 c 1.25486,-0.87895 0.40891,-2.49854 -1.30506,-2.49854 h -1.01732 v 1.45521 1.4552 h 0.86717 c 0.47694,0 1.13178,-0.18534 1.45521,-0.41187 z m -31.16197,-4.78109 c -0.21828,-0.0683 -1.23031,-0.371 -2.24896,-0.67276 -3.25829,-0.96523 -7.31099,-3.05589 -8.8928,-4.5875 -3.04239,-2.94584 -7.47668,-9.74559 -8.53938,-13.09469 -2.10399,-6.63079 -2.51753,-8.38314 -3.09081,-13.09688 -0.5662,-4.65587 -0.82761,-6.69135 -1.07031,-8.33437 -0.13973,-0.94589 -0.29853,-2.4937 -0.35293,-3.43959 -0.0544,-0.94588 -0.28901,-2.51578 -0.52136,-3.48867 -0.32393,-1.35618 -0.45757,-3.8555 -0.57275,-10.71232 -0.0826,-4.91889 -0.26093,-9.07685 -0.39626,-9.23991 -0.13534,-0.16306 -0.98444,-0.37364 -1.88688,-0.46797 -0.90247,-0.0943 -1.7531,-0.28376 -1.89032,-0.42097 -0.14179,-0.14179 -1.34583,-0.18912 -2.78971,-0.10965 -1.77885,0.0979 -3.21432,0.01 -4.7892,-0.29397 -1.23692,-0.23857 -3.11552,-0.59587 -4.17467,-0.79398 -3.08433,-0.57693 -4.97631,-1.97395 -5.65161,-4.1731 -0.14504,-0.47236 -0.25638,-1.90661 -0.24744,-3.18722 0.0177,-2.53199 0.60421,-4.4104 1.69789,-5.43786 0.93342,-0.87691 2.81892,-1.56762 4.80396,-1.75983 1.01864,-0.0986 3.33962,-0.3471 5.15776,-0.55215 1.81811,-0.20505 4.74215,-0.37281 6.49785,-0.37281 2.14982,0 3.33153,-0.108 3.61886,-0.33073 0.3596,-0.27873 0.43948,-1.1004 0.50808,-5.22552 0.0448,-2.69214 -0.0198,-7.75229 -0.14332,-11.24479 -0.15237,-4.30635 -0.13306,-6.94607 0.0601,-8.20209 1.26963,-8.25785 1.25833,-8.21293 2.38352,-9.46096 2.45235,-2.72009 6.19882,-2.71213 8.53583,0.0181 0.55383,0.64703 1.17983,1.85488 1.56134,3.0125 0.6011,1.82409 0.63002,2.19937 0.51591,6.69491 -0.13298,5.23834 -0.0332,23.72383 0.12896,23.88595 0.0559,0.0559 2.28478,0.13906 4.953,0.18473 8.47177,0.14497 13.9823,1.13967 16.70981,3.01626 1.74646,1.20159 2.47174,2.59119 2.82011,5.40331 0.26795,2.16282 0.25093,2.38035 -0.24029,3.07019 -1.4913,2.09435 -4.23534,3.04715 -9.9404,3.45157 -4.05953,0.28776 -7.00296,0.71504 -10.98021,1.59391 -1.23692,0.27333 -2.56844,0.56573 -2.95891,0.64978 -0.91234,0.19637 -1.0795,0.77232 -0.7403,2.55031 0.15083,0.79076 0.25976,2.33071 0.24204,3.42211 -0.0177,1.09141 0.10731,2.57969 0.27789,3.30729 0.34486,1.47098 0.77965,6.72444 0.97449,11.77396 0.0702,1.81901 0.23778,3.4204 0.37245,3.55865 0.13467,0.13824 0.24484,0.95795 0.24484,1.82157 0,0.86363 0.11338,2.29833 0.25197,3.18823 0.13859,0.88991 0.39126,2.9246 0.56152,4.52155 0.35309,3.31211 0.80635,5.97111 1.37671,8.07667 0.39875,1.47193 2.48375,5.81444 2.79847,5.8284 0.0939,0.004 1.34464,1.13035 2.77948,2.50262 1.65417,1.58209 2.96116,2.60664 3.57187,2.80004 0.5297,0.16775 1.26077,0.49758 1.62457,0.73296 0.3638,0.23537 1.43536,0.50798 2.38125,0.60578 6.83802,0.70707 8.39303,1.43667 9.52754,4.4703 0.83775,2.24016 0.81817,4.06417 -0.0584,5.43912 -1.76951,2.77555 -3.31029,3.29326 -9.71561,3.26447 -2.55659,-0.0115 -4.82693,-0.0767 -5.04521,-0.14499 z m -359.43647,-0.36329 c -3.11412,-0.28269 -6.04778,-1.10874 -9.03028,-2.54271 -1.32863,-0.6388 -2.52138,-1.16145 -2.65056,-1.16145 -0.12917,0 -0.70898,-0.32357 -1.28847,-0.71905 -0.57948,-0.39548 -1.49555,-0.96102 -2.0357,-1.25677 -5.12045,-2.80357 -6.78645,-3.93026 -9.39513,-6.35378 -1.71367,-1.59203 -2.17937,-2.19511 -2.45483,-3.17893 -0.18697,-0.66779 -0.67356,-1.71784 -1.08132,-2.33344 -0.40775,-0.61559 -0.86092,-1.59275 -1.00704,-2.17146 -0.52104,-2.06355 -1.38328,-4.99067 -1.54915,-5.25906 -0.0928,-0.15009 -0.26099,-1.94385 -0.37385,-3.98614 -0.11287,-2.04228 -0.33078,-4.90387 -0.48427,-6.35908 -0.43144,-4.09057 -0.62806,-14.11 -0.30115,-15.34583 1.19002,-4.49865 4.23394,-10.15137 8.05958,-14.9671 1.47955,-1.86246 2.98775,-3.88166 3.35155,-4.4871 0.72326,-1.20367 1.2866,-1.80206 5.22387,-5.54893 3.46005,-3.29272 3.94349,-3.65471 7.64556,-5.7248 1.72582,-0.96502 3.77135,-2.15922 4.54561,-2.65377 1.94738,-1.24386 6.69906,-3.47751 8.63026,-4.05688 3.42451,-1.02737 12.38159,-1.4835 14.70053,-0.74862 1.30566,0.41376 5.52108,2.43662 8.33438,3.99942 1.30969,0.72753 3.30033,1.79959 4.42364,2.38235 1.49362,0.77486 2.98656,1.92912 5.55625,4.2958 4.8555,4.47189 5.28782,5.05343 7.07561,9.51796 1.69198,4.2253 2.95871,8.64789 2.95551,10.31875 -0.0124,6.48437 -0.31635,18.3755 -0.52941,20.71222 -0.25283,2.77288 -0.12247,5.1248 0.4798,8.65653 0.27044,1.5859 1.09482,4.21108 1.42657,4.54283 0.0966,0.0966 0.17557,0.40571 0.17557,0.68698 0,0.89473 1.80201,4.70875 2.8004,5.92715 1.29623,1.58188 3.93275,2.84942 5.83731,2.80637 1.56477,-0.0354 2.54508,-0.47572 3.65281,-1.6408 1.21998,-1.28314 4.24519,-1.82438 5.83751,-1.04438 1.373622,0.67287 1.849102,1.64455 1.838542,3.75731 -0.0103,2.05568 -0.29279,2.79589 -1.841522,4.82483 -1.06892,1.40037 -3.74142,3.67272 -4.64408,3.94874 -0.35677,0.10909 -0.85189,0.37665 -1.10025,0.59458 -0.59641,0.52331 -3.67468,1.3997 -5.50155,1.56631 -1.60081,0.146 -3.15128,-0.0809 -6.74688,-0.98718 -1.86511,-0.47013 -2.86872,-0.91865 -4.63021,-2.06926 -1.23692,-0.80796 -2.38467,-1.5992 -2.55054,-1.75831 -0.16587,-0.15911 -0.64559,-0.5788 -1.06605,-0.93265 -0.42045,-0.35384 -1.2736,-1.31776 -1.89589,-2.14203 -0.62229,-0.82427 -1.31225,-1.56806 -1.53324,-1.65286 -0.24289,-0.0932 -0.90681,0.27162 -1.67856,0.92237 -1.3763,1.16051 -2.5846,1.92656 -3.84343,2.43668 -0.43656,0.17691 -1.44859,0.66296 -2.24895,1.08012 -7.1075,3.70451 -9.29667,4.73765 -10.51899,4.96427 -0.76498,0.14183 -1.89607,0.4872 -2.51355,0.76749 -0.61747,0.28028 -1.51338,0.51222 -1.99092,0.51542 -0.47753,0.003 -1.56119,0.23925 -2.40814,0.52457 -2.28282,0.76902 -5.3569,1.35013 -6.955,1.31473 -0.77565,-0.0172 -2.06512,0.0286 -2.86549,0.10176 -0.80036,0.0731 -2.52677,0.0357 -3.83646,-0.0832 z m 15.09177,-16.43392 c 3.39289,-1.06024 6.17947,-2.60031 8.05285,-4.45061 0.82012,-0.81002 2.05289,-1.92755 2.73948,-2.4834 1.38219,-1.119 2.51634,-3.13786 4.42471,-7.87625 1.57161,-3.90224 2.29186,-6.26021 3.02353,-9.89852 0.57696,-2.86902 0.62399,-3.60848 0.48794,-7.67292 -0.19524,-5.83293 -0.89615,-9.02084 -2.93771,-13.36146 -0.79189,-1.68367 -1.2893,-2.30512 -3.28245,-4.10104 -1.29203,-1.16417 -2.85633,-2.38523 -3.47624,-2.71346 -1.33774,-0.70834 -4.97586,-1.11957 -10.63013,-1.20157 -3.69319,-0.0536 -3.70932,-0.0512 -5.44486,0.80618 -0.95739,0.47294 -1.83887,0.85989 -1.95885,0.85989 -0.63011,0 -3.0983,1.43556 -4.39603,2.55684 -0.81454,0.70379 -2.49957,2.13459 -3.7445,3.17956 -2.19597,1.84326 -4.93527,5.12372 -6.67432,7.9929 -0.14199,0.23425 -0.70124,1.14028 -1.2428,2.01341 -2.57896,4.15797 -3.34223,7.03102 -3.52502,13.26876 l -0.13428,4.58196 1.55195,3.77464 c 2.53492,6.16539 3.17124,7.10581 6.54528,9.67321 5.35434,4.07427 9.90065,5.73478 15.99125,5.8407 1.56033,0.0271 2.56896,-0.1447 4.6302,-0.78882 z m -87.30861,13.36356 c -3.21775,-0.77821 -5.80158,-3.173 -7.70713,-7.14329 -0.64395,-1.34169 -1.17082,-2.57498 -1.17082,-2.74062 0,-0.16564 -0.17801,-0.6454 -0.39557,-1.06612 -0.21757,-0.42073 -0.70858,-1.99239 -1.09115,-3.49259 -0.38257,-1.5002 -1.13225,-3.56108 -1.66595,-4.57972 -1.05204,-2.00797 -3.19519,-7.02756 -3.72786,-8.73125 -0.80568,-2.57688 -1.046,-2.78607 -1.59572,-1.38907 -0.70776,1.79865 -3.33527,6.40252 -4.24899,7.44498 -0.52441,0.59831 -1.09572,1.52229 -1.26956,2.05328 -0.17385,0.53099 -0.7703,1.60256 -1.32546,2.38125 -0.55516,0.77869 -1.22033,1.83252 -1.47816,2.34185 -0.68699,1.35708 -3.23587,4.18214 -4.47993,4.96533 -0.59342,0.37359 -1.79332,1.15396 -2.66644,1.73416 -2.96181,1.96813 -3.26769,2.08244 -6.21714,2.32332 -4.58826,0.37472 -6.65385,-0.56351 -8.66018,-3.9336 -1.15496,-1.94003 -2.18794,-4.3621 -2.18818,-5.13069 -7e-5,-0.2411 -0.35732,-1.23446 -0.79388,-2.20748 -0.43656,-0.97302 -0.7943,-1.90685 -0.79497,-2.07519 -8e-4,-0.16833 -0.29551,-1.02044 -0.65518,-1.89356 -0.35968,-0.87313 -0.65751,-1.94469 -0.66187,-2.38125 -0.004,-0.43656 -0.17675,-1.11741 -0.38312,-1.513 -0.20637,-0.39558 -0.69729,-1.64574 -1.09094,-2.77812 -0.39364,-1.13239 -1.03566,-2.77326 -1.42671,-3.64638 -1.32363,-2.95539 -2.5958,-7.11508 -3.05496,-9.98899 -0.0873,-0.54623 -0.55195,-1.73686 -1.03262,-2.64583 -0.94032,-1.77823 -1.32523,-3.16514 -1.74363,-6.28289 -0.44977,-3.35137 -0.69207,-4.30205 -1.54809,-6.07397 -0.45393,-0.93958 -1.01431,-2.60646 -1.24529,-3.70416 -0.23099,-1.09771 -0.58324,-2.41255 -0.78279,-2.92187 -0.19954,-0.50932 -0.43954,-1.52135 -0.53333,-2.24896 -0.0938,-0.7276 -0.34115,-1.85869 -0.54968,-2.51354 -0.20854,-0.65484 -0.60808,-2.79797 -0.88788,-4.7625 -0.2798,-1.96453 -0.74873,-4.4915 -1.04207,-5.6155 -0.29335,-1.12399 -0.61377,-3.26711 -0.71205,-4.7625 -0.0983,-1.49538 -0.46866,-3.84997 -0.82306,-5.23241 -1.4208,-5.54222 -1.69992,-8.34027 -1.11383,-11.16563 0.54759,-2.63974 1.8702,-4.29137 4.57552,-5.71378 1.17427,-0.61741 1.66338,-0.71083 3.73259,-0.71295 2.17916,-0.002 2.50475,0.0675 3.83646,0.82103 1.0353,0.58586 1.8065,1.31462 2.6726,2.52553 1.29076,1.80463 1.67284,3.0021 1.97062,6.176 0.0956,1.01865 0.29409,2.07789 0.44116,2.35387 0.14707,0.27599 0.37011,1.52615 0.49564,2.77813 0.12553,1.25198 0.34084,3.22884 0.47846,4.393 0.13762,1.16417 0.32433,2.95011 0.41491,3.96875 0.0906,1.01865 0.27229,2.50693 0.40379,3.3073 1.1634,7.08076 2.44493,12.88734 3.59124,16.27187 0.49288,1.45521 1.20173,4.19365 1.57525,6.08542 0.76347,3.86683 1.72907,7.92129 2.6693,11.20824 0.34808,1.21683 0.63287,2.66974 0.63287,3.2287 0,0.55895 0.10894,1.28978 0.2421,1.62405 0.13315,0.33426 0.67674,2.15557 1.20797,4.04734 1.1512,4.0996 2.16228,6.88185 2.69418,7.41375 0.34032,0.34032 0.47411,0.33981 1.0982,-0.004 2.62437,-1.44665 4.28164,-4.63557 7.63202,-14.68558 0.65491,-1.96453 1.53158,-4.10766 1.94815,-4.7625 0.41657,-0.65484 1.30714,-2.6133 1.97903,-4.35213 0.67189,-1.73882 1.75029,-4.17183 2.39644,-5.40668 0.64615,-1.23485 1.17482,-2.52676 1.17482,-2.87091 0,-0.75105 0.36116,-1.46808 1.96154,-3.89433 0.6674,-1.01182 1.21346,-1.98331 1.21346,-2.15886 0,-0.17555 0.60435,-1.52638 1.34299,-3.00185 1.02562,-2.04872 1.59351,-2.86414 2.40309,-3.4506 2.62418,-1.90094 6.33734,-0.94471 7.66285,1.97337 0.56799,1.25045 0.61394,2.24351 0.18896,4.08458 -0.34304,1.48615 0.0563,6.43644 0.71733,8.89095 0.19594,0.72761 0.4765,2.27542 0.62346,3.43959 0.14697,1.16416 0.44982,2.71198 0.673,3.43958 0.22318,0.7276 0.53432,2.03729 0.69143,2.91042 0.53688,2.98365 2.93449,10.41173 3.72814,11.55021 0.26927,0.38627 0.48959,0.8093 0.48959,0.94007 0,0.13077 0.345,0.7077 0.76666,1.28207 0.42167,0.57437 0.90423,1.52056 1.07235,2.10265 0.16813,0.58208 0.76582,1.9513 1.3282,3.0427 0.56237,1.09141 1.33346,2.60946 1.71352,3.37344 0.38006,0.76399 0.80196,1.38906 0.93754,1.38906 0.13559,0 0.47673,0.24709 0.75808,0.54909 0.58128,0.62393 0.60976,0.59466 1.17781,-1.21054 0.9038,-2.8722 1.83887,-8.82698 2.18122,-13.89063 0.22945,-3.39366 0.40916,-4.28087 3.56409,-17.59479 0.31035,-1.30969 0.67063,-2.8575 0.80063,-3.43958 0.88056,-3.94293 1.66058,-7.20695 2.21302,-9.26042 0.73734,-2.74075 0.99582,-4.64137 1.72977,-12.71901 0.94787,-10.43198 2.93589,-14.28437 7.66018,-14.84389 2.20528,-0.26118 6.31862,1.36395 8.66362,3.42288 1.81289,1.59174 3.26872,5.15778 3.26872,8.0067 0,3.01058 -0.78708,7.33335 -1.96867,10.8122 -1.67883,4.94279 -2.99694,11.06132 -4.50927,20.93154 -0.37905,2.47385 -0.933,5.56947 -1.231,6.87916 -0.298,1.30969 -0.64047,3.33375 -0.76104,4.49792 -0.24608,2.37616 -1.04765,6.47553 -1.81072,9.26042 -0.27911,1.01864 -0.59042,2.32833 -0.69181,2.91041 -0.10138,0.58209 -0.58188,2.30849 -1.06777,3.83646 -0.48588,1.52797 -1.24396,4.14921 -1.68461,5.82498 -1.03019,3.9177 -2.45019,7.30658 -4.95751,11.83127 -2.54466,4.59208 -3.1973,5.53217 -4.90882,7.07099 -2.56778,2.30865 -5.42968,3.3334 -9.20655,3.29655 -1.24273,-0.0121 -2.96741,-0.19325 -3.83261,-0.40249 z m 208.344972,-1.45866 c -3.5874,-0.23233 -7.59029,-0.65627 -8.59896,-0.91071 -1.74678,-0.44062 -4.1266,-2.37469 -5.45941,-4.4368 -1.05174,-1.62724 -1.1934,-2.01586 -2.75198,-7.54866 -0.50663,-1.7985 -0.97891,-3.36344 -1.0495,-3.47765 -0.24432,-0.39533 -1.75858,-9.66709 -1.98758,-12.17007 -0.12649,-1.38245 -0.43153,-3.7637 -0.67786,-5.29167 -0.38735,-2.40276 -0.44392,-4.90519 -0.41875,-18.52083 0.0172,-9.32855 0.13398,-16.09988 0.28646,-16.61934 0.16301,-0.55531 0.18076,-4.33757 0.0484,-10.31875 -0.19407,-8.77301 -0.18745,-22.52908 0.0183,-37.75254 0.0785,-5.80902 0.1334,-6.45143 0.64513,-7.54062 0.30766,-0.65484 0.84506,-1.45283 1.19423,-1.77331 1.35226,-1.2411 4.27424,-1.94461 5.87822,-1.41525 1.32707,0.43797 2.96204,2.32732 3.48163,4.02333 1.03137,3.36648 1.13723,4.27457 1.42933,12.2621 0.16497,4.51115 0.42669,9.27365 0.5816,10.58334 0.16894,1.42834 0.32444,11.32802 0.38855,24.73854 0.1202,25.1373 0.33446,40.96246 0.63944,47.22812 0.17682,3.63304 0.32544,4.62728 1.04804,7.01146 2.21028,7.29262 4.83378,9.84492 10.86104,10.56625 4.25966,0.50979 5.10495,0.96814 6.20115,3.36252 0.82611,1.80446 0.86048,3.25433 0.11374,4.79689 -1.36403,2.81771 -4.55086,3.67773 -11.87114,3.20365 z m -43.92083,-1.69691 c -4.87236,-1.24771 -8.39608,-3.67993 -9.86449,-6.8089 -0.82613,-1.76041 -2.23583,-5.66081 -2.60435,-7.20579 -0.13882,-0.58208 -0.42478,-2.42755 -0.63547,-4.10104 -0.21069,-1.67349 -0.50184,-3.63802 -0.64699,-4.36563 -0.40759,-2.04295 -0.47064,-15.85336 -0.08,-17.52864 0.23717,-1.01714 0.25061,-1.76099 0.0502,-2.77813 -0.21815,-1.10742 -0.84643,-11.51582 -0.79457,-13.16302 0.007,-0.21828 0.0597,-1.94469 0.11729,-3.83646 0.15777,-5.17877 0.44482,-8.8163 0.83518,-10.58333 0.5665,-2.5644 0.72086,-7.80359 0.40534,-13.75833 -0.16192,-3.05594 -0.3507,-7.1636 -0.41952,-9.12813 -0.0688,-1.96453 -0.23789,-4.34578 -0.37573,-5.29166 -0.32213,-2.21072 -1.12025,-13.44252 -1.25804,-17.70451 -0.16428,-5.08046 1.11807,-10.24655 3.04911,-12.28379 1.95082,-2.0581 5.091,-2.50783 7.67826,-1.09967 2.43993,1.32799 3.30224,2.86915 4.16189,7.43846 0.68829,3.65838 0.90644,6.08744 1.16163,12.93388 0.21196,5.68613 1.00708,14.43565 1.54705,17.02347 0.25564,1.22519 -0.0752,14.28023 -0.49059,19.35674 -0.39931,4.88057 -0.37698,12.21968 0.0492,16.13958 0.20301,1.86747 0.34544,7.33489 0.36872,14.15521 0.0209,6.11187 0.18521,13.0175 0.3652,15.34583 0.18,2.32834 0.41823,5.80636 0.52943,7.72894 0.18646,3.22351 0.26274,3.59422 0.98021,4.7625 1.13855,1.8539 2.09261,2.26147 4.80049,2.05074 1.89868,-0.14775 2.32884,-0.0974 3.30729,0.3869 1.34739,0.66694 1.93104,1.41661 2.36443,3.03698 0.44098,1.64884 -0.0595,4.61766 -1.04847,6.21948 -0.86373,1.39897 -2.78559,2.78061 -4.62949,3.32819 -2.07756,0.61697 -5.91302,0.50097 -8.92318,-0.26987 z m 217.090628,0.11431 c -3.31666,-0.15283 -3.5052,-0.19335 -5.27563,-1.13366 -1.00981,-0.53634 -2.012,-1.11986 -2.22708,-1.29671 -0.61423,-0.50505 -3.25398,-3.96817 -4.22823,-5.54705 -0.48567,-0.78708 -1.21264,-1.78374 -1.61552,-2.2148 -0.61071,-0.65346 -1.54289,-1.9416 -2.44679,-3.38105 -0.10054,-0.16013 -0.82555,-1.51602 -1.61115,-3.01309 l -1.4283,-2.72195 -1.43158,1.15871 c -0.78735,0.6373 -2.44359,1.85173 -3.68051,2.69875 -1.23693,0.84701 -3.20146,2.33616 -4.36563,3.30922 -4.50726,3.76735 -8.18806,5.89214 -12.832288,7.40758 -3.36495,1.098 -4.29686,1.28893 -7.58248,1.55353 -2.22901,0.17951 -3.99696,0.20736 -4.36563,0.0688 -0.34078,-0.1281 -1.69116,-0.37401 -3.00085,-0.54645 -1.30969,-0.17245 -3.33375,-0.65337 -4.49792,-1.06872 -1.16416,-0.41535 -2.59291,-0.90121 -3.175,-1.0797 -1.17382,-0.35993 -2.3315,-0.97449 -4.89479,-2.5984 -0.94588,-0.59924 -2.3908,-1.44252 -3.2109,-1.87394 -0.82013,-0.43143 -2.02777,-1.1466 -2.6837,-1.58927 -1.37787,-0.92991 -3.75504,-3.98504 -4.74424,-6.09722 -1.56432,-3.34028 -1.76737,-3.8973 -1.88066,-5.15937 -0.0653,-0.72761 -0.26043,-1.8587 -0.43357,-2.51355 -0.50327,-1.90334 -0.44805,-8.76541 0.0894,-11.1125 0.24992,-1.0914 0.55705,-2.52015 0.68249,-3.175 0.7376,-3.85058 1.25217,-5.66511 2.17593,-7.67291 0.56909,-1.23693 1.15049,-2.42755 1.29196,-2.64584 0.14148,-0.21828 0.43455,-0.78269 0.6513,-1.25425 0.33221,-0.72283 2.7078,-3.63797 3.88197,-4.76363 1.27582,-1.22312 4.85875,-4.42204 6.29666,-5.62177 0.94588,-0.78921 2.3151,-1.98152 3.04271,-2.64957 0.7276,-0.66806 2.03729,-1.61359 2.91041,-2.10118 0.87313,-0.4876 1.88516,-1.15666 2.24896,-1.48679 0.82476,-0.74845 4.69599,-2.7603 5.31138,-2.7603 0.25064,0 1.12763,-0.35344 1.94882,-0.78542 2.68626,-1.41306 6.49663,-2.37622 10.46689,-2.64576 1.964528,-0.13337 4.069338,-0.32274 4.677378,-0.42082 0.7022,-0.11326 1.846,-0.0136 3.13531,0.27328 1.11641,0.24837 2.26452,0.39022 2.55135,0.31521 0.92403,-0.24164 2.88949,0.54803 8.0245,3.22402 4.29376,2.2376 5.14286,2.78214 5.82083,3.73293 0.43656,0.61224 1.33818,1.72832 2.00364,2.48018 1.51887,1.71611 4.10519,5.41418 4.49294,6.42425 0.16124,0.41997 0.81788,2.78765 1.45923,5.2615 0.64138,2.47385 1.33141,5.09323 1.53342,5.82083 0.20204,0.72761 0.51895,2.63261 0.70432,4.23334 0.18534,1.60073 0.60569,3.86291 0.93411,5.02708 0.84879,3.0088 2.98225,9.15187 3.39966,9.7889 0.19373,0.29569 0.44061,0.95258 0.54861,1.45977 0.50747,2.38325 3.73058,9.37991 4.69496,10.19172 2.01832,1.69904 4.95802,1.56398 8.80086,-0.40434 2.80151,-1.43498 3.4173,-1.54987 4.79713,-0.8951 1.25751,0.59673 1.91344,1.6344 2.35736,3.72935 0.68773,3.24561 0.69308,3.23006 -2.10243,6.10808 -1.37052,1.41096 -3.18622,2.97519 -4.0349,3.47608 -0.8487,0.50089 -2.43054,1.48315 -3.5152,2.18281 -1.08466,0.69966 -2.13238,1.2721 -2.32825,1.2721 -0.19585,0 -0.73716,0.19869 -1.20288,0.44153 -1.26632,0.6603 -2.35426,0.76498 -6.13841,0.5906 z M 89.770532,464.94965 c 1.09141,-0.35406 2.99641,-1.15558 4.23333,-1.78117 1.23693,-0.62559 2.60615,-1.31877 3.04271,-1.54038 0.43656,-0.22162 1.88762,-1.12697 3.224528,-2.01188 1.33694,-0.88491 3.17545,-2.02565 4.08556,-2.53497 4.34153,-2.4296 7.29475,-5.53914 8.3579,-8.80027 0.33213,-1.01878 0.60389,-2.24438 0.60389,-2.72356 0,-0.47917 0.1166,-1.44585 0.2591,-2.14817 1.12165,-5.52779 1.34499,-9.30243 0.68477,-11.57349 -0.46985,-1.61626 -1.01788,-2.17091 -3.32512,-3.36528 l -1.7198,-0.89027 h -4.7625 c -4.0486,0 -4.890318,0.0699 -5.615198,0.46609 -0.469,0.25636 -1.74109,0.63608 -2.82691,0.84383 -1.81314,0.34691 -4.406,1.47483 -6.32402,2.75101 -2.2606,1.50411 -10.38532,9.51922 -13.08494,12.90841 -1.86695,2.34385 -2.61149,4.05802 -3.04027,6.99986 -0.43424,2.97942 0.14406,5.69411 1.69463,7.95487 0.63298,0.9229 1.32947,2.13628 1.54776,2.6964 0.34925,0.89621 0.69842,1.17575 2.91041,2.33008 l 2.51354,1.31169 2.77813,-0.12454 c 1.94569,-0.0872 3.37272,-0.31742 4.7625,-0.76826 z M 7.6867219,411.02692 c 1.34779,-0.42731 2.6098501,-0.77692 2.8045301,-0.77692 0.55894,0 7.74129,-2.47223 10.22303,-3.51885 1.23692,-0.52165 3.5383,-1.32002 5.11415,-1.77415 1.57589,-0.45413 4.46093,-1.53258 6.41123,-2.39655 1.9503,-0.86398 3.61095,-1.57087 3.69033,-1.57087 0.0794,0 1.42343,-0.63242 2.9868,-1.40538 1.56337,-0.77296 4.09025,-1.79243 5.61531,-2.26549 3.84886,-1.19389 3.82992,-1.18706 6.34468,-2.28914 1.23692,-0.54208 3.67771,-1.48546 5.42396,-2.09641 2.95968,-1.03548 6.67231,-2.70981 7.46209,-3.36529 0.46001,-0.38176 0.43424,-1.13787 -0.0525,-1.54186 -0.21762,-0.1806 -0.52949,-0.77504 -0.69305,-1.32097 -1.0871,-3.62838 -10.58185,-10.11054 -15.71234,-10.72694 -0.87312,-0.1049 -1.82562,-0.2459 -2.11666,-0.31333 -0.67231,-0.15576 -7.28189,-0.1028 -7.54608,0.0605 -0.10866,0.0672 -1.0151,0.23805 -2.01433,0.37977 -2.20194,0.31229 -6.75822,1.68504 -7.97433,2.40255 -0.48622,0.28689 -1.01277,0.52161 -1.17006,0.52161 -0.15732,0 -0.83513,0.48557 -1.50625,1.07904 -4.29395,3.7972 -5.40528,4.8257 -7.2654,6.72388 -2.21655,2.26193 -4.43895,4.85792 -6.07251,7.09338 -0.55287,0.75656 -1.40912,1.79229 -1.9027801,2.30161 -0.49368,0.50933 -1.31379,1.77082 -1.82245,2.80332 -0.50869,1.0325 -1.82464,3.21172 -2.92436,4.84272 -1.09971,1.631 -2.07949,3.28654 -2.17728,3.67898 -0.0978,0.39244 -0.39352,1.18977 -0.65715,1.77186 -0.26365,0.58208 -0.48199,1.37821 -0.48516,1.76917 -0.005,0.60369 0.1238,0.72808 0.85407,0.82521 1.28204,0.17052 2.44798,-0.0308 5.16255,-0.89142 z M 21.814782,396.86184 c -0.87254,-0.61115 -1.17646,-1.58728 -0.82539,-2.65101 0.30163,-0.91399 2.43874,-3.01083 3.06866,-3.01083 0.19738,0 0.8236,-0.41987 1.39163,-0.93304 0.56801,-0.51317 2.02068,-1.4158 3.22813,-2.00585 2.39004,-1.16796 3.39865,-1.33849 10.0642,-1.70164 3.16619,-0.1725 3.37261,-0.15287 3.89585,0.37038 0.71565,0.71563 0.92705,1.60075 0.59249,2.4807 -0.49491,1.30168 -1.16224,1.49642 -6.25949,1.82663 -4.41719,0.28616 -4.85757,0.36232 -6.33471,1.09571 -0.87312,0.4335 -1.99556,1.14473 -2.4943,1.58053 -0.49874,0.4358 -1.30006,0.95668 -1.78073,1.15752 -0.48067,0.20083 -1.05656,0.64384 -1.27974,0.98445 -0.76565,1.16854 -2.2326,1.53069 -3.2666,0.80645 z"
           id="path1504-7-3"
           sodipodi:nodetypes="sssssscsssscccsscsssscsscccsssssssssssssssssssssssssssssssssssssssssssssssssssssssssssssssssssssssssssscssssssssssssscsssscssccccsscccssscssssscsssccsssscccccsssscsscscssscsscccssssssssssssssscsssssssssscssssssssssssssssssssscsssssssssssssssssssssssssssssssssssssssssssssssssssssssssscsssssssssssssssssssssscsssscssssssssssssssssscscssssssssssssssssscssssssssssssssscsssssssssssssssssssssssssssssssssssssssssssccssssssssssssssssssssssssssssssssccsssssssssssssssssssssssssssssscsssssssssssssssssssssssssssssssssssssssssssssssssssssssssssssscssssssssscssssssssssssssssssssssssssssscsssssssssssssssss"
           clip-path="url(#clipPath1532-7-3)"
           transform="translate(189.20973,-276.7195)" />
      </g>
    </g>
  </g>
</svg>
