<?xml version="1.0" encoding="UTF-8" standalone="no"?>
<svg
   xmlns:dc="http://purl.org/dc/elements/1.1/"
   xmlns:cc="http://creativecommons.org/ns#"
   xmlns:rdf="http://www.w3.org/1999/02/22-rdf-syntax-ns#"
   xmlns:svg="http://www.w3.org/2000/svg"
   xmlns="http://www.w3.org/2000/svg"
   xmlns:sodipodi="http://sodipodi.sourceforge.net/DTD/sodipodi-0.dtd"
   xmlns:inkscape="http://www.inkscape.org/namespaces/inkscape"
   version="1.1"
   id="svg2"
   width="893.10986"
   height="893.10986"
   viewBox="0 0 893.10985 893.10986"
   sodipodi:docname="walleat_thumbnail.svg"
   inkscape:version="1.0.2-2 (e86c870879, 2021-01-15)"
   inkscape:export-filename="D:\Documents\walleat\app\public\img\walleat_thumbnail.png"
   inkscape:export-xdpi="91.581116"
   inkscape:export-ydpi="91.581116">
  <metadata
     id="metadata8">
    <rdf:RDF>
      <cc:Work
         rdf:about="">
        <dc:format>image/svg+xml</dc:format>
        <dc:type
           rdf:resource="http://purl.org/dc/dcmitype/StillImage" />
        <dc:title></dc:title>
      </cc:Work>
    </rdf:RDF>
  </metadata>
  <defs
     id="defs6" />
  <sodipodi:namedview
     pagecolor="#ffffff"
     bordercolor="#666666"
     borderopacity="1"
     objecttolerance="10"
     gridtolerance="10"
     guidetolerance="10"
     inkscape:pageopacity="0"
     inkscape:pageshadow="2"
     inkscape:window-width="1500"
     inkscape:window-height="948"
     id="namedview4"
     showgrid="false"
     fit-margin-top="20"
     fit-margin-left="20"
     fit-margin-right="20"
     fit-margin-bottom="20"
     lock-margins="true"
     inkscape:zoom="0.38370564"
     inkscape:cx="-234.98124"
     inkscape:cy="473.20983"
     inkscape:window-x="-6"
     inkscape:window-y="-6"
     inkscape:window-maximized="1"
     inkscape:current-layer="g10"
     inkscape:document-rotation="0" />
  <g
     inkscape:groupmode="layer"
     inkscape:label="Image"
     id="g10"
     transform="translate(-1309.538,-123.73747)">
    <path
       style="fill:#000000;stroke-width:0.896133"
       d="m 1501.8839,816.18047 c -10.5733,-5.00815 -27.3522,-20.35382 -30.3537,-22.5763 -9.1522,-6.72243 -26.8403,-27.8891 -34.0685,-40.76806 -1.5274,-2.72174 -3.8476,-5.94782 -5.1559,-7.16907 -1.3082,-1.22125 -3.1725,-3.76887 -4.1428,-5.66123 -0.9702,-1.89248 -3.1102,-5.32019 -4.7553,-7.61717 -1.6452,-2.29699 -3.9842,-5.99101 -5.198,-8.20895 -1.2137,-2.21793 -4.2769,-7.78377 -6.8071,-12.36853 -2.5302,-4.58476 -4.6004,-8.73482 -4.6004,-9.22236 0,-0.48753 -1.613,-4.17729 -3.5845,-8.19946 -1.9715,-4.02217 -3.5845,-8.39059 -3.5845,-9.7076 0,-1.31702 -0.985,-4.15922 -2.1888,-6.31602 -1.2037,-2.15678 -2.6266,-5.93773 -3.1619,-8.4021 -0.5352,-2.46436 -2.3332,-8.11001 -3.9955,-12.54587 -2.8266,-7.54299 -10.7368,-31.38722 -13.0807,-39.42987 -0.5746,-1.97149 -1.4031,-10.64158 -1.8412,-19.26687 -0.4382,-8.62528 -1.0543,-19.1972 -1.369,-23.49315 -0.7019,-9.57815 1.136,-30.87994 2.8789,-33.36833 0.688,-0.98229 1.251,-3.65824 1.251,-5.94655 0,-5.02506 3.2147,-29.27326 4.5271,-34.14704 0.5162,-1.91692 1.328,-6.91278 1.8039,-11.1019 0.4761,-4.18911 1.6371,-9.91904 2.5802,-12.73317 0.943,-2.81413 1.9956,-7.3264 2.339,-10.02726 0.9001,-7.0794 2.5378,-11.13903 7.9608,-19.73301 5.0977,-8.07847 20.0911,-37.0076 22.8534,-44.09455 0.9039,-2.31914 2.5104,-5.34359 3.5699,-6.721 1.8964,-2.46534 7.844,-11.58502 13.3595,-20.48449 1.5468,-2.49596 5.4536,-7.13345 8.6816,-10.30554 3.2281,-3.17209 6.4351,-6.77558 7.1268,-8.00776 0.6915,-1.23219 5.8192,-6.92539 11.3948,-12.65156 7.9552,-8.17016 11.2947,-10.94324 15.5141,-12.88274 2.9572,-1.35932 12.2568,-7.05121 20.6656,-12.64864 15.1258,-10.06863 29.6803,-17.31342 37.7826,-18.8071 1.8618,-0.3432 4.8571,-1.138 6.6563,-1.76621 1.7991,-0.6282 9.184,-2.0379 16.4108,-3.13267 12.5472,-1.90076 14.0762,-1.94353 33.9182,-0.94885 11.4283,0.5729 23.497,1.61633 26.8193,2.31873 6.1128,1.29238 13.8698,5.09898 23.3606,11.46376 2.8631,1.92003 8.3071,4.94765 12.0978,6.72806 9.1418,4.29364 19.3981,10.65855 28.5156,17.69638 4.0954,3.16117 9.1723,6.61621 11.2821,7.67785 2.1098,1.06164 7.0621,5.22136 11.0051,9.24382 3.943,4.02245 9.1854,8.77733 11.6498,10.56638 2.4643,1.78904 5.4888,4.34111 6.721,5.67126 1.2321,1.33015 4.262,3.31872 6.733,4.41905 14.9527,6.65843 18.1102,22.67614 8.3013,42.11147 -5.513,10.92366 -14.2145,17.28139 -35.6454,26.04455 -5.6681,2.31767 -15.7496,7.16834 -22.4033,10.77927 -17.3609,9.42151 -51.4477,24.00114 -68.1062,29.13043 -5.1752,1.59347 -13.242,4.61126 -17.9262,6.70619 -4.6843,2.09494 -12.9511,5.22591 -18.3708,6.95771 -5.4196,1.7318 -14.8946,5.58227 -21.0555,8.55659 -6.1609,2.97433 -15.0327,6.66076 -19.715,8.19207 -4.6823,1.5313 -17.6838,7.41362 -28.8923,13.0718 -11.2085,5.65819 -23.5079,11.44311 -27.3321,12.85539 -3.8241,1.41228 -10.5823,4.4425 -15.0182,6.73383 -4.4358,2.29131 -10.7953,4.99972 -14.1322,6.01867 -3.3369,1.01896 -6.4172,2.51659 -6.8451,3.32809 -1.0743,2.03729 0.4678,10.59504 4.3837,24.32684 7.8456,27.51174 9.8432,34.24557 11.5647,38.9818 2.3176,6.37657 6.3287,20.77773 10.1086,36.29341 2.4418,10.02305 10.3042,36.30833 12.5983,42.11827 0.4865,1.23218 1.4636,4.45826 2.1713,7.16907 1.7328,6.63678 8.994,23.5311 17.1049,39.79633 6.544,13.12325 6.8291,13.52077 16.072,22.40334 17.9032,17.20513 28.9788,23.11271 61.6789,32.89903 7.5145,2.24893 10.9145,2.7419 21.0591,3.05357 6.6538,0.20441 15.4066,0.60426 19.4505,0.88852 7.7914,0.5478 14.8855,-0.39188 24.4601,-3.24006 3.2037,-0.95295 6.15,-1.72685 6.5472,-1.71968 0.3974,0.009 4.8332,-1.7687 9.8575,-3.9463 5.0243,-2.17761 11.5546,-4.65452 14.5119,-5.50433 2.9572,-0.8498 7.7963,-2.66429 10.7536,-4.03215 2.9572,-1.36786 9.0061,-4.005 13.442,-5.86035 4.4359,-1.85536 9.8799,-4.54689 12.0978,-5.98133 7.433,-4.80722 34.1123,-20.36535 34.9227,-20.36535 0.4405,0 4.3992,-1.81467 8.7969,-4.0326 8.5467,-4.31041 13.1734,-5.02131 20.1213,-3.09175 3.1179,0.86593 11.0145,6.78883 12.5634,9.42338 0.3746,0.63715 1.7176,5.1188 2.9845,9.95927 -108.2344,122.33016 -252.6398,83.00033 -291.6809,54.6507 z m 584.1875,-71.05541 c -0.7393,-0.2312 -4.1671,-1.25656 -7.6172,-2.2786 -11.0357,-3.26919 -24.762,-10.35018 -30.1196,-15.53769 -10.3044,-9.97745 -25.3232,-33.00794 -28.9225,-44.35121 -7.1261,-22.45821 -8.5268,-28.39337 -10.4684,-44.35861 -1.9178,-15.76925 -2.8031,-22.66336 -3.6252,-28.2282 -0.4732,-3.20368 -1.0111,-8.44606 -1.1953,-11.64974 -0.1842,-3.20367 -0.9789,-8.52087 -1.7658,-11.816 -1.0972,-4.59332 -1.5498,-13.05842 -1.9399,-36.28221 -0.2798,-16.66009 -0.8838,-30.74293 -1.3421,-31.29521 -0.4584,-0.55227 -3.3343,-1.26552 -6.3908,-1.585 -3.0566,-0.31948 -5.9377,-0.96109 -6.4024,-1.4258 -0.4803,-0.48026 -4.5583,-0.64056 -9.4487,-0.37141 -6.0249,0.3316 -10.8868,0.0332 -16.2208,-0.99564 -4.1894,-0.80805 -10.5522,-2.01819 -14.1395,-2.68919 -10.4465,-1.95405 -16.8545,-6.6857 -19.1417,-14.13412 -0.4913,-1.59985 -0.8684,-6.4576 -0.8381,-10.795 0.06,-8.57574 2.0464,-14.93786 5.7507,-18.41782 3.1614,-2.97005 9.5475,-5.30947 16.2708,-5.96048 3.4501,-0.33407 11.3112,-1.17561 17.4691,-1.8701 6.1579,-0.69449 16.0615,-1.2627 22.008,-1.2627 7.2813,0 11.2837,-0.36578 12.2569,-1.12016 1.218,-0.94404 1.4885,-3.72701 1.7209,-17.69864 0.1516,-9.11816 -0.067,-26.25671 -0.4855,-38.08567 -0.516,-14.58542 -0.4506,-23.52606 0.2035,-27.78014 4.3002,-27.96901 4.2619,-27.81688 8.0729,-32.04393 8.306,-9.21283 20.9951,-9.18587 28.9105,0.0615 1.8758,2.19148 3.996,6.2824 5.2882,10.20322 2.0359,6.17812 2.1338,7.44918 1.7473,22.6754 -0.4504,17.74207 -0.1123,80.35168 0.4368,80.90079 0.1895,0.18946 7.7385,0.471 16.7756,0.62566 28.6936,0.49104 47.3575,3.86003 56.5955,10.21596 5.9152,4.06974 8.3717,8.77628 9.5516,18.3008 0.9075,7.3254 0.8499,8.06216 -0.8138,10.39864 -5.051,7.09348 -14.345,10.32057 -33.6678,11.6903 -13.7494,0.97465 -23.7187,2.42182 -37.1895,5.39853 -4.1894,0.92575 -8.6992,1.91611 -10.0217,2.20078 -3.0901,0.6651 -3.6563,2.61582 -2.5074,8.63781 0.5109,2.67825 0.8798,7.894 0.8198,11.59055 -0.06,3.69655 0.3634,8.7373 0.9412,11.20167 1.168,4.98212 2.6406,22.7754 3.3005,39.87794 0.2377,6.16091 0.8054,11.58476 1.2615,12.05299 0.4561,0.46823 0.8293,3.24456 0.8293,6.16961 0,2.92506 0.384,7.78434 0.8534,10.79841 0.4694,3.01407 1.3252,9.90551 1.9018,15.31431 1.1959,11.21798 2.7311,20.22391 4.6629,27.35535 1.3506,4.98539 8.4124,19.6933 9.4783,19.74058 0.318,0.0141 4.5543,3.82843 9.414,8.47626 5.6026,5.35848 10.0293,8.8286 12.0978,9.48363 1.794,0.56816 4.2702,1.68528 5.5023,2.48249 1.2322,0.79721 4.8616,1.72052 8.0652,2.05178 23.1602,2.39482 28.4269,4.86594 32.2694,15.14071 2.8375,7.58736 2.7712,13.76519 -0.1977,18.42211 -5.9933,9.40071 -11.2118,11.15409 -32.9064,11.05668 -8.6591,-0.0385 -16.3486,-0.25997 -17.0879,-0.49108 z M 1916.2541,723.1948 c -11.2334,-0.51764 -11.872,-0.65488 -17.8684,-3.83967 -3.4202,-1.81656 -6.8145,-3.79292 -7.543,-4.39191 -2.0804,-1.71058 -11.0211,-13.44002 -14.3208,-18.78762 -1.645,-2.66581 -4.1072,-6.04147 -5.4717,-7.50146 -2.0685,-2.21324 -5.2258,-6.57612 -8.2872,-11.45147 -0.3406,-0.54237 -2.7961,-5.13472 -5.4569,-10.20524 l -4.8376,-9.21912 -4.8487,3.92451 c -2.6668,2.15848 -8.2764,6.27173 -12.4658,9.14054 -4.1894,2.86881 -10.8432,7.91251 -14.7862,11.20822 -15.2659,12.75987 -27.7326,19.95645 -43.4625,25.08917 -11.3969,3.71887 -14.5533,4.36558 -25.6815,5.26176 -7.5496,0.60799 -13.5376,0.7023 -14.7862,0.23289 -1.1543,-0.43388 -5.7279,-1.26676 -10.1638,-1.85083 -4.4359,-0.58407 -11.2913,-2.21294 -15.2343,-3.61971 -3.943,-1.40676 -8.7821,-3.05237 -10.7536,-3.65689 -3.9757,-1.21907 -7.8967,-3.30056 -16.5784,-8.80068 -3.2037,-2.02961 -8.0976,-4.88575 -10.8753,-6.34697 -2.7777,-1.46123 -6.8679,-3.88347 -9.0895,-5.38279 -4.6668,-3.14958 -12.7182,-13.49716 -16.0686,-20.65104 -5.2983,-11.31342 -5.986,-13.2 -6.3697,-17.4746 -0.2213,-2.46437 -0.8821,-6.29534 -1.4685,-8.51327 -1.7045,-6.44656 -1.5175,-29.68811 0.3029,-37.63761 0.8465,-3.69655 1.8867,-8.53567 2.3116,-10.7536 2.4982,-13.04177 4.241,-19.18752 7.3698,-25.98787 1.9275,-4.18942 3.8966,-8.22202 4.3758,-8.96133 0.4792,-0.73931 1.4718,-2.65096 2.2059,-4.24812 1.1252,-2.44819 9.1712,-12.32166 13.1481,-16.13423 4.3211,-4.14265 16.4564,-14.97726 21.3265,-19.04071 3.2037,-2.67303 7.8412,-6.71133 10.3056,-8.974 2.4643,-2.26267 6.9002,-5.46515 9.8574,-7.11661 2.9573,-1.65147 6.385,-3.91754 7.6172,-5.0357 2.7934,-2.53496 15.9051,-9.34904 17.9894,-9.34904 0.8489,0 3.8192,-1.19708 6.6006,-2.66017 9.0982,-4.78596 22.0038,-8.04815 35.4509,-8.96108 6.6538,-0.45174 13.7827,-1.09312 15.8421,-1.42529 2.3784,-0.38364 6.2523,-0.046 10.6192,0.92556 3.7812,0.84123 7.6698,1.32167 8.6413,1.06762 3.1297,-0.81843 9.7866,1.85615 27.1787,10.91964 14.5428,7.57866 17.4187,9.42299 19.7149,12.64327 1.4786,2.07365 4.5324,5.85377 6.7862,8.40026 5.1444,5.81242 13.9042,18.33765 15.2175,21.75872 0.5461,1.42241 2.7701,9.44163 4.9423,17.82048 2.1723,8.37885 4.5095,17.25057 5.1937,19.71493 0.6842,2.46437 1.7576,8.91653 2.3855,14.33814 0.6277,5.42161 2.0514,13.08355 3.1638,17.02653 2.8748,10.19069 10.1007,30.99702 11.5145,33.15464 0.6561,1.00147 1.4923,3.22635 1.8581,4.94418 1.7188,8.07197 12.6353,31.76937 15.9016,34.51894 6.836,5.75461 16.7927,5.29717 29.8082,-1.36948 9.4886,-4.8602 11.5743,-5.24935 16.2477,-3.03165 4.2591,2.0211 6.4807,5.53564 7.9843,12.63114 2.3293,10.99276 2.3474,10.94009 -7.1209,20.68785 -4.6419,4.77884 -10.7916,10.07684 -13.666,11.77333 -2.8745,1.69649 -8.2322,5.02339 -11.9059,7.3931 -3.6737,2.36971 -7.2223,4.30857 -7.8857,4.30857 -0.6633,0 -2.4967,0.67294 -4.0741,1.49542 -4.2889,2.23644 -7.9737,2.59096 -20.7905,2.00035 z m -168.9212,-70.04369 c 3.6966,-1.19916 10.1487,-3.9139 14.3382,-6.03275 4.1894,-2.11886 8.8269,-4.4666 10.3055,-5.21721 1.4786,-0.75062 6.3933,-3.81698 10.9214,-6.81414 4.5281,-2.99717 10.7551,-6.8608 13.8376,-8.58586 14.7046,-8.22895 24.707,-18.76086 28.3079,-29.80617 1.1249,-3.45057 2.0453,-7.60163 2.0453,-9.22457 0,-1.62293 0.3949,-4.89705 0.8776,-7.2758 3.799,-18.72239 4.5554,-31.50696 2.3193,-39.19894 -1.5914,-5.47421 -3.4475,-7.35279 -11.2621,-11.39809 l -5.8249,-3.01531 h -16.1304 c -13.7124,0 -16.5633,0.23665 -19.0184,1.57866 -1.5885,0.86826 -5.897,2.15437 -9.5747,2.858 -6.141,1.17498 -14.9229,4.99519 -21.4192,9.31758 -7.6565,5.09434 -35.1746,32.24121 -44.3182,43.72027 -6.3233,7.93851 -8.845,13.74434 -10.2973,23.70825 -1.4707,10.09117 0.488,19.28575 5.7397,26.94282 2.1439,3.12586 4.5029,7.23553 5.2422,9.1326 1.1829,3.03543 2.3655,3.98222 9.8575,7.89189 l 8.5132,4.44267 9.4094,-0.42181 c 6.59,-0.29541 11.4233,-1.0751 16.1304,-2.60209 z M 1469.3183,470.51694 c 4.5649,-1.44727 8.8394,-2.63141 9.4988,-2.63141 1.8931,0 26.2195,-8.37334 34.625,-11.91821 4.1894,-1.76681 11.9841,-4.47085 17.3215,-6.00897 5.3374,-1.53812 15.1089,-5.19079 21.7145,-8.11703 6.6056,-2.92626 12.2302,-5.32046 12.499,-5.32046 0.2689,0 4.8211,-2.14199 10.1162,-4.75997 5.2951,-2.61799 13.8535,-6.07089 19.0188,-7.67313 13.036,-4.04366 12.9718,-4.02051 21.4892,-7.75322 4.1894,-1.836 12.4563,-5.03121 18.3708,-7.10046 10.0243,-3.50715 22.5988,-9.17802 25.2738,-11.39811 1.558,-1.29301 1.4707,-3.85393 -0.178,-5.22222 -0.7371,-0.61169 -1.7933,-2.62504 -2.3473,-4.47409 -3.682,-12.28917 -35.8403,-34.24398 -53.2171,-36.33171 -2.9572,-0.35529 -6.1833,-0.83285 -7.1691,-1.06123 -2.277,-0.52757 -24.6634,-0.34818 -25.5582,0.20481 -0.3681,0.22746 -3.4381,0.80627 -6.8225,1.28625 -7.4579,1.05773 -22.8898,5.70716 -27.0087,8.13736 -1.6468,0.97166 -3.4302,1.76665 -3.963,1.76665 -0.5328,0 -2.8285,1.64461 -5.1016,3.65469 -14.5434,12.86096 -18.3074,16.34444 -24.6076,22.77352 -7.5074,7.66105 -15.0345,16.45357 -20.5674,24.02498 -1.8725,2.56246 -4.7726,6.07042 -6.4446,7.79548 -1.6721,1.72506 -4.4497,5.99768 -6.1726,9.49472 -1.7229,3.49704 -6.18,10.878 -9.9047,16.40212 -3.7246,5.52413 -7.0431,11.13138 -7.3743,12.46055 -0.3312,1.32918 -1.3328,4.02972 -2.2257,6.00122 -0.893,1.97149 -1.6325,4.66795 -1.6433,5.99212 -0.017,2.04468 0.4193,2.46598 2.8927,2.79497 4.3422,0.57754 8.2912,-0.10435 17.4854,-3.01922 z m 47.8512,-47.97657 c -2.9553,-2.06996 -3.9847,-5.37606 -2.7956,-8.97887 1.0216,-3.09567 8.2599,-10.19757 10.3934,-10.19757 0.6686,0 2.7895,-1.42207 4.7134,-3.16016 1.9239,-1.73808 6.844,-4.79527 10.9336,-6.79374 8.0949,-3.95583 11.5111,-4.53343 34.087,-5.76339 10.7238,-0.58424 11.4229,-0.51777 13.1951,1.25445 2.4239,2.42382 3.1399,5.42167 2.0067,8.40204 -1.6762,4.40876 -3.9364,5.06833 -21.2006,6.18673 -14.9608,0.9692 -16.4524,1.22717 -21.4554,3.71112 -2.9572,1.46824 -6.7589,3.87718 -8.4481,5.3532 -1.6892,1.47603 -4.4033,3.24024 -6.0313,3.92046 -1.628,0.68022 -3.5785,2.18067 -4.3344,3.33431 -2.5932,3.95778 -7.5617,5.18439 -11.0638,2.73142 z"
       id="path837"
       sodipodi:nodetypes="ccssssssssssssssssssssssssssssssssssssssssssssssssssssssssssssssssssscsssssssssccssssssssssssssssssssssscssssssssssssssssssssssssssssssssssssssscssssssssssssssssssssssssssssssssssssssssssssssssssssssssssssscssssssssscssssssssssssssssssssssssssssscssssssssssssssss" />
  </g>
</svg>
